<svg width="729" height="199" viewBox="0 0 729 199" fill="none" xmlns="http://www.w3.org/2000/svg">
<mask id="path-1-inside-1_2025_1545" fill="white">
<path d="M45 199C39.4772 199 35 194.523 35 189L35 24.3057L-1.73971e-05 6.37312e-05L719 8.74228e-07C724.523 1.56502e-05 729 4.47716 729 10L729 189C729 194.523 724.523 199 719 199L45 199Z"/>
</mask>
<path d="M45 199C39.4772 199 35 194.523 35 189L35 24.3057L-1.73971e-05 6.37312e-05L719 8.74228e-07C724.523 1.56502e-05 729 4.47716 729 10L729 189C729 194.523 724.523 199 719 199L45 199Z" fill="#FFEE6E"/>
<path d="M45 199L45 200L45 199ZM35 189L34 189L35 189ZM35 24.3057L36 24.3057L36 23.7827L35.5704 23.4844L35 24.3057ZM-1.73971e-05 6.37312e-05L-1.74846e-05 -0.999936L-3.19319 -0.999936L-0.570391 0.821429L-1.73971e-05 6.37312e-05ZM719 8.74228e-07L719 -0.999999L719 -0.999999L719 8.74228e-07ZM729 10L730 10L729 10ZM45 199L45 198C40.0294 198 36 193.971 36 189L35 189L34 189C34 195.075 38.9249 200 45 200L45 199ZM35 189L36 189L36 24.3057L35 24.3057L34 24.3057L34 189L35 189ZM35 24.3057L35.5704 23.4844L0.570356 -0.821302L-1.73971e-05 6.37312e-05L-0.570391 0.821429L34.4296 25.1271L35 24.3057ZM-1.73971e-05 6.37312e-05L-1.73097e-05 1.00006L719 1L719 8.74228e-07L719 -0.999999L-1.74846e-05 -0.999936L-1.73971e-05 6.37312e-05ZM719 8.74228e-07L719 1C723.971 1 728 5.02945 728 10L729 10L730 10C730 3.92487 725.075 -0.999984 719 -0.999999L719 8.74228e-07ZM729 10L728 10L728 189L729 189L730 189L730 10L729 10ZM729 189L728 189C728 193.971 723.971 198 719 198L719 199L719 200C725.075 200 730 195.075 730 189L729 189ZM719 199L719 198L45 198L45 199L45 200L719 200L719 199Z" fill="black" mask="url(#path-1-inside-1_2025_1545)"/>
<path d="M70.4141 31.7188V60H64.5156V37.3047H64.3594L57.875 41.3672V36.1719L64.8672 31.7188H70.4141ZM86.0891 31.3281C91.9484 31.3672 97.4953 34.8438 97.4953 45.1172C97.5344 54.7266 92.9641 60.3906 85.8547 60.3906C80.1516 60.3906 76.2844 56.8359 75.6984 52.0312H81.4797C81.9484 54.1016 83.5891 55.3516 85.8547 55.3516C89.7219 55.3516 91.7531 51.9141 91.7531 46.25H91.5187C90.1906 48.75 87.4172 50.2344 84.2531 50.2344C79.175 50.2344 75.425 46.4062 75.3859 41.1328C75.3859 35.4297 79.6828 31.2891 86.0891 31.3281ZM86.1281 35.9375C83.2375 35.9375 81.0891 38.1641 81.1281 40.9766C81.1281 43.75 83.1984 45.9375 86.0891 45.9375C88.9406 45.9375 91.1672 43.6719 91.1672 40.9375C91.1281 38.2422 89.0187 35.9375 86.1281 35.9375ZM110.592 31.3281C116.452 31.3672 121.998 34.8438 121.998 45.1172C122.037 54.7266 117.467 60.3906 110.358 60.3906C104.655 60.3906 100.787 56.8359 100.202 52.0312H105.983C106.452 54.1016 108.092 55.3516 110.358 55.3516C114.225 55.3516 116.256 51.9141 116.256 46.25H116.022C114.694 48.75 111.92 50.2344 108.756 50.2344C103.678 50.2344 99.9281 46.4062 99.8891 41.1328C99.8891 35.4297 104.186 31.2891 110.592 31.3281ZM110.631 35.9375C107.741 35.9375 105.592 38.1641 105.631 40.9766C105.631 43.75 107.702 45.9375 110.592 45.9375C113.444 45.9375 115.67 43.6719 115.67 40.9375C115.631 38.2422 113.522 35.9375 110.631 35.9375ZM135.408 60.3906C128.963 60.3906 124.314 56.9922 124.314 52.3828C124.314 48.8281 127.048 45.9375 130.564 45.3906V45.1953C127.517 44.6094 125.408 42.0312 125.408 38.9453C125.408 34.5312 129.627 31.3281 135.408 31.3281C141.189 31.3281 145.408 34.5312 145.447 38.9453C145.408 42.0703 143.259 44.6094 140.291 45.1953V45.3906C143.728 45.9375 146.502 48.8281 146.502 52.3828C146.502 56.9922 141.853 60.3906 135.408 60.3906ZM135.408 55.8984C138.377 55.8984 140.369 54.2188 140.369 51.7969C140.369 49.3359 138.298 47.5391 135.408 47.5391C132.517 47.5391 130.408 49.3359 130.447 51.7969C130.408 54.2188 132.4 55.8984 135.408 55.8984ZM135.408 43.3984C137.908 43.3984 139.705 41.7969 139.705 39.5312C139.705 37.3438 137.947 35.7812 135.408 35.7812C132.869 35.7812 131.15 37.3047 131.15 39.5312C131.15 41.7969 132.908 43.3984 135.408 43.3984ZM178.114 28.0859V54.2188H173.153V42.5781H164.325V38.6719H173.153V35.9375H164.325V32.0312H173.153V28.0859H178.114ZM178.973 58.9844V62.9688H154.481V51.875H159.481V58.9844H178.973ZM155.067 30.3125V45.5078C159.423 45.4688 163.485 45.1758 167.919 44.375L168.427 48.3984C163.114 49.4141 158.309 49.6094 152.997 49.6094H150.145V30.3125H155.067ZM214.023 48.5547V52.4609H200.117V63.5938H195.195V52.4609H181.484V48.5547H214.023ZM190.234 29.4141V33.5156H205.156V29.4141H210.156V45.1172H185.312V29.4141H190.234ZM190.234 41.1328H205.156V37.4219H190.234V41.1328ZM244.894 28.0469V63.6719H239.972V44.6094H233.722V40.5859H239.972V28.0469H244.894ZM233.136 31.0156V35.0391H221.495V40.9375H231.847V44.8438H221.495V51.5625C226.417 51.5234 230.363 51.3477 234.777 50.6641L235.284 54.6484C230.089 55.4297 225.441 55.625 219.347 55.625H216.534V31.0156H233.136ZM286.048 28.0469V63.6719H281.009V28.0469H286.048ZM266.752 30.5469C272.103 30.5469 276.087 35.4688 276.087 43.2031C276.087 51.0156 272.103 55.8984 266.752 55.8984C261.283 55.8984 257.298 51.0156 257.337 43.2031C257.298 35.4688 261.283 30.5469 266.752 30.5469ZM266.752 35.0391C263.978 35.0391 262.142 37.9297 262.142 43.2031C262.142 48.5156 263.978 51.3672 266.752 51.3672C269.447 51.3672 271.283 48.5156 271.283 43.2031C271.283 37.9297 269.447 35.0391 266.752 35.0391ZM299.458 30.5469C304.262 30.5469 307.837 34.5117 308.559 40.8984H314.731V28.0469H319.653V63.6719H314.731V44.8828H308.598C308.071 51.7188 304.419 55.8984 299.458 55.8984C294.067 55.8984 290.2 51.0156 290.239 43.2031C290.2 35.4688 294.067 30.5469 299.458 30.5469ZM299.458 35.0391C296.802 35.0391 294.966 37.9297 295.005 43.2031C294.966 48.5156 296.802 51.3672 299.458 51.3672C302.153 51.3672 303.911 48.5156 303.911 43.2031C303.911 37.9297 302.153 35.0391 299.458 35.0391ZM336.891 35.0781C336.891 39.3359 339.508 43.6719 345.367 45.4297L342.828 49.3359C338.844 48.0859 336.031 45.5273 334.43 42.3047C332.809 45.8008 329.918 48.6133 325.758 50L323.18 46.0938C329.078 44.1797 331.812 39.5703 331.812 35.0781V34.5703H324.508V30.5859H344.039V34.5703H336.891V35.0781ZM352.789 28.0859V53.7891H347.789V28.0859H352.789ZM353.727 58.9844V62.9688H328.961V51.4453H334V58.9844H353.727ZM85.2578 78.0469V86.6016H90.0625V90.7422H85.2578V98.8672H80.2578V78.0469H85.2578ZM66.9375 100.234V102.93H80.2578V100.234H85.2578V113.203H61.9766V100.234H66.9375ZM66.9375 109.297H80.2578V106.758H66.9375V109.297ZM78.1484 81.1719V85.0781H57.0547V81.1719H65.1406V77.8125H70.1016V81.1719H78.1484ZM67.6016 86.0938C72.7578 86.0938 76.3516 88.5938 76.3516 92.3828C76.3516 96.1719 72.7578 98.6719 67.6016 98.6719C62.3672 98.6719 58.7734 96.1719 58.7734 92.3828C58.7734 88.5938 62.3672 86.0938 67.6016 86.0938ZM67.6016 89.7656C65.2188 89.7266 63.6172 90.7031 63.6562 92.3828C63.6172 94.1016 65.2188 95.0391 67.6016 95.0391C69.9844 95.0391 71.625 94.1016 71.625 92.3828C71.625 90.7031 69.9844 89.7266 67.6016 89.7656ZM109.448 80.2734C109.448 81.5039 109.351 82.6953 109.175 83.8281H115.425V78.0859H120.386V99.1797H115.425V95.3125H107.339V91.3281H115.425V87.7344H108.003C105.601 93.2422 100.347 97.1094 92.6906 99.1406L90.8156 95.1562C98.8234 93.1055 103.316 89.1211 104.097 84.2969H92.8469V80.2734H109.448ZM120.386 100.625V113.516H115.425V104.531H95.9719V100.625H120.386ZM162.634 78.0469V113.594H157.83V78.0469H162.634ZM155.095 78.6719V111.992H150.447V95.0781H144.08V91.0156H150.447V78.6719H155.095ZM146.502 82.0703V86.0547H137.791V101.523C141.599 101.504 144.47 101.309 147.791 100.625L148.181 104.688C144.158 105.508 140.564 105.664 135.369 105.664H132.908V82.0703H146.502ZM194.95 78.0469V113.672H189.911V78.0469H194.95ZM175.653 80.5469C181.005 80.5469 184.989 85.4688 184.989 93.2031C184.989 101.016 181.005 105.898 175.653 105.898C170.184 105.898 166.2 101.016 166.239 93.2031C166.2 85.4688 170.184 80.5469 175.653 80.5469ZM175.653 85.0391C172.88 85.0391 171.044 87.9297 171.044 93.2031C171.044 98.5156 172.88 101.367 175.653 101.367C178.348 101.367 180.184 98.5156 180.184 93.2031C180.184 87.9297 178.348 85.0391 175.653 85.0391ZM228.555 78.0469V113.672H223.633V94.6094H217.383V90.5859H223.633V78.0469H228.555ZM216.797 81.0156V85.0391H205.156V90.9375H215.508V94.8438H205.156V101.562C210.078 101.523 214.023 101.348 218.438 100.664L218.945 104.648C213.75 105.43 209.102 105.625 203.008 105.625H200.195V81.0156H216.797ZM272.483 105.391V109.453H239.944V105.391H253.655V98.8281H243.381V80.3125H248.381V85.8203H263.889V80.3125H268.85V98.8281H258.616V105.391H272.483ZM248.381 94.8438H263.889V89.8047H248.381V94.8438ZM303.197 78.0469V113.594H298.158V78.0469H303.197ZM292.533 81.7578C292.533 92.5391 288.744 101.484 276.048 107.5L273.431 103.516C282.611 99.1797 286.654 93.5547 287.455 85.6641H275.345V81.7578H292.533Z" fill="black"/>
<rect x="581" y="21" width="129" height="40" rx="20" fill="black"/>
<path d="M608.09 36.8672C608.07 39.582 609.516 42.707 612.445 44.0547L611.059 46.0078C609.076 45.0996 607.66 43.2832 606.879 41.1445C606.078 43.498 604.623 45.4902 602.562 46.457L601.117 44.4844C604.086 43.0977 605.57 39.7969 605.59 36.8672V35.7734H601.82V33.7422H611.664V35.7734H608.09V36.8672ZM615.551 32.0234V38.8008H618.168V40.8906H615.551V49.7969H613.051V32.0234H615.551ZM623.916 36.4961C623.916 39.3672 624.716 42.3359 627.138 43.8984L625.791 45.832C624.257 44.9043 623.281 43.3809 622.724 41.5547C622.08 43.5664 621.015 45.2461 619.404 46.2227L617.88 44.3867C620.517 42.7461 621.494 39.6211 621.494 36.6133V33.5469H623.916V36.4961ZM633.623 32.0234V49.7969H631.24V32.0234H633.623ZM629.892 32.2773V48.9766H627.568V40.0508H625.263V38.0195H627.568V32.2773H629.892ZM649.78 32.0234V49.7969H647.261V32.0234H649.78ZM645.894 34.6992V36.6914H635.269V34.6992H639.312V32.2578H641.851V34.6992H645.894ZM640.62 37.668C643.237 37.668 645.191 39.4258 645.191 41.9062C645.191 44.3867 643.237 46.1445 640.62 46.1445C637.984 46.1445 636.03 44.3867 636.03 41.9062C636.03 39.4258 637.984 37.668 640.62 37.668ZM640.62 39.6797C639.312 39.6992 638.413 40.5391 638.413 41.9062C638.413 43.293 639.312 44.1133 640.62 44.0938C641.909 44.1133 642.808 43.293 642.808 41.9062C642.808 40.5391 641.909 39.6992 640.62 39.6797ZM671.862 45.6953V47.7266H655.592V45.6953H662.448V42.4141H657.311V33.1562H659.811V35.9102H667.565V33.1562H670.045V42.4141H664.928V45.6953H671.862ZM659.811 40.4219H667.565V37.9023H659.811V40.4219ZM687.219 32.0234V49.7969H684.699V32.0234H687.219ZM681.887 33.8789C681.887 39.2695 679.992 43.7422 673.645 46.75L672.336 44.7578C676.926 42.5898 678.947 39.7773 679.348 35.832H673.293V33.8789H681.887Z" fill="white"/>
<path d="M67.5469 141.25H63.9844V140.234H67.5469V141.25ZM68.0781 146.578H66.8438V136.391H68.0781V146.578ZM68.4688 149.969H59.1562V148.938H68.4688V149.969ZM60.3906 149.438H59.1562V145.656H60.3906V149.438ZM61.1719 139.25C61.1719 140.073 61.0078 140.854 60.6797 141.594C60.3516 142.333 59.8932 142.979 59.3047 143.531C58.7161 144.083 58.0365 144.505 57.2656 144.797L56.625 143.797C57.3021 143.557 57.9089 143.206 58.4453 142.742C58.9818 142.279 59.401 141.745 59.7031 141.141C60.0052 140.536 60.1562 139.906 60.1562 139.25V138.109H61.1719V139.25ZM61.3906 139.25C61.3906 139.844 61.5365 140.422 61.8281 140.984C62.1198 141.547 62.5234 142.047 63.0391 142.484C63.5547 142.922 64.1458 143.255 64.8125 143.484L64.1719 144.469C63.4219 144.198 62.763 143.799 62.1953 143.273C61.6276 142.747 61.1849 142.135 60.8672 141.438C60.5495 140.74 60.3906 140.01 60.3906 139.25V138.109H61.3906V139.25ZM64.5 138.531H57.0156V137.516H64.5V138.531ZM78.3013 142.906H75.6294V141.859H78.3013V142.906ZM73.77 140.656C73.77 141.583 73.6398 142.487 73.3794 143.367C73.119 144.247 72.7466 145.042 72.2622 145.75C71.7778 146.458 71.2023 147.016 70.5356 147.422L69.8013 146.484C70.4158 146.13 70.9497 145.643 71.4028 145.023C71.8559 144.404 72.2049 143.714 72.4497 142.953C72.6945 142.193 72.8169 141.427 72.8169 140.656V139.922H73.77V140.656ZM73.9731 140.656C73.9731 141.396 74.0955 142.128 74.3403 142.852C74.5851 143.576 74.9367 144.229 75.395 144.812C75.8533 145.396 76.3898 145.854 77.0044 146.188L76.3013 147.109C75.6346 146.745 75.0539 146.227 74.5591 145.555C74.0643 144.883 73.6867 144.122 73.4263 143.273C73.1658 142.424 73.0356 141.552 73.0356 140.656V139.922H73.9731V140.656ZM76.5825 139.969H70.1763V138.953H76.5825V139.969ZM73.9888 139.719H72.8169V136.891H73.9888V139.719ZM81.7856 150.266H80.6138V136.375H81.7856V150.266ZM78.9731 149.547H77.8169V136.719H78.9731V149.547ZM97.8412 141.656H88.435V136.969H97.8412V141.656ZM89.6381 140.672H96.6225V137.953H89.6381V140.672ZM99.4506 144.438H86.7944V143.438H99.4506V144.438ZM93.7319 143.828H92.5131V141.406H93.7319V143.828ZM97.8881 150.266H96.6537V146.875H88.2006V145.891H97.8881V150.266ZM112.846 145.047H100.127V144.031H112.846V145.047ZM111.205 140.094H103.002V141.984H101.783V139.172H109.971V137.734H101.736V136.734H111.205V140.094ZM111.502 142.562H101.783V141.578H111.502V142.562ZM107.08 144.531H105.877V142.078H107.08V144.531ZM111.283 150.141H110.049V147.109H101.549V146.109H111.283V150.141ZM120.475 138.922H114.131V137.922H120.475V138.922ZM117.553 146.594H116.35V141.891H117.553V146.594ZM121.194 138.859C121.183 139.682 121.152 140.505 121.1 141.328C121.048 142.151 120.944 143.094 120.787 144.156L119.553 144.047C119.73 142.943 119.842 141.977 119.889 141.148C119.936 140.32 119.959 139.484 119.959 138.641V137.922H121.194V138.641V138.859ZM124.209 150.266H122.991V136.375H124.209V150.266ZM126.459 143.25H123.881V142.188H126.459V143.25ZM113.553 146.188C115.147 146.177 116.66 146.143 118.092 146.086C119.524 146.029 120.866 145.927 122.116 145.781L122.178 146.703C120.866 146.901 119.475 147.036 118.006 147.109C116.537 147.182 115.037 147.214 113.506 147.203L113.35 146.188H113.553ZM141.359 141.25H137.796V140.234H141.359V141.25ZM141.89 146.578H140.656V136.391H141.89V146.578ZM142.281 149.969H132.968V148.938H142.281V149.969ZM134.202 149.438H132.968V145.656H134.202V149.438ZM134.984 139.25C134.984 140.073 134.82 140.854 134.492 141.594C134.163 142.333 133.705 142.979 133.117 143.531C132.528 144.083 131.848 144.505 131.077 144.797L130.437 143.797C131.114 143.557 131.721 143.206 132.257 142.742C132.794 142.279 133.213 141.745 133.515 141.141C133.817 140.536 133.968 139.906 133.968 139.25V138.109H134.984V139.25ZM135.202 139.25C135.202 139.844 135.348 140.422 135.64 140.984C135.932 141.547 136.335 142.047 136.851 142.484C137.367 142.922 137.958 143.255 138.624 143.484L137.984 144.469C137.234 144.198 136.575 143.799 136.007 143.273C135.439 142.747 134.997 142.135 134.679 141.438C134.361 140.74 134.202 140.01 134.202 139.25V138.109H135.202V139.25ZM138.312 138.531H130.827V137.516H138.312V138.531ZM150.004 145.156C151.004 145.156 151.868 145.255 152.598 145.453C153.327 145.651 153.889 145.943 154.285 146.328C154.681 146.714 154.879 147.172 154.879 147.703C154.879 148.224 154.681 148.674 154.285 149.055C153.889 149.435 153.324 149.727 152.59 149.93C151.855 150.133 150.993 150.234 150.004 150.234C149.014 150.234 148.155 150.133 147.426 149.93C146.696 149.727 146.134 149.435 145.738 149.055C145.342 148.674 145.144 148.224 145.144 147.703C145.144 147.172 145.342 146.714 145.738 146.328C146.134 145.943 146.696 145.651 147.426 145.453C148.155 145.255 149.014 145.156 150.004 145.156ZM150.004 146.094C149.275 146.094 148.634 146.159 148.082 146.289C147.53 146.419 147.105 146.607 146.808 146.852C146.512 147.096 146.363 147.38 146.363 147.703C146.363 148.016 146.512 148.292 146.808 148.531C147.105 148.771 147.53 148.953 148.082 149.078C148.634 149.203 149.275 149.266 150.004 149.266C150.743 149.266 151.387 149.203 151.933 149.078C152.48 148.953 152.905 148.771 153.207 148.531C153.509 148.292 153.66 148.016 153.66 147.703C153.66 147.38 153.509 147.096 153.207 146.852C152.905 146.607 152.48 146.419 151.933 146.289C151.387 146.159 150.743 146.094 150.004 146.094ZM154.254 138.094H145.238V137.094H154.254V138.094ZM156.379 143.859H143.738V142.859H156.379V143.859ZM150.176 143.172H148.973V140.172H150.176V143.172ZM154.769 138.266C154.769 139.016 154.749 139.656 154.707 140.188C154.665 140.719 154.556 141.307 154.379 141.953L153.176 141.812C153.342 141.188 153.446 140.625 153.488 140.125C153.53 139.625 153.551 139.047 153.551 138.391V138.266V137.094H154.769V138.266ZM157.961 150.703H156.743L160.383 137.156H161.618L157.961 150.703ZM172.637 139.578H168.419V138.562H172.637V139.578ZM172.637 142.906H168.419V141.891H172.637V142.906ZM173.45 146.656H172.216V136.391H173.45V146.656ZM173.841 149.969H164.528V148.938H173.841V149.969ZM165.762 149.359H164.528V145.578H165.762V149.359ZM165.762 137.266C166.44 137.266 167.049 137.417 167.591 137.719C168.132 138.021 168.562 138.435 168.88 138.961C169.197 139.487 169.356 140.083 169.356 140.75C169.356 141.417 169.197 142.013 168.88 142.539C168.562 143.065 168.132 143.477 167.591 143.773C167.049 144.07 166.44 144.219 165.762 144.219C165.075 144.219 164.458 144.07 163.911 143.773C163.364 143.477 162.934 143.065 162.622 142.539C162.309 142.013 162.153 141.417 162.153 140.75C162.153 140.083 162.309 139.484 162.622 138.953C162.934 138.422 163.364 138.008 163.911 137.711C164.458 137.414 165.075 137.266 165.762 137.266ZM165.762 138.359C165.294 138.359 164.874 138.464 164.505 138.672C164.135 138.88 163.846 139.164 163.637 139.523C163.429 139.883 163.325 140.292 163.325 140.75C163.325 141.208 163.429 141.617 163.637 141.977C163.846 142.336 164.135 142.617 164.505 142.82C164.874 143.023 165.294 143.125 165.762 143.125C166.21 143.125 166.619 143.023 166.989 142.82C167.359 142.617 167.648 142.333 167.856 141.969C168.065 141.604 168.169 141.198 168.169 140.75C168.169 140.292 168.065 139.883 167.856 139.523C167.648 139.164 167.359 138.88 166.989 138.672C166.619 138.464 166.21 138.359 165.762 138.359ZM186.501 143.891H176.908V142.891H186.501V143.891ZM188.001 148.516H175.283V147.484H188.001V148.516ZM182.204 147.906H181.001V143.328H182.204V147.906ZM186.361 138.516H178.142V143.359H176.908V137.516H186.361V138.516ZM199.24 139.328H195.24V138.375H199.24V139.328ZM199.24 141.859H195.24V140.891H199.24V141.859ZM200.131 143.641H198.912V136.375H200.131V143.641ZM200.131 147.578H192.381V149.766H191.162V146.641H198.912V145.297H191.131V144.312H200.131V147.578ZM200.662 150.078H191.162V149.094H200.662V150.078ZM190.553 139.031H194.428V137.031H195.631V143.078H189.334V137.031H190.553V139.031ZM194.428 142.078V140H190.553V142.078H194.428ZM217.405 150.266H216.217V136.375H217.405V150.266ZM213.921 142.719H210.358V141.688H213.921V142.719ZM214.561 149.547H213.389V136.719H214.561V149.547ZM206.936 145.891C208.082 145.891 209.025 145.862 209.764 145.805C210.504 145.747 211.254 145.635 212.014 145.469L212.139 146.516C211.379 146.672 210.624 146.776 209.874 146.828C209.124 146.88 208.145 146.911 206.936 146.922H206.061V145.891H206.936ZM211.296 139.109H207.249V146.281H206.061V138.094H211.296V139.109ZM230.316 150.297H229.081V136.375H230.316V150.297ZM222.925 137.453C223.613 137.453 224.224 137.654 224.761 138.055C225.297 138.456 225.717 139.021 226.019 139.75C226.321 140.479 226.472 141.328 226.472 142.297C226.472 143.266 226.321 144.115 226.019 144.844C225.717 145.573 225.297 146.135 224.761 146.531C224.224 146.927 223.613 147.125 222.925 147.125C222.238 147.125 221.626 146.927 221.089 146.531C220.553 146.135 220.133 145.573 219.831 144.844C219.529 144.115 219.378 143.266 219.378 142.297C219.378 141.328 219.529 140.479 219.831 139.75C220.133 139.021 220.553 138.456 221.089 138.055C221.626 137.654 222.238 137.453 222.925 137.453ZM222.925 138.547C222.467 138.547 222.058 138.703 221.698 139.016C221.339 139.328 221.06 139.766 220.863 140.328C220.665 140.891 220.566 141.547 220.566 142.297C220.566 143.036 220.665 143.69 220.863 144.258C221.06 144.826 221.339 145.263 221.698 145.57C222.058 145.878 222.467 146.031 222.925 146.031C223.383 146.031 223.792 145.878 224.152 145.57C224.511 145.263 224.79 144.826 224.988 144.258C225.185 143.69 225.284 143.036 225.284 142.297C225.284 141.547 225.185 140.891 224.988 140.328C224.79 139.766 224.514 139.328 224.159 139.016C223.805 138.703 223.394 138.547 222.925 138.547ZM243.726 150.297H242.508V136.375H243.726V150.297ZM242.711 142.641H239.57V141.625H242.711V142.641ZM233.914 145.922C235.31 145.922 236.468 145.893 237.39 145.836C238.312 145.779 239.242 145.667 240.179 145.5L240.32 146.516C239.341 146.672 238.375 146.781 237.422 146.844C236.468 146.906 235.299 146.938 233.914 146.938H232.851V145.922H233.914ZM239.336 138.672H234.086V146.266H232.851V137.656H239.336V138.672ZM238.726 142.562H233.758V141.562H238.726V142.562ZM256.793 141.578H247.277V140.594H256.793V141.578ZM258.262 144.469H245.543V143.469H258.262V144.469ZM248.496 141.094H247.277V136.891H248.496V141.094ZM256.871 149.922H247.199V148.906H256.871V149.922ZM248.418 149.203H247.199V145.891H248.418V149.203ZM263.677 137.688H264.833L263.974 141.938H262.458L263.677 137.688ZM269.962 140.641C269.962 141.578 269.783 142.516 269.423 143.453C269.064 144.391 268.582 145.224 267.978 145.953C267.374 146.682 266.718 147.229 266.009 147.594L265.259 146.625C265.926 146.302 266.543 145.818 267.111 145.172C267.679 144.526 268.134 143.802 268.478 143C268.822 142.198 268.994 141.411 268.994 140.641V138.344H269.962V140.641ZM270.197 140.641C270.197 141.37 270.356 142.109 270.673 142.859C270.991 143.609 271.426 144.289 271.978 144.898C272.53 145.508 273.14 145.969 273.806 146.281L273.103 147.25C272.384 146.896 271.728 146.372 271.134 145.68C270.541 144.987 270.072 144.198 269.728 143.312C269.384 142.427 269.212 141.536 269.212 140.641V138.344H270.197V140.641ZM273.322 138.828H265.759V137.812H273.322V138.828ZM276.244 150.266H275.025V136.375H276.244V150.266ZM278.572 143.047H275.962V142H278.572V143.047ZM287.092 142.406H284.357V141.359H287.092V142.406ZM282.748 140.375C282.748 141.323 282.615 142.25 282.35 143.156C282.084 144.062 281.704 144.872 281.209 145.586C280.714 146.299 280.134 146.859 279.467 147.266L278.686 146.344C279.311 145.979 279.857 145.479 280.326 144.844C280.795 144.208 281.154 143.503 281.404 142.727C281.654 141.951 281.779 141.167 281.779 140.375V137.688H282.748V140.375ZM282.967 140.328C282.967 141.068 283.084 141.807 283.318 142.547C283.553 143.286 283.891 143.961 284.334 144.57C284.777 145.18 285.295 145.661 285.889 146.016L285.186 146.969C284.529 146.573 283.964 146.023 283.49 145.32C283.016 144.617 282.654 143.833 282.404 142.969C282.154 142.104 282.029 141.224 282.029 140.328V137.688H282.967V140.328ZM290.748 150.266H289.561V136.375H290.748V150.266ZM287.873 149.562H286.717V136.672H287.873V149.562ZM303.643 150.266H302.409V136.375H303.643V150.266ZM300.909 139.641H292.503V138.641H300.909V139.641ZM296.737 140.781C297.404 140.781 297.997 140.917 298.518 141.188C299.039 141.458 299.445 141.836 299.737 142.32C300.029 142.805 300.174 143.354 300.174 143.969C300.174 144.583 300.029 145.133 299.737 145.617C299.445 146.102 299.039 146.479 298.518 146.75C297.997 147.021 297.404 147.156 296.737 147.156C296.07 147.156 295.474 147.021 294.948 146.75C294.422 146.479 294.013 146.102 293.721 145.617C293.43 145.133 293.284 144.583 293.284 143.969C293.284 143.354 293.43 142.805 293.721 142.32C294.013 141.836 294.422 141.458 294.948 141.188C295.474 140.917 296.07 140.781 296.737 140.781ZM296.737 141.812C296.299 141.812 295.906 141.904 295.557 142.086C295.208 142.268 294.935 142.523 294.737 142.852C294.539 143.18 294.44 143.552 294.44 143.969C294.44 144.385 294.539 144.755 294.737 145.078C294.935 145.401 295.208 145.654 295.557 145.836C295.906 146.018 296.299 146.109 296.737 146.109C297.174 146.109 297.565 146.018 297.909 145.836C298.253 145.654 298.521 145.401 298.713 145.078C298.906 144.755 299.003 144.385 299.003 143.969C299.003 143.552 298.906 143.18 298.713 142.852C298.521 142.523 298.253 142.268 297.909 142.086C297.565 141.904 297.174 141.812 296.737 141.812ZM297.315 139.25H296.081V136.516H297.315V139.25ZM321.792 148.484H309.074V147.469H321.792V148.484ZM315.996 147.781H314.792V144.109H315.996V147.781ZM311.808 139.875H319.027V137.359H320.23V144.469H310.574V137.359H311.808V139.875ZM319.027 143.469V140.875H311.808V143.469H319.027ZM333.906 150.266H332.672V136.375H333.906V150.266ZM329.797 137.891C329.797 139.266 329.57 140.552 329.117 141.75C328.664 142.948 327.953 144.049 326.984 145.055C326.016 146.06 324.776 146.927 323.266 147.656L322.594 146.656C323.938 146.021 325.052 145.273 325.938 144.414C326.823 143.555 327.484 142.594 327.922 141.531C328.359 140.469 328.578 139.318 328.578 138.078V137.891H329.797ZM329.078 138.891H323.234V137.891H329.078V138.891ZM336.942 141.953H335.786L336.645 137.703H338.161L336.942 141.953ZM347.181 142.812H344.509V141.797H347.181V142.812ZM350.728 150.266H349.54V136.375H350.728V150.266ZM347.931 149.562H346.759V136.672H347.931V149.562ZM341.978 137.547C342.582 137.547 343.108 137.742 343.556 138.133C344.004 138.523 344.353 139.083 344.603 139.812C344.853 140.542 344.978 141.396 344.978 142.375C344.978 143.344 344.853 144.193 344.603 144.922C344.353 145.651 344.004 146.214 343.556 146.609C343.108 147.005 342.582 147.203 341.978 147.203C341.384 147.203 340.86 147.005 340.407 146.609C339.954 146.214 339.605 145.651 339.36 144.922C339.116 144.193 338.993 143.344 338.993 142.375C338.993 141.396 339.116 140.542 339.36 139.812C339.605 139.083 339.954 138.523 340.407 138.133C340.86 137.742 341.384 137.547 341.978 137.547ZM341.978 138.703C341.603 138.703 341.277 138.852 341.001 139.148C340.725 139.445 340.514 139.87 340.368 140.422C340.222 140.974 340.149 141.625 340.149 142.375C340.149 143.115 340.222 143.76 340.368 144.312C340.514 144.865 340.728 145.289 341.009 145.586C341.29 145.883 341.613 146.031 341.978 146.031C342.353 146.031 342.678 145.883 342.954 145.586C343.23 145.289 343.444 144.865 343.595 144.312C343.746 143.76 343.821 143.115 343.821 142.375C343.821 141.625 343.746 140.974 343.595 140.422C343.444 139.87 343.23 139.445 342.954 139.148C342.678 138.852 342.353 138.703 341.978 138.703ZM363.076 142.125H359.169V141.125H363.076V142.125ZM356.826 140.109C356.826 141.109 356.656 142.091 356.318 143.055C355.979 144.018 355.516 144.872 354.927 145.617C354.339 146.362 353.68 146.932 352.951 147.328L352.154 146.344C352.831 146.01 353.448 145.516 354.005 144.859C354.563 144.203 355.003 143.456 355.326 142.617C355.649 141.779 355.81 140.943 355.81 140.109V137.578H356.826V140.109ZM357.06 140.109C357.06 140.932 357.221 141.745 357.544 142.547C357.867 143.349 358.305 144.06 358.857 144.68C359.409 145.299 360.018 145.766 360.685 146.078L359.951 147.078C359.211 146.693 358.547 146.143 357.958 145.43C357.37 144.716 356.906 143.896 356.568 142.969C356.229 142.042 356.06 141.089 356.06 140.109V137.578H357.06V140.109ZM363.685 150.297H362.466V136.375H363.685V150.297ZM373.975 144.672H372.756V142.906H373.975V144.672ZM379.897 145.703H378.663V136.391H379.897V145.703ZM381.975 141.625H379.381V140.594H381.975V141.625ZM369.209 144.281C370.866 144.281 372.399 144.253 373.811 144.195C375.222 144.138 376.553 144.021 377.803 143.844L377.913 144.734C376.59 144.964 375.225 145.112 373.819 145.18C372.413 145.247 370.85 145.281 369.131 145.281L368.991 144.281H369.209ZM379.897 150.266H378.663V147.375H370.694V146.391H379.897V150.266ZM377.381 138.594H369.334V137.656H377.381V138.594ZM373.35 139.125C374.006 139.125 374.579 139.208 375.069 139.375C375.558 139.542 375.939 139.779 376.209 140.086C376.48 140.393 376.616 140.755 376.616 141.172C376.616 141.589 376.48 141.953 376.209 142.266C375.939 142.578 375.558 142.82 375.069 142.992C374.579 143.164 374.006 143.25 373.35 143.25C372.704 143.25 372.136 143.164 371.647 142.992C371.157 142.82 370.777 142.578 370.506 142.266C370.235 141.953 370.1 141.589 370.1 141.172C370.1 140.755 370.235 140.393 370.506 140.086C370.777 139.779 371.157 139.542 371.647 139.375C372.136 139.208 372.704 139.125 373.35 139.125ZM373.35 140C372.933 139.99 372.569 140.031 372.256 140.125C371.944 140.219 371.702 140.354 371.53 140.531C371.358 140.708 371.272 140.922 371.272 141.172C371.272 141.411 371.358 141.622 371.53 141.805C371.702 141.987 371.944 142.128 372.256 142.227C372.569 142.326 372.933 142.375 373.35 142.375C373.777 142.375 374.147 142.326 374.459 142.227C374.772 142.128 375.014 141.987 375.186 141.805C375.358 141.622 375.444 141.411 375.444 141.172C375.444 140.922 375.358 140.708 375.186 140.531C375.014 140.354 374.772 140.219 374.459 140.125C374.147 140.031 373.777 139.99 373.35 140ZM373.975 138.141H372.756V136.266H373.975V138.141ZM393.87 146.547H392.651V136.391H393.87V146.547ZM394.307 149.969H384.901V148.938H394.307V149.969ZM386.12 149.281H384.901V145.516H386.12V149.281ZM386.37 137.359C387.057 137.359 387.68 137.503 388.237 137.789C388.794 138.076 389.229 138.479 389.542 139C389.854 139.521 390.011 140.109 390.011 140.766C390.011 141.432 389.854 142.023 389.542 142.539C389.229 143.055 388.794 143.458 388.237 143.75C387.68 144.042 387.057 144.188 386.37 144.188C385.682 144.188 385.063 144.042 384.511 143.75C383.959 143.458 383.524 143.055 383.206 142.539C382.888 142.023 382.729 141.432 382.729 140.766C382.729 140.109 382.888 139.521 383.206 139C383.524 138.479 383.959 138.076 384.511 137.789C385.063 137.503 385.682 137.359 386.37 137.359ZM386.37 138.438C385.912 138.438 385.495 138.536 385.12 138.734C384.745 138.932 384.453 139.208 384.245 139.562C384.037 139.917 383.932 140.318 383.932 140.766C383.932 141.214 384.037 141.617 384.245 141.977C384.453 142.336 384.745 142.615 385.12 142.812C385.495 143.01 385.912 143.109 386.37 143.109C386.828 143.109 387.242 143.01 387.612 142.812C387.982 142.615 388.274 142.336 388.487 141.977C388.701 141.617 388.807 141.214 388.807 140.766C388.807 140.318 388.701 139.917 388.487 139.562C388.274 139.208 387.982 138.932 387.612 138.734C387.242 138.536 386.828 138.438 386.37 138.438ZM406.499 150.266H405.281V136.375H406.499V150.266ZM408.828 143.125H406.218V142.109H408.828V143.125ZM403.937 139.625H395.671V138.609H403.937V139.625ZM399.874 140.781C400.531 140.781 401.117 140.917 401.632 141.188C402.148 141.458 402.551 141.836 402.843 142.32C403.135 142.805 403.281 143.354 403.281 143.969C403.281 144.583 403.135 145.133 402.843 145.617C402.551 146.102 402.148 146.479 401.632 146.75C401.117 147.021 400.531 147.156 399.874 147.156C399.218 147.156 398.632 147.021 398.117 146.75C397.601 146.479 397.197 146.102 396.906 145.617C396.614 145.133 396.468 144.583 396.468 143.969C396.468 143.354 396.614 142.805 396.906 142.32C397.197 141.836 397.601 141.458 398.117 141.188C398.632 140.917 399.218 140.781 399.874 140.781ZM399.874 141.812C399.447 141.812 399.064 141.904 398.726 142.086C398.387 142.268 398.122 142.523 397.929 142.852C397.736 143.18 397.64 143.552 397.64 143.969C397.64 144.385 397.736 144.755 397.929 145.078C398.122 145.401 398.387 145.654 398.726 145.836C399.064 146.018 399.447 146.109 399.874 146.109C400.301 146.109 400.684 146.018 401.023 145.836C401.361 145.654 401.627 145.401 401.82 145.078C402.012 144.755 402.109 144.385 402.109 143.969C402.109 143.552 402.012 143.18 401.82 142.852C401.627 142.523 401.361 142.268 401.023 142.086C400.684 141.904 400.301 141.812 399.874 141.812ZM400.468 139.078H399.249V136.547H400.468V139.078ZM417.348 142.406H414.613V141.359H417.348V142.406ZM413.004 140.375C413.004 141.323 412.871 142.25 412.605 143.156C412.34 144.062 411.959 144.872 411.465 145.586C410.97 146.299 410.389 146.859 409.723 147.266L408.941 146.344C409.566 145.979 410.113 145.479 410.582 144.844C411.051 144.208 411.41 143.503 411.66 142.727C411.91 141.951 412.035 141.167 412.035 140.375V137.688H413.004V140.375ZM413.223 140.328C413.223 141.068 413.34 141.807 413.574 142.547C413.808 143.286 414.147 143.961 414.59 144.57C415.032 145.18 415.551 145.661 416.144 146.016L415.441 146.969C414.785 146.573 414.22 146.023 413.746 145.32C413.272 144.617 412.91 143.833 412.66 142.969C412.41 142.104 412.285 141.224 412.285 140.328V137.688H413.223V140.328ZM421.004 150.266H419.816V136.375H421.004V150.266ZM418.129 149.562H416.973V136.672H418.129V149.562ZM426.805 147.703H425.602V143.547H426.805V147.703ZM432.008 147.703H430.774V143.547H432.008V147.703ZM435.164 148.484H422.446V147.453H435.164V148.484ZM428.774 137.25C429.763 137.25 430.641 137.398 431.407 137.695C432.172 137.992 432.771 138.411 433.203 138.953C433.636 139.495 433.852 140.12 433.852 140.828C433.852 141.536 433.636 142.159 433.203 142.695C432.771 143.232 432.172 143.648 431.407 143.945C430.641 144.242 429.763 144.391 428.774 144.391C427.795 144.391 426.92 144.242 426.149 143.945C425.378 143.648 424.776 143.232 424.344 142.695C423.912 142.159 423.696 141.536 423.696 140.828C423.696 140.12 423.912 139.495 424.344 138.953C424.776 138.411 425.378 137.992 426.149 137.695C426.92 137.398 427.795 137.25 428.774 137.25ZM428.774 138.266C428.024 138.255 427.354 138.357 426.766 138.57C426.177 138.784 425.716 139.086 425.383 139.477C425.05 139.867 424.883 140.318 424.883 140.828C424.883 141.339 425.05 141.789 425.383 142.18C425.716 142.57 426.177 142.875 426.766 143.094C427.354 143.312 428.024 143.422 428.774 143.422C429.524 143.422 430.193 143.312 430.782 143.094C431.37 142.875 431.831 142.57 432.164 142.18C432.498 141.789 432.664 141.339 432.664 140.828C432.664 140.318 432.498 139.867 432.164 139.477C431.831 139.086 431.37 138.784 430.782 138.57C430.193 138.357 429.524 138.255 428.774 138.266ZM437.263 149.094C437.085 149.094 436.919 149.047 436.763 148.953C436.606 148.859 436.484 148.734 436.395 148.578C436.307 148.422 436.263 148.255 436.263 148.078C436.263 147.901 436.307 147.734 436.395 147.578C436.484 147.422 436.606 147.299 436.763 147.211C436.919 147.122 437.085 147.078 437.263 147.078C437.44 147.078 437.606 147.122 437.763 147.211C437.919 147.299 438.041 147.422 438.13 147.578C438.218 147.734 438.263 147.901 438.263 148.078C438.263 148.255 438.218 148.422 438.13 148.578C438.041 148.734 437.919 148.859 437.763 148.953C437.606 149.047 437.44 149.094 437.263 149.094ZM57.4219 168.688C57.4323 167.229 57.6276 165.88 58.0078 164.641C58.388 163.401 58.9427 162.255 59.6719 161.203H60.8594C60.5052 161.724 60.1719 162.398 59.8594 163.227C59.5469 164.055 59.2943 164.948 59.1016 165.906C58.9089 166.865 58.8125 167.792 58.8125 168.688C58.8125 169.583 58.9089 170.513 59.1016 171.477C59.2943 172.44 59.5469 173.336 59.8594 174.164C60.1719 174.992 60.5052 175.667 60.8594 176.188H59.6719C58.9427 175.115 58.388 173.958 58.0078 172.719C57.6276 171.479 57.4323 170.135 57.4219 168.688ZM65.2544 161.453C65.9419 161.453 66.5486 161.654 67.0747 162.055C67.6007 162.456 68.0148 163.021 68.3169 163.75C68.619 164.479 68.77 165.328 68.77 166.297C68.77 167.266 68.619 168.115 68.3169 168.844C68.0148 169.573 67.5981 170.135 67.0669 170.531C66.5356 170.927 65.9315 171.125 65.2544 171.125C64.5773 171.125 63.9731 170.927 63.4419 170.531C62.9106 170.135 62.4966 169.573 62.1997 168.844C61.9028 168.115 61.7544 167.266 61.7544 166.297C61.7544 165.328 61.9028 164.479 62.1997 163.75C62.4966 163.021 62.9106 162.456 63.4419 162.055C63.9731 161.654 64.5773 161.453 65.2544 161.453ZM65.2544 162.547C64.796 162.547 64.3898 162.703 64.0356 163.016C63.6815 163.328 63.4054 163.766 63.2075 164.328C63.0096 164.891 62.9106 165.547 62.9106 166.297C62.9106 167.036 63.0096 167.69 63.2075 168.258C63.4054 168.826 63.6841 169.263 64.0434 169.57C64.4028 169.878 64.8065 170.031 65.2544 170.031C65.7127 170.031 66.119 169.878 66.4731 169.57C66.8273 169.263 67.1007 168.826 67.2934 168.258C67.4861 167.69 67.5825 167.036 67.5825 166.297C67.5825 165.547 67.4861 164.891 67.2934 164.328C67.1007 163.766 66.8273 163.328 66.4731 163.016C66.119 162.703 65.7127 162.547 65.2544 162.547ZM72.2856 174.266H71.0669V160.375H72.2856V174.266ZM74.6137 166.984H72.0044V165.922H74.6137V166.984ZM82.0869 161.828C82.0869 163.266 81.8942 164.594 81.5088 165.812C81.1233 167.031 80.4619 168.164 79.5244 169.211C78.5869 170.258 77.316 171.177 75.7119 171.969L75.0244 171.031C76.4619 170.333 77.6129 169.523 78.4775 168.602C79.3421 167.68 79.9619 166.674 80.3369 165.586C80.7119 164.497 80.8994 163.292 80.8994 161.969V161.828H82.0869ZM81.6181 162.844H75.79V161.828H81.6181V162.844ZM75.29 166.734L75.0869 165.656L80.6806 165.281V166.219L75.29 166.734ZM85.6338 174.266H84.415V160.375H85.6338V174.266ZM87.8838 167.062H85.3213V166.031H87.8838V167.062ZM99.685 174.297H98.4506V160.375H99.685V174.297ZM92.2944 161.453C92.9819 161.453 93.5939 161.654 94.1303 162.055C94.6668 162.456 95.086 163.021 95.3881 163.75C95.6902 164.479 95.8412 165.328 95.8412 166.297C95.8412 167.266 95.6902 168.115 95.3881 168.844C95.086 169.573 94.6668 170.135 94.1303 170.531C93.5939 170.927 92.9819 171.125 92.2944 171.125C91.6069 171.125 90.9949 170.927 90.4584 170.531C89.922 170.135 89.5027 169.573 89.2006 168.844C88.8985 168.115 88.7475 167.266 88.7475 166.297C88.7475 165.328 88.8985 164.479 89.2006 163.75C89.5027 163.021 89.922 162.456 90.4584 162.055C90.9949 161.654 91.6069 161.453 92.2944 161.453ZM92.2944 162.547C91.836 162.547 91.4272 162.703 91.0678 163.016C90.7084 163.328 90.4298 163.766 90.2319 164.328C90.034 164.891 89.935 165.547 89.935 166.297C89.935 167.036 90.034 167.69 90.2319 168.258C90.4298 168.826 90.7084 169.263 91.0678 169.57C91.4272 169.878 91.836 170.031 92.2944 170.031C92.7527 170.031 93.1616 169.878 93.5209 169.57C93.8803 169.263 94.159 168.826 94.3569 168.258C94.5548 167.69 94.6537 167.036 94.6537 166.297C94.6537 165.547 94.5548 164.891 94.3569 164.328C94.159 163.766 93.8829 163.328 93.5287 163.016C93.1746 162.703 92.7631 162.547 92.2944 162.547ZM114.299 172.422H101.58V171.391H114.299V172.422ZM104.314 163.969H111.533V161.375H112.736V168.609H103.08V161.375H104.314V163.969ZM111.533 167.625V164.953H104.314V167.625H111.533ZM119.932 173.094C119.755 173.094 119.589 173.047 119.432 172.953C119.276 172.859 119.154 172.734 119.065 172.578C118.977 172.422 118.932 172.255 118.932 172.078C118.932 171.901 118.977 171.734 119.065 171.578C119.154 171.422 119.276 171.299 119.432 171.211C119.589 171.122 119.755 171.078 119.932 171.078C120.11 171.078 120.276 171.122 120.432 171.211C120.589 171.299 120.711 171.422 120.8 171.578C120.888 171.734 120.932 171.901 120.932 172.078C120.932 172.255 120.888 172.422 120.8 172.578C120.711 172.734 120.589 172.859 120.432 172.953C120.276 173.047 120.11 173.094 119.932 173.094ZM119.932 166.812C119.755 166.812 119.589 166.766 119.432 166.672C119.276 166.578 119.154 166.453 119.065 166.297C118.977 166.141 118.932 165.974 118.932 165.797C118.932 165.62 118.977 165.453 119.065 165.297C119.154 165.141 119.276 165.018 119.432 164.93C119.589 164.841 119.755 164.797 119.932 164.797C120.11 164.797 120.276 164.841 120.432 164.93C120.589 165.018 120.711 165.141 120.8 165.297C120.888 165.453 120.932 165.62 120.932 165.797C120.932 165.974 120.888 166.141 120.8 166.297C120.711 166.453 120.589 166.578 120.432 166.672C120.276 166.766 120.11 166.812 119.932 166.812ZM130.082 173H128.66V163.156H128.598L125.848 164.984V163.562L128.66 161.688H130.082V173ZM136.383 161.531C137.112 161.531 137.784 161.698 138.399 162.031C139.013 162.365 139.516 162.93 139.907 163.727C140.297 164.523 140.493 165.578 140.493 166.891C140.493 168.214 140.321 169.344 139.977 170.281C139.633 171.219 139.138 171.932 138.493 172.422C137.847 172.911 137.081 173.156 136.196 173.156C135.55 173.156 134.966 173.029 134.446 172.773C133.925 172.518 133.498 172.164 133.164 171.711C132.831 171.258 132.618 170.734 132.524 170.141H133.914C133.998 170.484 134.141 170.789 134.344 171.055C134.547 171.32 134.805 171.529 135.118 171.68C135.43 171.831 135.789 171.906 136.196 171.906C136.81 171.906 137.341 171.734 137.789 171.391C138.237 171.047 138.581 170.549 138.821 169.898C139.06 169.247 139.18 168.469 139.18 167.562H139.024C138.805 167.875 138.547 168.143 138.25 168.367C137.953 168.591 137.625 168.763 137.266 168.883C136.907 169.003 136.529 169.062 136.133 169.062C135.466 169.062 134.849 168.901 134.282 168.578C133.714 168.255 133.263 167.81 132.93 167.242C132.597 166.674 132.43 166.036 132.43 165.328C132.43 164.62 132.594 163.977 132.922 163.398C133.25 162.82 133.714 162.362 134.313 162.023C134.912 161.685 135.602 161.521 136.383 161.531ZM136.383 162.766C135.904 162.766 135.466 162.88 135.071 163.109C134.675 163.339 134.365 163.648 134.141 164.039C133.917 164.43 133.805 164.854 133.805 165.312C133.805 165.771 133.914 166.193 134.133 166.578C134.352 166.964 134.654 167.268 135.039 167.492C135.425 167.716 135.857 167.828 136.336 167.828C136.815 167.828 137.256 167.708 137.657 167.469C138.058 167.229 138.375 166.914 138.61 166.523C138.844 166.133 138.961 165.719 138.961 165.281C138.961 164.844 138.849 164.432 138.625 164.047C138.401 163.661 138.094 163.352 137.703 163.117C137.313 162.883 136.873 162.766 136.383 162.766ZM145.716 161.531C146.445 161.531 147.117 161.698 147.731 162.031C148.346 162.365 148.848 162.93 149.239 163.727C149.63 164.523 149.825 165.578 149.825 166.891C149.825 168.214 149.653 169.344 149.309 170.281C148.966 171.219 148.471 171.932 147.825 172.422C147.179 172.911 146.414 173.156 145.528 173.156C144.882 173.156 144.299 173.029 143.778 172.773C143.257 172.518 142.83 172.164 142.497 171.711C142.164 171.258 141.95 170.734 141.856 170.141H143.247C143.33 170.484 143.473 170.789 143.677 171.055C143.88 171.32 144.137 171.529 144.45 171.68C144.762 171.831 145.122 171.906 145.528 171.906C146.143 171.906 146.674 171.734 147.122 171.391C147.57 171.047 147.914 170.549 148.153 169.898C148.393 169.247 148.512 168.469 148.512 167.562H148.356C148.137 167.875 147.88 168.143 147.583 168.367C147.286 168.591 146.958 168.763 146.598 168.883C146.239 169.003 145.861 169.062 145.466 169.062C144.799 169.062 144.182 168.901 143.614 168.578C143.046 168.255 142.596 167.81 142.262 167.242C141.929 166.674 141.762 166.036 141.762 165.328C141.762 164.62 141.927 163.977 142.255 163.398C142.583 162.82 143.046 162.362 143.645 162.023C144.244 161.685 144.934 161.521 145.716 161.531ZM145.716 162.766C145.236 162.766 144.799 162.88 144.403 163.109C144.007 163.339 143.697 163.648 143.473 164.039C143.249 164.43 143.137 164.854 143.137 165.312C143.137 165.771 143.247 166.193 143.466 166.578C143.684 166.964 143.986 167.268 144.372 167.492C144.757 167.716 145.19 167.828 145.669 167.828C146.148 167.828 146.588 167.708 146.989 167.469C147.39 167.229 147.708 166.914 147.942 166.523C148.177 166.133 148.294 165.719 148.294 165.281C148.294 164.844 148.182 164.432 147.958 164.047C147.734 163.661 147.427 163.352 147.036 163.117C146.645 162.883 146.205 162.766 145.716 162.766ZM155.064 173.156C154.283 173.156 153.587 173.021 152.978 172.75C152.368 172.479 151.894 172.104 151.556 171.625C151.217 171.146 151.048 170.604 151.048 170C151.048 169.521 151.147 169.073 151.345 168.656C151.543 168.24 151.819 167.896 152.173 167.625C152.527 167.354 152.918 167.188 153.345 167.125V167.062C152.98 166.969 152.658 166.802 152.376 166.562C152.095 166.323 151.876 166.026 151.72 165.672C151.564 165.318 151.486 164.938 151.486 164.531C151.486 163.958 151.642 163.443 151.954 162.984C152.267 162.526 152.694 162.169 153.236 161.914C153.777 161.659 154.387 161.531 155.064 161.531C155.741 161.531 156.353 161.659 156.9 161.914C157.447 162.169 157.876 162.526 158.189 162.984C158.501 163.443 158.658 163.958 158.658 164.531C158.658 164.938 158.577 165.318 158.415 165.672C158.254 166.026 158.033 166.323 157.751 166.562C157.47 166.802 157.147 166.969 156.783 167.062V167.125C157.21 167.188 157.598 167.354 157.947 167.625C158.296 167.896 158.574 168.24 158.783 168.656C158.991 169.073 159.095 169.521 159.095 170C159.095 170.604 158.923 171.146 158.579 171.625C158.236 172.104 157.759 172.479 157.15 172.75C156.54 173.021 155.845 173.156 155.064 173.156ZM155.064 171.922C155.595 171.922 156.059 171.839 156.454 171.672C156.85 171.505 157.155 171.271 157.368 170.969C157.582 170.667 157.689 170.318 157.689 169.922C157.689 169.505 157.577 169.133 157.353 168.805C157.129 168.477 156.816 168.219 156.415 168.031C156.014 167.844 155.564 167.75 155.064 167.75C154.564 167.75 154.113 167.844 153.712 168.031C153.311 168.219 152.999 168.477 152.775 168.805C152.551 169.133 152.444 169.505 152.454 169.922C152.444 170.318 152.546 170.667 152.759 170.969C152.973 171.271 153.277 171.505 153.673 171.672C154.069 171.839 154.533 171.922 155.064 171.922ZM155.064 166.562C155.491 166.562 155.874 166.482 156.212 166.32C156.551 166.159 156.814 165.932 157.001 165.641C157.189 165.349 157.283 165.016 157.283 164.641C157.283 164.266 157.191 163.935 157.009 163.648C156.827 163.362 156.566 163.141 156.228 162.984C155.889 162.828 155.501 162.75 155.064 162.75C154.626 162.75 154.238 162.828 153.9 162.984C153.561 163.141 153.301 163.362 153.118 163.648C152.936 163.935 152.845 164.266 152.845 164.641C152.845 165.016 152.941 165.349 153.134 165.641C153.327 165.932 153.59 166.159 153.923 166.32C154.256 166.482 154.637 166.562 155.064 166.562ZM164.494 168.359C164.744 168.068 165.023 167.846 165.33 167.695C165.638 167.544 165.963 167.469 166.307 167.469C166.567 167.469 166.823 167.505 167.073 167.578C167.323 167.651 167.645 167.766 168.041 167.922C168.406 168.068 168.713 168.18 168.963 168.258C169.213 168.336 169.463 168.375 169.713 168.375C170.067 168.375 170.395 168.292 170.698 168.125C171 167.958 171.265 167.714 171.494 167.391V168.688C171.244 168.979 170.966 169.201 170.658 169.352C170.351 169.503 170.026 169.578 169.682 169.578C169.421 169.578 169.166 169.539 168.916 169.461C168.666 169.383 168.343 169.271 167.948 169.125C167.593 168.969 167.289 168.854 167.033 168.781C166.778 168.708 166.52 168.672 166.26 168.672C165.916 168.672 165.596 168.755 165.299 168.922C165.002 169.089 164.734 169.333 164.494 169.656V168.359ZM183.534 166.859H182.331V164.984H183.534V166.859ZM182.956 160.547C183.988 160.547 184.87 160.641 185.605 160.828C186.339 161.016 186.899 161.289 187.284 161.648C187.67 162.008 187.863 162.443 187.863 162.953C187.863 163.464 187.67 163.898 187.284 164.258C186.899 164.617 186.339 164.891 185.605 165.078C184.87 165.266 183.988 165.365 182.956 165.375C181.925 165.365 181.042 165.266 180.308 165.078C179.573 164.891 179.011 164.617 178.62 164.258C178.23 163.898 178.034 163.464 178.034 162.953C178.034 162.443 178.23 162.008 178.62 161.648C179.011 161.289 179.573 161.016 180.308 160.828C181.042 160.641 181.925 160.547 182.956 160.547ZM182.956 161.484C182.185 161.484 181.529 161.544 180.988 161.664C180.446 161.784 180.032 161.951 179.745 162.164C179.459 162.378 179.316 162.641 179.316 162.953C179.316 163.266 179.456 163.531 179.738 163.75C180.019 163.969 180.433 164.135 180.98 164.25C181.527 164.365 182.185 164.427 182.956 164.438C183.727 164.427 184.386 164.365 184.933 164.25C185.48 164.135 185.896 163.969 186.183 163.75C186.469 163.531 186.613 163.266 186.613 162.953C186.613 162.641 186.469 162.378 186.183 162.164C185.896 161.951 185.48 161.784 184.933 161.664C184.386 161.544 183.727 161.484 182.956 161.484ZM189.284 167.422H176.628V166.422H189.284V167.422ZM187.659 171.703H179.409V173.438H178.191V170.797H186.456V169.547H178.159V168.594H187.659V171.703ZM188.081 174.109H178.191V173.141H188.081V174.109ZM196.914 163.781H189.945V162.781H196.914V163.781ZM193.429 164.719C194.013 164.719 194.531 164.852 194.984 165.117C195.437 165.383 195.794 165.755 196.054 166.234C196.315 166.714 196.445 167.26 196.445 167.875C196.445 168.49 196.315 169.036 196.054 169.516C195.794 169.995 195.437 170.372 194.984 170.648C194.531 170.924 194.013 171.062 193.429 171.062C192.856 171.062 192.343 170.924 191.89 170.648C191.437 170.372 191.083 169.992 190.828 169.508C190.573 169.023 190.445 168.479 190.445 167.875C190.445 167.271 190.573 166.727 190.828 166.242C191.083 165.758 191.437 165.383 191.89 165.117C192.343 164.852 192.856 164.719 193.429 164.719ZM193.429 165.75C193.075 165.75 192.752 165.844 192.461 166.031C192.169 166.219 191.942 166.471 191.781 166.789C191.619 167.107 191.539 167.469 191.539 167.875C191.539 168.281 191.622 168.646 191.789 168.969C191.955 169.292 192.182 169.542 192.468 169.719C192.755 169.896 193.075 169.984 193.429 169.984C193.794 169.984 194.122 169.896 194.414 169.719C194.705 169.542 194.935 169.292 195.101 168.969C195.268 168.646 195.351 168.281 195.351 167.875C195.351 167.469 195.268 167.107 195.101 166.789C194.935 166.471 194.705 166.219 194.414 166.031C194.122 165.844 193.794 165.75 193.429 165.75ZM201.804 174.266H200.633V160.375H201.804V174.266ZM201.023 167.25H198.367V166.234H201.023V167.25ZM198.789 173.578H197.633V160.719H198.789V173.578ZM194.054 163.391H192.836V160.797H194.054V163.391ZM217.563 163.578H213.344V162.562H217.563V163.578ZM217.563 166.906H213.344V165.891H217.563V166.906ZM218.376 170.656H217.141V160.391H218.376V170.656ZM218.766 173.969H209.454V172.938H218.766V173.969ZM210.688 173.359H209.454V169.578H210.688V173.359ZM210.688 161.266C211.365 161.266 211.975 161.417 212.516 161.719C213.058 162.021 213.488 162.435 213.805 162.961C214.123 163.487 214.282 164.083 214.282 164.75C214.282 165.417 214.123 166.013 213.805 166.539C213.488 167.065 213.058 167.477 212.516 167.773C211.975 168.07 211.365 168.219 210.688 168.219C210.001 168.219 209.383 168.07 208.837 167.773C208.29 167.477 207.86 167.065 207.548 166.539C207.235 166.013 207.079 165.417 207.079 164.75C207.079 164.083 207.235 163.484 207.548 162.953C207.86 162.422 208.29 162.008 208.837 161.711C209.383 161.414 210.001 161.266 210.688 161.266ZM210.688 162.359C210.219 162.359 209.8 162.464 209.43 162.672C209.061 162.88 208.771 163.164 208.563 163.523C208.355 163.883 208.251 164.292 208.251 164.75C208.251 165.208 208.355 165.617 208.563 165.977C208.771 166.336 209.061 166.617 209.43 166.82C209.8 167.023 210.219 167.125 210.688 167.125C211.136 167.125 211.545 167.023 211.915 166.82C212.284 166.617 212.574 166.333 212.782 165.969C212.99 165.604 213.094 165.198 213.094 164.75C213.094 164.292 212.99 163.883 212.782 163.523C212.574 163.164 212.284 162.88 211.915 162.672C211.545 162.464 211.136 162.359 210.688 162.359ZM231.427 167.891H221.833V166.891H231.427V167.891ZM232.927 172.516H220.208V171.484H232.927V172.516ZM227.13 171.906H225.927V167.328H227.13V171.906ZM231.286 162.516H223.068V167.359H221.833V161.516H231.286V162.516ZM244.166 163.328H240.166V162.375H244.166V163.328ZM244.166 165.859H240.166V164.891H244.166V165.859ZM245.056 167.641H243.837V160.375H245.056V167.641ZM245.056 171.578H237.306V173.766H236.087V170.641H243.837V169.297H236.056V168.312H245.056V171.578ZM245.587 174.078H236.087V173.094H245.587V174.078ZM235.478 163.031H239.353V161.031H240.556V167.078H234.259V161.031H235.478V163.031ZM239.353 166.078V164H235.478V166.078H239.353ZM261.924 174.266H260.69V160.375H261.924V174.266ZM257.815 161.891C257.815 163.266 257.588 164.552 257.135 165.75C256.682 166.948 255.971 168.049 255.003 169.055C254.034 170.06 252.794 170.927 251.284 171.656L250.612 170.656C251.956 170.021 253.07 169.273 253.956 168.414C254.841 167.555 255.503 166.594 255.94 165.531C256.378 164.469 256.596 163.318 256.596 162.078V161.891H257.815ZM257.096 162.891H251.253V161.891H257.096V162.891ZM276.491 169.047H263.773V168.031H276.491V169.047ZM274.851 164.094H266.648V165.984H265.429V163.172H273.616V161.734H265.382V160.734H274.851V164.094ZM275.148 166.562H265.429V165.578H275.148V166.562ZM270.726 168.531H269.523V166.078H270.726V168.531ZM274.929 174.141H273.694V171.109H265.194V170.109H274.929V174.141ZM280.019 164.641C280.399 165.88 280.595 167.229 280.605 168.688C280.595 170.135 280.399 171.479 280.019 172.719C279.639 173.958 279.084 175.115 278.355 176.188H277.167C277.522 175.667 277.855 174.992 278.167 174.164C278.48 173.336 278.733 172.44 278.925 171.477C279.118 170.513 279.214 169.583 279.214 168.688C279.214 167.792 279.118 166.865 278.925 165.906C278.733 164.948 278.48 164.055 278.167 163.227C277.855 162.398 277.522 161.724 277.167 161.203H278.355C279.084 162.255 279.639 163.401 280.019 164.641Z" fill="black"/>
</svg>
