<svg width="208" height="64" viewBox="0 0 208 64" fill="none" xmlns="http://www.w3.org/2000/svg">
<path d="M20 10C20 4.47715 24.4772 0 30 0H198C203.523 0 208 4.47715 208 10V54C208 59.5228 203.523 64 198 64H20V10Z" fill="#EBEBEB"/>
<path d="M53.5938 32.0469H51.0391V30.8125H53.5938V32.0469ZM51.4219 39.3125H49.9453V25.3203H51.4219V39.3125ZM42.5312 35.3672H41.0547V26.6875H42.5312V35.3672ZM42.2031 34.5703C43.3021 34.5703 44.388 34.5208 45.4609 34.4219C46.5339 34.3229 47.6224 34.1589 48.7266 33.9297L48.9062 35.1797C47.7865 35.4089 46.6771 35.5703 45.5781 35.6641C44.4844 35.7578 43.3594 35.8047 42.2031 35.8047H41.0547V34.5703H42.2031ZM62.2041 28.25C62.2041 29.099 62.04 29.901 61.7119 30.6562C61.389 31.4115 60.928 32.0703 60.3291 32.6328C59.7301 33.1901 59.027 33.6094 58.2197 33.8906L57.4463 32.7188C58.1546 32.4688 58.777 32.1146 59.3134 31.6562C59.8499 31.1979 60.2588 30.6771 60.54 30.0938C60.8265 29.5052 60.9697 28.8906 60.9697 28.25V26.8672H62.2041V28.25ZM62.4697 28.25C62.4697 28.8542 62.6103 29.4349 62.8916 29.9922C63.178 30.5495 63.5869 31.0417 64.1181 31.4688C64.6494 31.8958 65.2692 32.2188 65.9775 32.4375L65.2197 33.6172C64.4176 33.3516 63.7171 32.9531 63.1181 32.4219C62.5192 31.8906 62.0582 31.2682 61.7353 30.5547C61.4124 29.8359 61.2509 29.0677 61.2509 28.25V26.8672H62.4697V28.25ZM65.5634 27.6406H57.8291V26.4453H65.5634V27.6406ZM68.8994 35.5547H67.4228V25.3359H68.8994V35.5547ZM69.3213 39.0469H59.7509V37.8203H69.3213V39.0469ZM61.2353 38.3906H59.7509V34.5938H61.2353V38.3906ZM81.9194 39.3203H80.435V25.3203H81.9194V39.3203ZM83.7631 32.0469H81.2006V30.7969H83.7631V32.0469ZM73.6537 29.3047C73.6537 30.2734 73.5834 31.2005 73.4428 32.0859C73.3074 32.9714 73.0678 33.7943 72.7241 34.5547C72.3855 35.3151 71.9272 35.9245 71.3491 36.3828L70.3881 35.2891C70.9298 34.888 71.3595 34.3594 71.6772 33.7031C72.0001 33.0417 72.2241 32.3438 72.3491 31.6094C72.4793 30.8698 72.5444 30.1016 72.5444 29.3047V27.4609H73.6537V29.3047ZM73.9428 29.3047C73.9428 30.0755 73.9949 30.8281 74.0991 31.5625C74.2084 32.2969 74.4194 33.0104 74.7319 33.7031C75.0444 34.3906 75.4845 34.9583 76.0522 35.4062L75.2084 36.4922C74.5991 36.0234 74.1199 35.388 73.7709 34.5859C73.422 33.7839 73.185 32.9349 73.06 32.0391C72.935 31.1432 72.8725 30.2318 72.8725 29.3047V27.4609H73.9428V29.3047ZM77.5522 29.3047C77.5522 30.263 77.4871 31.1927 77.3569 32.0938C77.2319 32.9896 76.9975 33.8307 76.6537 34.6172C76.31 35.4036 75.8282 36.0286 75.2084 36.4922L74.4037 35.4062C74.9558 34.9688 75.3855 34.4115 75.6928 33.7344C76.0053 33.0521 76.2162 32.3385 76.3256 31.5938C76.4402 30.849 76.4975 30.0859 76.4975 29.3047V27.4609H77.5522V29.3047ZM77.9037 29.3047C77.9037 30.1224 77.9662 30.901 78.0912 31.6406C78.2162 32.3802 78.4376 33.0729 78.7553 33.7188C79.073 34.3646 79.5079 34.888 80.06 35.2891L79.0991 36.3828C78.5209 35.9297 78.0626 35.3255 77.7241 34.5703C77.3855 33.8151 77.1459 32.9974 77.0053 32.1172C76.8699 31.2318 76.8022 30.2943 76.8022 29.3047V27.4609H77.9037V29.3047ZM74.9272 27.8984H70.8725V26.6797H74.9272V27.8984ZM79.4116 27.8984H75.5053V26.6797H79.4116V27.8984ZM99.0141 39.3594H97.5219V25.3203H99.0141V39.3594ZM91.5141 26.375C92.212 26.375 92.8344 26.5781 93.3812 26.9844C93.9281 27.3906 94.3552 27.9635 94.6625 28.7031C94.9698 29.4427 95.1234 30.3047 95.1234 31.2891C95.1234 32.2786 94.9698 33.1432 94.6625 33.8828C94.3552 34.6224 93.9281 35.1953 93.3812 35.6016C92.8344 36.0026 92.212 36.2031 91.5141 36.2031C90.8161 36.2031 90.1911 36.0026 89.6391 35.6016C89.0922 35.1953 88.6651 34.6224 88.3578 33.8828C88.0505 33.1432 87.8969 32.2786 87.8969 31.2891C87.8969 30.3047 88.0505 29.4427 88.3578 28.7031C88.6651 27.9635 89.0922 27.3906 89.6391 26.9844C90.1911 26.5781 90.8161 26.375 91.5141 26.375ZM91.5141 27.7031C91.087 27.7031 90.7068 27.849 90.3734 28.1406C90.0401 28.4323 89.7823 28.849 89.6 29.3906C89.4229 29.9271 89.3344 30.5599 89.3344 31.2891C89.3344 32.013 89.4229 32.6458 89.6 33.1875C89.7823 33.7292 90.0401 34.1458 90.3734 34.4375C90.7068 34.724 91.087 34.8672 91.5141 34.8672C91.9411 34.8672 92.3187 34.724 92.6469 34.4375C92.9802 34.1458 93.238 33.7292 93.4203 33.1875C93.6026 32.6458 93.6937 32.013 93.6937 31.2891C93.6937 30.5599 93.6026 29.9271 93.4203 29.3906C93.238 28.849 92.9828 28.4323 92.6547 28.1406C92.3266 27.849 91.9464 27.7031 91.5141 27.7031ZM111.362 30.4219H107.44V29.1953H111.362V30.4219ZM112.432 35.6875H110.948V25.3359H112.432V35.6875ZM112.745 39.0469H103.284V37.8203H112.745V39.0469ZM104.784 38.4609H103.284V34.6641H104.784V38.4609ZM102.909 28.6328H106.425V26.2656H107.886V33.3594H101.432V26.2656H102.909V28.6328ZM106.425 32.1562V29.7891H102.909V32.1562H106.425ZM122.39 31.8984H119.812V30.6875H122.39V31.8984ZM126.156 39.3203H124.726V25.3203H126.156V39.3203ZM123.304 38.6328H121.898V25.5859H123.304V38.6328ZM117.288 26.4375C117.898 26.4375 118.432 26.638 118.89 27.0391C119.348 27.4349 119.702 28.0052 119.952 28.75C120.208 29.4948 120.335 30.3698 120.335 31.375C120.335 32.3698 120.208 33.2396 119.952 33.9844C119.702 34.7292 119.348 35.3047 118.89 35.7109C118.432 36.112 117.898 36.3151 117.288 36.3203C116.684 36.3151 116.153 36.112 115.695 35.7109C115.236 35.3047 114.882 34.7292 114.632 33.9844C114.387 33.2396 114.265 32.3698 114.265 31.375C114.265 30.3698 114.387 29.4948 114.632 28.75C114.882 28.0052 115.236 27.4349 115.695 27.0391C116.153 26.638 116.684 26.4375 117.288 26.4375ZM117.288 27.8438C116.945 27.8385 116.65 27.9766 116.406 28.2578C116.161 28.5391 115.973 28.9453 115.843 29.4766C115.713 30.0026 115.648 30.6354 115.648 31.375C115.648 32.1042 115.713 32.7344 115.843 33.2656C115.973 33.7969 116.163 34.2031 116.413 34.4844C116.663 34.7604 116.955 34.8984 117.288 34.8984C117.627 34.8984 117.921 34.7604 118.171 34.4844C118.421 34.2031 118.614 33.7969 118.749 33.2656C118.885 32.7344 118.952 32.1042 118.952 31.375C118.952 30.6354 118.885 30.0026 118.749 29.4766C118.614 28.9453 118.421 28.5391 118.171 28.2578C117.921 27.9766 117.627 27.8385 117.288 27.8438ZM142.149 34.9297H133.938V38.6953H132.461V33.8438H142.149V34.9297ZM142.336 39.1875H132.461V38.0781H142.336V39.1875ZM141.844 37.0078H133.407V35.9766H141.844V37.0078ZM137.985 34.1719H136.508V32.0703H137.985V34.1719ZM143.649 32.5312H130.883V31.3594H143.649V32.5312ZM134.032 26.8203H140.516V25.5703H141.985V30.3203H132.563V25.5703H134.032V26.8203ZM140.516 29.1641V27.9453H134.032V29.1641H140.516ZM150.614 25.5547C151.666 25.5547 152.565 25.6484 153.309 25.8359C154.054 26.0182 154.622 26.2891 155.012 26.6484C155.408 27.0078 155.606 27.4427 155.606 27.9531C155.606 28.474 155.408 28.9167 155.012 29.2812C154.622 29.6406 154.054 29.9141 153.309 30.1016C152.565 30.2891 151.666 30.388 150.614 30.3984C149.562 30.388 148.661 30.2891 147.911 30.1016C147.166 29.9141 146.593 29.6406 146.192 29.2812C145.796 28.9167 145.598 28.474 145.598 27.9531C145.598 27.4427 145.796 27.0078 146.192 26.6484C146.593 26.2891 147.166 26.0182 147.911 25.8359C148.661 25.6484 149.562 25.5547 150.614 25.5547ZM150.614 26.6562C149.874 26.6562 149.244 26.7057 148.723 26.8047C148.208 26.9036 147.817 27.0521 147.552 27.25C147.286 27.4479 147.153 27.6823 147.153 27.9531C147.153 28.25 147.283 28.4974 147.544 28.6953C147.804 28.888 148.192 29.0339 148.708 29.1328C149.223 29.2318 149.859 29.2812 150.614 29.2812C151.369 29.2812 152.005 29.2318 152.52 29.1328C153.036 29.0339 153.424 28.8854 153.684 28.6875C153.95 28.4844 154.083 28.2396 154.083 27.9531C154.083 27.6823 153.947 27.4505 153.677 27.2578C153.411 27.0651 153.018 26.9167 152.497 26.8125C151.981 26.7083 151.354 26.6562 150.614 26.6562ZM156.997 32.4375H144.231V31.25H156.997V32.4375ZM155.38 36.7969H147.239V38.3516H145.778V35.7266H153.927V34.625H145.755V33.5156H155.38V36.7969ZM155.786 39.1875H145.778V38.0391H155.786V39.1875ZM172.662 39.3203H171.193V25.3203H172.662V39.3203ZM171.873 32.0938H168.045V30.875H171.873V32.0938ZM168.092 26.8281C168.092 28.2448 167.888 29.5547 167.482 30.7578C167.076 31.9557 166.404 33.0599 165.467 34.0703C164.529 35.0807 163.292 35.9688 161.756 36.7344L160.974 35.5625C162.308 34.9115 163.391 34.1641 164.224 33.3203C165.063 32.4714 165.672 31.5312 166.052 30.5C166.438 29.4635 166.631 28.3203 166.631 27.0703V26.8281H168.092ZM167.404 28.0156H161.599V26.8281H167.404V28.0156ZM178.112 26.375C178.809 26.375 179.427 26.5781 179.963 26.9844C180.505 27.3906 180.929 27.9635 181.237 28.7031C181.549 29.4427 181.705 30.3047 181.705 31.2891C181.705 32.2786 181.549 33.1432 181.237 33.8828C180.929 34.6224 180.505 35.1953 179.963 35.6016C179.421 36.0026 178.804 36.2031 178.112 36.2031C177.419 36.2031 176.799 36.0026 176.252 35.6016C175.711 35.1953 175.286 34.6224 174.979 33.8828C174.677 33.1432 174.526 32.2786 174.526 31.2891C174.526 30.3047 174.677 29.4427 174.979 28.7031C175.286 27.9635 175.711 27.3906 176.252 26.9844C176.799 26.5781 177.419 26.375 178.112 26.375ZM178.112 27.7031C177.684 27.7031 177.307 27.849 176.979 28.1406C176.651 28.4323 176.395 28.849 176.213 29.3906C176.031 29.9271 175.94 30.5599 175.94 31.2891C175.94 32.013 176.031 32.6458 176.213 33.1875C176.395 33.7292 176.653 34.1458 176.987 34.4375C177.32 34.724 177.695 34.8672 178.112 34.8672C178.539 34.8672 178.916 34.724 179.244 34.4375C179.572 34.1458 179.825 33.7292 180.002 33.1875C180.184 32.6458 180.276 32.013 180.276 31.2891C180.276 30.5599 180.184 29.9271 180.002 29.3906C179.825 28.849 179.572 28.4323 179.244 28.1406C178.916 27.849 178.539 27.7031 178.112 27.7031ZM187.432 30.0078H184.862V28.7578H187.432V30.0078ZM187.432 34.1406H184.862V32.9141H187.432V34.1406ZM185.26 39.3203H183.783V25.3203H185.26V39.3203Z" fill="black"/>
<path d="M0 64L20 64L20 50L0 64Z" fill="#EBEBEB"/>
</svg>
