<svg width="729" height="199" viewBox="0 0 729 199" fill="none" xmlns="http://www.w3.org/2000/svg">
<mask id="path-1-inside-1_9_78" fill="white">
<path d="M684 0C689.523 8.31091e-06 694 4.47716 694 10V174.694L729 199H10C4.47716 199 4.22808e-08 194.523 0 189V10C0 4.47715 4.47715 0 10 0H684Z"/>
</mask>
<path d="M684 0C689.523 8.31091e-06 694 4.47716 694 10V174.694L729 199H10C4.47716 199 4.22808e-08 194.523 0 189V10C0 4.47715 4.47715 0 10 0H684Z" fill="#FFEE6E"/>
<path d="M684 0V-1V0ZM694 10H695H694ZM694 174.694H693V175.217L693.43 175.516L694 174.694ZM729 199V200H732.193L729.57 198.179L729 199ZM10 199L10 200H10V199ZM0 189H-1H0ZM684 0V1C688.971 1.00001 693 5.02944 693 10H694H695C695 3.92487 690.075 -0.999991 684 -1V0ZM694 10H693V174.694H694H695V10H694ZM694 174.694L693.43 175.516L728.43 199.821L729 199L729.57 198.179L694.57 173.873L694 174.694ZM729 199V198H10V199V200H729V199ZM10 199L10 198C5.02944 198 1 193.971 1 189H0H-1C-1 195.075 3.92488 200 10 200L10 199ZM0 189H1V10H0H-1V189H0ZM0 10H1C1 5.02944 5.02944 1 10 1V0V-1C3.92487 -1 -1 3.92487 -1 10H0ZM10 0V1H684V0V-1H10V0Z" fill="black" mask="url(#path-1-inside-1_9_78)"/>
<path d="M22.2266 60L22.1875 55.7422L32.3438 46.4062C35 43.8672 36.4062 42.3047 36.4062 40.0781C36.4062 37.5781 34.4922 36.0156 31.9141 36.0156C29.2578 36.0156 27.5391 37.6953 27.5391 40.3906H21.9531C21.9141 34.8438 26.0156 31.3281 31.9922 31.3281C38.0469 31.3281 42.0703 34.7656 42.0703 39.6875C42.0703 42.8906 40.5078 45.5469 34.6875 50.8203L30.3906 55V55.1562H42.4609V60H22.2266ZM56.4172 60.3906C49.3469 60.3906 45.05 55.1172 45.05 45.8594C45.05 36.6016 49.3469 31.3281 56.4172 31.3281C63.4875 31.3281 67.7844 36.6406 67.7844 45.8594C67.7844 55.1562 63.4875 60.3906 56.4172 60.3906ZM56.4172 55.5469C59.6984 55.5469 61.8078 52.3828 61.7687 45.8594C61.7687 39.4141 59.6984 36.1328 56.4172 36.1328C53.1359 36.1328 51.0656 39.4141 51.0656 45.8594C51.0266 52.3828 53.1359 55.5469 56.4172 55.5469ZM70.6469 60L70.6078 55.7422L80.7641 46.4062C83.4203 43.8672 84.8266 42.3047 84.8266 40.0781C84.8266 37.5781 82.9125 36.0156 80.3344 36.0156C77.6781 36.0156 75.9594 37.6953 75.9594 40.3906H70.3734C70.3344 34.8438 74.4359 31.3281 80.4125 31.3281C86.4672 31.3281 90.4906 34.7656 90.4906 39.6875C90.4906 42.8906 88.9281 45.5469 83.1078 50.8203L78.8109 55V55.1562H90.8812V60H70.6469ZM104.252 60.3906C98.3531 60.3906 94.0563 56.9141 93.9391 52.0312H99.6422C99.7594 54.2578 101.791 55.7422 104.252 55.7422C107.181 55.7422 109.252 53.6719 109.252 50.7422C109.252 47.7344 107.142 45.6641 104.173 45.625C102.064 45.625 100.58 46.4062 99.7203 48.0078H94.4078L95.9313 31.7188H113.353V36.5234H100.775L99.9938 43.6719H100.228C101.283 42.2656 103.392 41.2891 105.892 41.2891C111.088 41.2891 114.955 45.1562 114.955 50.5859C114.955 56.2891 110.619 60.3906 104.252 60.3906ZM146.528 28.0859V54.2188H141.567V42.5781H132.739V38.6719H141.567V35.9375H132.739V32.0312H141.567V28.0859H146.528ZM147.387 58.9844V62.9688H122.895V51.875H127.895V58.9844H147.387ZM123.481 30.3125V45.5078C127.837 45.4688 131.899 45.1758 136.333 44.375L136.841 48.3984C131.528 49.4141 126.723 49.6094 121.411 49.6094H118.559V30.3125H123.481ZM178.922 43.9453V47.8906H168.609V55.4688H182.477V59.5312H149.938V55.4688H163.648V47.8906H153.766V30.5469H178.648V34.5312H158.766V43.9453H178.922ZM223.748 47.6562V51.6406H209.92V63.5938H204.998V51.6406H191.327V47.6562H223.748ZM220.858 29.9219V33.8281H210.506C210.995 37.3047 214.92 40.8008 222.225 41.6797L220.428 45.5859C214.178 44.7461 209.705 42.0703 207.577 38.3984C205.389 42.0703 200.955 44.7461 194.764 45.5859L192.928 41.6797C200.116 40.8008 204.08 37.3047 204.647 33.8281H194.256V29.9219H220.858ZM257.236 55.3516V59.4531H224.697V55.3516H231.962V46.6406C229.209 45 227.548 42.4805 227.548 39.3359C227.548 33.5938 233.173 29.7656 240.908 29.7656C248.603 29.7656 254.267 33.5938 254.306 39.3359C254.287 42.4023 252.666 44.9023 250.009 46.5625V55.3516H257.236ZM240.908 33.7109C235.83 33.7109 232.47 35.7422 232.47 39.3359C232.47 42.8125 235.83 44.9609 240.908 44.9609C245.947 44.9609 249.345 42.8125 249.384 39.3359C249.345 35.7422 245.947 33.7109 240.908 33.7109ZM236.884 55.3516H244.97V48.4375C243.701 48.6914 242.334 48.8281 240.908 48.8281C239.482 48.8281 238.134 48.7109 236.884 48.4375V55.3516ZM296.828 28.0469V63.5938H292.102V45.7422H288.664V61.875H284.094V28.6328H288.664V41.7578H292.102V28.0469H296.828ZM280.344 32.1484V36.1719H272.102V51.3281C275.539 51.3086 278.586 51.1328 282.023 50.5078L282.375 54.5703C278.039 55.3906 274.25 55.5078 269.562 55.5469H267.102V32.1484H280.344ZM320.55 31.2109V35.1562H299.456V31.2109H307.542V27.8516H312.503V31.2109H320.55ZM310.003 36.2891C315.159 36.2891 318.753 38.9453 318.753 42.8516C318.753 46.7578 315.159 49.4141 310.003 49.4141C304.847 49.4141 301.175 46.7578 301.175 42.8516C301.175 38.9453 304.847 36.2891 310.003 36.2891ZM310.003 40.0391C307.62 40.0391 306.019 41.0156 306.058 42.8516C306.019 44.6484 307.62 45.5859 310.003 45.5859C312.386 45.5859 314.027 44.6484 314.027 42.8516C314.027 41.0156 312.386 40.0391 310.003 40.0391ZM327.659 28.0469V37.2656H332.464V41.3281H327.659V50.3516H322.659V28.0469H327.659ZM327.659 51.8359V63.5938H322.659V55.8203H303.714V51.8359H327.659ZM49.2578 78.0469V86.6016H54.0625V90.7422H49.2578V98.8672H44.2578V78.0469H49.2578ZM30.9375 100.234V102.93H44.2578V100.234H49.2578V113.203H25.9766V100.234H30.9375ZM30.9375 109.297H44.2578V106.758H30.9375V109.297ZM42.1484 81.1719V85.0781H21.0547V81.1719H29.1406V77.8125H34.1016V81.1719H42.1484ZM31.6016 86.0938C36.7578 86.0938 40.3516 88.5938 40.3516 92.3828C40.3516 96.1719 36.7578 98.6719 31.6016 98.6719C26.3672 98.6719 22.7734 96.1719 22.7734 92.3828C22.7734 88.5938 26.3672 86.0938 31.6016 86.0938ZM31.6016 89.7656C29.2188 89.7266 27.6172 90.7031 27.6562 92.3828C27.6172 94.1016 29.2188 95.0391 31.6016 95.0391C33.9844 95.0391 35.625 94.1016 35.625 92.3828C35.625 90.7031 33.9844 89.7266 31.6016 89.7656ZM73.4484 80.2734C73.4484 81.5039 73.3508 82.6953 73.175 83.8281H79.425V78.0859H84.3859V99.1797H79.425V95.3125H71.3391V91.3281H79.425V87.7344H72.0031C69.6008 93.2422 64.3469 97.1094 56.6906 99.1406L54.8156 95.1562C62.8234 93.1055 67.3156 89.1211 68.0969 84.2969H56.8469V80.2734H73.4484ZM84.3859 100.625V113.516H79.425V104.531H59.9719V100.625H84.3859ZM99.1625 84.375C99.1625 88.2031 101.155 92.0312 105.881 93.8281L103.225 97.6172C100.198 96.4648 98.1078 94.3555 96.8187 91.7188C95.5297 94.8047 93.3031 97.3828 89.9828 98.75L87.2875 94.9219C92.2875 92.7344 94.3187 88.3594 94.3187 84.375V80.1953H99.1625V84.375ZM118.342 78.0859V99.8047H113.616V90.7812H110.647V98.7109H105.998V78.7109H110.647V86.7578H113.616V78.0859H118.342ZM106.194 100.312C113.694 100.312 118.498 102.812 118.537 106.953C118.498 111.094 113.694 113.594 106.194 113.594C98.6547 113.594 93.8891 111.094 93.8891 106.953C93.8891 102.812 98.6547 100.312 106.194 100.312ZM106.194 104.023C101.545 104.023 98.85 105.039 98.8891 106.953C98.85 108.867 101.545 109.844 106.194 109.844C110.803 109.844 113.498 108.867 113.498 106.953C113.498 105.039 110.803 104.023 106.194 104.023ZM159.145 78.0469V98.8672H154.184V94.3359H147.544V96.9141H130.669V80.6641H147.544V83.2422H154.184V78.0469H159.145ZM135.63 84.6094V92.9688H142.661V84.6094H135.63ZM146.997 99.8047C154.575 99.8047 159.223 102.344 159.262 106.719C159.223 111.094 154.575 113.594 146.997 113.594C139.419 113.594 134.77 111.094 134.77 106.719C134.77 102.344 139.419 99.8047 146.997 99.8047ZM146.997 103.594C142.27 103.594 139.731 104.609 139.731 106.719C139.731 108.75 142.27 109.805 146.997 109.805C151.723 109.805 154.302 108.75 154.302 106.719C154.302 104.609 151.723 103.594 146.997 103.594ZM147.544 90.3125H154.184V87.1875H147.544V90.3125ZM190.758 78.0469V87.7344H195.562V91.8359H190.758V103.75H185.758V78.0469H190.758ZM179.977 80.8984V84.8828H168.922V93.8672C175.348 93.8281 178.883 93.6328 182.867 92.7734L183.375 96.7578C178.922 97.6953 174.82 97.8906 166.93 97.8906H163.922V80.8984H179.977ZM192.047 108.984V112.969H167.711V101.016H172.672V108.984H192.047Z" fill="black"/>
<path d="M21.25 137.688H28.1094V138.938H22.6562V142.719H27.75V143.953H22.6562V147.75H28.1875V149H21.25V137.688ZM30.6294 149V147.75H33.27C34.1867 147.75 34.9497 147.573 35.5591 147.219C36.1684 146.865 36.6242 146.359 36.9263 145.703C37.2283 145.047 37.3794 144.255 37.3794 143.328C37.3794 142.411 37.2309 141.625 36.9341 140.969C36.6372 140.312 36.1945 139.81 35.6059 139.461C35.0174 139.112 34.2856 138.938 33.4106 138.938H30.5669V137.688H33.5044C34.5981 137.688 35.5382 137.911 36.3247 138.359C37.1111 138.807 37.7127 139.456 38.1294 140.305C38.546 141.154 38.7544 142.161 38.7544 143.328C38.7544 144.505 38.5434 145.518 38.1216 146.367C37.6997 147.216 37.0851 147.867 36.2778 148.32C35.4705 148.773 34.4992 149 33.3638 149H30.6294ZM31.2544 149H29.8481V137.688H31.2544V149ZM44.1963 137.391C44.9254 137.391 45.5713 137.529 46.1338 137.805C46.6963 138.081 47.1364 138.466 47.4541 138.961C47.7718 139.456 47.9306 140.021 47.9306 140.656C47.9306 141.292 47.7718 141.857 47.4541 142.352C47.1364 142.846 46.6963 143.232 46.1338 143.508C45.5713 143.784 44.9254 143.922 44.1963 143.922C43.4775 143.922 42.8317 143.784 42.2588 143.508C41.6858 143.232 41.2405 142.846 40.9228 142.352C40.6051 141.857 40.4463 141.292 40.4463 140.656C40.4463 140.021 40.6051 139.456 40.9228 138.961C41.2405 138.466 41.6858 138.081 42.2588 137.805C42.8317 137.529 43.4775 137.391 44.1963 137.391ZM44.1963 138.469C43.7067 138.469 43.2692 138.56 42.8838 138.742C42.4983 138.924 42.1963 139.182 41.9775 139.516C41.7588 139.849 41.6494 140.229 41.6494 140.656C41.6494 141.083 41.7588 141.461 41.9775 141.789C42.1963 142.117 42.4983 142.375 42.8838 142.562C43.2692 142.75 43.7067 142.844 44.1963 142.844C44.6858 142.844 45.1233 142.75 45.5088 142.562C45.8942 142.375 46.1936 142.117 46.4072 141.789C46.6207 141.461 46.7275 141.083 46.7275 140.656C46.7275 140.229 46.6207 139.849 46.4072 139.516C46.1936 139.182 45.8942 138.924 45.5088 138.742C45.1233 138.56 44.6858 138.469 44.1963 138.469ZM51.04 150.297H49.8213V136.375H51.04V150.297ZM39.9463 146.188C41.665 146.188 43.2561 146.156 44.7197 146.094C46.1832 146.031 47.5765 145.906 48.8994 145.719L48.9931 146.625C48.014 146.802 46.9983 146.935 45.9463 147.023C44.8942 147.112 43.9072 147.169 42.9853 147.195C42.0634 147.221 41.0348 147.234 39.8994 147.234L39.7275 146.188H39.9463ZM57.0175 147.969L60.8769 143.906C61.3873 143.365 61.7779 142.93 62.0488 142.602C62.3196 142.273 62.5227 141.953 62.6581 141.641C62.7935 141.328 62.8613 141.005 62.8613 140.672C62.8613 140.297 62.7623 139.964 62.5644 139.672C62.3665 139.38 62.0982 139.154 61.7597 138.992C61.4211 138.831 61.0383 138.75 60.6113 138.75C60.1738 138.75 59.7883 138.839 59.455 139.016C59.1217 139.193 58.8639 139.443 58.6816 139.766C58.4993 140.089 58.4081 140.458 58.4081 140.875H57.08C57.08 140.219 57.2336 139.638 57.5409 139.133C57.8482 138.628 58.2753 138.234 58.8222 137.953C59.3691 137.672 59.981 137.531 60.6581 137.531C61.3352 137.531 61.9394 137.669 62.4706 137.945C63.0019 138.221 63.4185 138.599 63.7206 139.078C64.0227 139.557 64.1738 140.089 64.1738 140.672C64.1738 141.099 64.0956 141.51 63.9394 141.906C63.7831 142.302 63.5227 142.737 63.1581 143.211C62.7935 143.685 62.2675 144.276 61.58 144.984L58.9863 147.656V147.75H64.3769V149H57.0331L57.0175 147.969ZM69.6469 149.156C68.8135 149.156 68.1026 148.93 67.5141 148.477C66.9255 148.023 66.475 147.362 66.1625 146.492C65.85 145.622 65.6937 144.573 65.6937 143.344C65.6937 142.125 65.85 141.081 66.1625 140.211C66.475 139.341 66.9281 138.677 67.5219 138.219C68.1156 137.76 68.824 137.531 69.6469 137.531C70.4698 137.531 71.1781 137.76 71.7719 138.219C72.3656 138.677 72.8187 139.341 73.1312 140.211C73.4437 141.081 73.6 142.125 73.6 143.344C73.6 144.573 73.4464 145.622 73.1391 146.492C72.8318 147.362 72.3812 148.023 71.7875 148.477C71.1937 148.93 70.4802 149.156 69.6469 149.156ZM69.6469 147.906C70.1885 147.906 70.6521 147.729 71.0375 147.375C71.4229 147.021 71.7172 146.503 71.9203 145.82C72.1234 145.138 72.225 144.312 72.225 143.344C72.225 142.375 72.1234 141.547 71.9203 140.859C71.7172 140.172 71.4229 139.648 71.0375 139.289C70.6521 138.93 70.1885 138.75 69.6469 138.75C69.1052 138.75 68.6417 138.93 68.2562 139.289C67.8708 139.648 67.574 140.172 67.3656 140.859C67.1573 141.547 67.0531 142.375 67.0531 143.344C67.0531 144.312 67.1547 145.138 67.3578 145.82C67.5609 146.503 67.8578 147.021 68.2484 147.375C68.6391 147.729 69.1052 147.906 69.6469 147.906ZM74.9794 147.969L78.8387 143.906C79.3492 143.365 79.7398 142.93 80.0106 142.602C80.2815 142.273 80.4846 141.953 80.62 141.641C80.7554 141.328 80.8231 141.005 80.8231 140.672C80.8231 140.297 80.7242 139.964 80.5262 139.672C80.3283 139.38 80.0601 139.154 79.7216 138.992C79.383 138.831 79.0002 138.75 78.5731 138.75C78.1356 138.75 77.7502 138.839 77.4169 139.016C77.0835 139.193 76.8257 139.443 76.6434 139.766C76.4611 140.089 76.37 140.458 76.37 140.875H75.0419C75.0419 140.219 75.1955 139.638 75.5028 139.133C75.8101 138.628 76.2372 138.234 76.7841 137.953C77.3309 137.672 77.9429 137.531 78.62 137.531C79.2971 137.531 79.9012 137.669 80.4325 137.945C80.9637 138.221 81.3804 138.599 81.6825 139.078C81.9846 139.557 82.1356 140.089 82.1356 140.672C82.1356 141.099 82.0575 141.51 81.9012 141.906C81.745 142.302 81.4846 142.737 81.12 143.211C80.7554 143.685 80.2294 144.276 79.5419 144.984L76.9481 147.656V147.75H82.3387V149H74.995L74.9794 147.969ZM87.5931 149.156C86.9265 149.156 86.3171 149.026 85.765 148.766C85.2129 148.505 84.7754 148.148 84.4525 147.695C84.1296 147.242 83.9525 146.729 83.9212 146.156H85.2806C85.3223 146.49 85.4499 146.789 85.6634 147.055C85.877 147.32 86.153 147.531 86.4916 147.688C86.8301 147.844 87.1973 147.922 87.5931 147.922C88.0723 147.922 88.5046 147.812 88.89 147.594C89.2754 147.375 89.5775 147.076 89.7962 146.695C90.015 146.315 90.1244 145.891 90.1244 145.422C90.1244 144.932 90.0124 144.495 89.7884 144.109C89.5645 143.724 89.252 143.419 88.8509 143.195C88.4499 142.971 87.9994 142.859 87.4994 142.859C87.0098 142.849 86.5879 142.924 86.2337 143.086C85.8796 143.247 85.5983 143.51 85.39 143.875H84.0306L84.8275 137.688H90.9525V138.938H85.9994L85.5775 142.25H85.6869C85.9473 142.052 86.2598 141.893 86.6244 141.773C86.989 141.654 87.364 141.594 87.7494 141.594C88.4577 141.594 89.0983 141.755 89.6712 142.078C90.2442 142.401 90.6921 142.852 91.015 143.43C91.3379 144.008 91.4994 144.661 91.4994 145.391C91.4994 146.109 91.3301 146.755 90.9916 147.328C90.653 147.901 90.1869 148.349 89.5931 148.672C88.9994 148.995 88.3327 149.156 87.5931 149.156ZM103.988 146.672H102.754V136.391H103.988V146.672ZM103.207 139.203H98.7538V138.219H103.207V139.203ZM104.363 149.969H95.035V148.938H104.363V149.969ZM96.2694 149.391H95.035V145.797H96.2694V149.391ZM94.535 143.969H93.3006V137.391H94.535V143.969ZM94.3475 143.562C95.4517 143.562 96.4829 143.526 97.4413 143.453C98.3996 143.38 99.3892 143.25 100.41 143.062L100.535 144.078C99.4829 144.276 98.4751 144.411 97.5116 144.484C96.548 144.557 95.4933 144.599 94.3475 144.609H93.3006V143.562H94.3475ZM103.207 141.859H98.7538V140.875H103.207V141.859ZM121.231 150.266H120.059V136.375H121.231V150.266ZM120.372 142.984H117.653V141.969H120.372V142.984ZM118.012 149.547H116.887V136.688H118.012V149.547ZM110.762 145.781C111.898 145.781 112.841 145.755 113.591 145.703C114.341 145.651 115.101 145.547 115.872 145.391L115.981 146.422C115.19 146.578 114.411 146.685 113.645 146.742C112.88 146.799 111.919 146.828 110.762 146.828H109.872V145.781H110.762ZM115.075 139.094H111.091V146.266H109.872V138.078H115.075V139.094ZM127.486 147.891H126.251V143.891H127.486V147.891ZM131.783 147.891H130.564V143.891H131.783V147.891ZM135.423 148.562H122.704V147.547H135.423V148.562ZM134.204 138.688H123.829V137.672H134.204V138.688ZM134.173 144.234H123.861V143.219H134.173V144.234ZM127.251 143.438H126.033V138.484H127.251V143.438ZM132.001 143.438H130.798V138.484H132.001V143.438ZM150.448 144.453H149.229V136.375H150.448V144.453ZM152.541 140.984H149.916V139.938H152.541V140.984ZM142.885 146.547H149.229V145.062H150.448V150.078H141.666V145.062H142.885V146.547ZM149.229 149.094V147.516H142.885V149.094H149.229ZM147.901 138.828H139.619V137.812H147.901V138.828ZM143.76 139.469C144.427 139.469 145.01 139.568 145.51 139.766C146.01 139.964 146.401 140.247 146.682 140.617C146.963 140.987 147.104 141.417 147.104 141.906C147.104 142.396 146.963 142.823 146.682 143.188C146.401 143.552 146.01 143.836 145.51 144.039C145.01 144.242 144.427 144.344 143.76 144.344C143.093 144.344 142.507 144.242 142.002 144.039C141.497 143.836 141.106 143.552 140.83 143.188C140.554 142.823 140.416 142.396 140.416 141.906C140.416 141.417 140.554 140.987 140.83 140.617C141.106 140.247 141.497 139.964 142.002 139.766C142.507 139.568 143.093 139.469 143.76 139.469ZM143.76 140.422C143.333 140.411 142.953 140.469 142.619 140.594C142.286 140.719 142.031 140.896 141.854 141.125C141.677 141.354 141.588 141.615 141.588 141.906C141.588 142.198 141.677 142.458 141.854 142.688C142.031 142.917 142.286 143.094 142.619 143.219C142.953 143.344 143.333 143.406 143.76 143.406C144.187 143.406 144.567 143.344 144.901 143.219C145.234 143.094 145.492 142.917 145.674 142.688C145.856 142.458 145.948 142.198 145.948 141.906C145.948 141.604 145.854 141.341 145.666 141.117C145.479 140.893 145.221 140.719 144.893 140.594C144.565 140.469 144.187 140.411 143.76 140.422ZM144.369 138.359H143.151V136.25H144.369V138.359ZM160.264 137.328C160.264 138.484 159.999 139.534 159.467 140.477C158.936 141.419 158.176 142.227 157.186 142.898C156.197 143.57 155.014 144.099 153.639 144.484L153.155 143.5C154.363 143.167 155.402 142.721 156.272 142.164C157.142 141.607 157.809 140.964 158.272 140.234C158.736 139.505 158.967 138.714 158.967 137.859V137.328H160.264ZM159.702 138.328H153.858V137.328H159.702V138.328ZM164.452 150.25H163.217V146.266H155.108V145.281H164.452V150.25ZM164.452 144.672H163.217V136.391H164.452V144.672ZM163.483 139.891H159.686V138.875H163.483V139.891ZM163.374 142.828H159.53V141.812H163.374V142.828ZM181.695 150.266H180.523V136.375H181.695V150.266ZM180.836 142.984H178.117V141.969H180.836V142.984ZM178.476 149.547H177.351V136.688H178.476V149.547ZM171.226 145.781C172.362 145.781 173.304 145.755 174.054 145.703C174.804 145.651 175.565 145.547 176.336 145.391L176.445 146.422C175.653 146.578 174.875 146.685 174.109 146.742C173.343 146.799 172.383 146.828 171.226 146.828H170.336V145.781H171.226ZM175.539 139.094H171.554V146.266H170.336V138.078H175.539V139.094ZM191.481 138.875H183.199V137.875H191.481V138.875ZM187.34 139.594C188.007 139.594 188.59 139.698 189.09 139.906C189.59 140.115 189.981 140.406 190.262 140.781C190.543 141.156 190.684 141.599 190.684 142.109C190.684 142.609 190.543 143.047 190.262 143.422C189.981 143.797 189.59 144.089 189.09 144.297C188.59 144.505 188.007 144.609 187.34 144.609C186.684 144.609 186.1 144.505 185.59 144.297C185.08 144.089 184.686 143.797 184.41 143.422C184.134 143.047 183.996 142.609 183.996 142.109C183.996 141.599 184.134 141.156 184.41 140.781C184.686 140.406 185.08 140.115 185.59 139.906C186.1 139.698 186.684 139.594 187.34 139.594ZM187.34 140.547C186.913 140.547 186.533 140.612 186.199 140.742C185.866 140.872 185.611 141.055 185.434 141.289C185.257 141.523 185.168 141.797 185.168 142.109C185.168 142.411 185.257 142.677 185.434 142.906C185.611 143.135 185.866 143.312 186.199 143.438C186.533 143.562 186.913 143.625 187.34 143.625C187.767 143.625 188.147 143.562 188.481 143.438C188.814 143.312 189.072 143.135 189.254 142.906C189.436 142.677 189.527 142.411 189.527 142.109C189.527 141.797 189.436 141.523 189.254 141.289C189.072 141.055 188.814 140.872 188.481 140.742C188.147 140.612 187.767 140.547 187.34 140.547ZM194.027 145.062H192.809V136.375H194.027V145.062ZM196.121 141.266H193.684V140.234H196.121V141.266ZM194.027 150.266H192.809V146.828H184.934V145.828H194.027V150.266ZM187.949 138.422H186.731V136.312H187.949V138.422ZM214.447 144.453H213.228V136.375H214.447V144.453ZM216.541 140.984H213.916V139.938H216.541V140.984ZM206.884 146.547H213.228V145.062H214.447V150.078H205.666V145.062H206.884V146.547ZM213.228 149.094V147.516H206.884V149.094H213.228ZM211.9 138.828H203.619V137.812H211.9V138.828ZM207.759 139.469C208.426 139.469 209.009 139.568 209.509 139.766C210.009 139.964 210.4 140.247 210.681 140.617C210.962 140.987 211.103 141.417 211.103 141.906C211.103 142.396 210.962 142.823 210.681 143.188C210.4 143.552 210.009 143.836 209.509 144.039C209.009 144.242 208.426 144.344 207.759 144.344C207.093 144.344 206.507 144.242 206.002 144.039C205.496 143.836 205.106 143.552 204.83 143.188C204.554 142.823 204.416 142.396 204.416 141.906C204.416 141.417 204.554 140.987 204.83 140.617C205.106 140.247 205.496 139.964 206.002 139.766C206.507 139.568 207.093 139.469 207.759 139.469ZM207.759 140.422C207.332 140.411 206.952 140.469 206.619 140.594C206.285 140.719 206.03 140.896 205.853 141.125C205.676 141.354 205.587 141.615 205.587 141.906C205.587 142.198 205.676 142.458 205.853 142.688C206.03 142.917 206.285 143.094 206.619 143.219C206.952 143.344 207.332 143.406 207.759 143.406C208.186 143.406 208.567 143.344 208.9 143.219C209.233 143.094 209.491 142.917 209.673 142.688C209.856 142.458 209.947 142.198 209.947 141.906C209.947 141.604 209.853 141.341 209.666 141.117C209.478 140.893 209.22 140.719 208.892 140.594C208.564 140.469 208.186 140.411 207.759 140.422ZM208.369 138.359H207.15V136.25H208.369V138.359ZM224.264 137.328C224.264 138.484 223.998 139.534 223.467 140.477C222.936 141.419 222.175 142.227 221.186 142.898C220.196 143.57 219.014 144.099 217.639 144.484L217.154 143.5C218.363 143.167 219.402 142.721 220.272 142.164C221.141 141.607 221.808 140.964 222.272 140.234C222.735 139.505 222.967 138.714 222.967 137.859V137.328H224.264ZM223.701 138.328H217.857V137.328H223.701V138.328ZM228.451 150.25H227.217V146.266H219.107V145.281H228.451V150.25ZM228.451 144.672H227.217V136.391H228.451V144.672ZM227.482 139.891H223.686V138.875H227.482V139.891ZM227.373 142.828H223.529V141.812H227.373V142.828ZM234.237 139.141C234.237 139.818 234.104 140.495 233.838 141.172C233.573 141.849 233.193 142.458 232.698 143C232.203 143.542 231.628 143.953 230.971 144.234L230.299 143.281C230.893 143.021 231.414 142.664 231.862 142.211C232.31 141.758 232.654 141.263 232.893 140.727C233.133 140.19 233.253 139.661 233.253 139.141V137.25H234.237V139.141ZM234.424 139.141C234.424 139.651 234.542 140.154 234.776 140.648C235.01 141.143 235.344 141.589 235.776 141.984C236.208 142.38 236.711 142.688 237.284 142.906L236.643 143.844C235.987 143.583 235.417 143.214 234.932 142.734C234.448 142.255 234.081 141.703 233.831 141.078C233.581 140.453 233.456 139.807 233.456 139.141V137.25H234.424V139.141ZM242.081 144.969H240.909V136.391H242.081V144.969ZM241.299 141.141H238.643V140.125H241.299V141.141ZM239.065 144.531H237.909V136.656H239.065V144.531ZM237.487 145.281C238.445 145.281 239.276 145.378 239.979 145.57C240.682 145.763 241.221 146.047 241.596 146.422C241.971 146.797 242.159 147.245 242.159 147.766C242.159 148.276 241.971 148.716 241.596 149.086C241.221 149.456 240.682 149.74 239.979 149.938C239.276 150.135 238.445 150.234 237.487 150.234C236.529 150.234 235.698 150.135 234.995 149.938C234.292 149.74 233.755 149.456 233.385 149.086C233.016 148.716 232.831 148.276 232.831 147.766C232.831 147.245 233.016 146.797 233.385 146.422C233.755 146.047 234.292 145.763 234.995 145.57C235.698 145.378 236.529 145.281 237.487 145.281ZM237.487 146.219C236.789 146.219 236.18 146.279 235.659 146.398C235.138 146.518 234.739 146.695 234.463 146.93C234.187 147.164 234.049 147.443 234.049 147.766C234.049 148.078 234.187 148.349 234.463 148.578C234.739 148.807 235.135 148.982 235.651 149.102C236.167 149.221 236.779 149.281 237.487 149.281C238.195 149.281 238.807 149.221 239.323 149.102C239.838 148.982 240.237 148.807 240.518 148.578C240.799 148.349 240.94 148.078 240.94 147.766C240.94 147.443 240.799 147.164 240.518 146.93C240.237 146.695 239.836 146.518 239.315 146.398C238.794 146.279 238.185 146.219 237.487 146.219ZM258.636 150.297H257.417V136.375H258.636V150.297ZM249.136 145.891C250.417 145.891 251.6 145.854 252.683 145.781C253.766 145.708 254.897 145.578 256.074 145.391L256.199 146.422C255.001 146.609 253.852 146.74 252.753 146.812C251.654 146.885 250.449 146.922 249.136 146.922H247.98V145.891H249.136ZM254.417 142.609H249.23V146.281H247.98V141.609H253.183V138.688H247.949V137.672H254.417V142.609ZM267.234 138.422C267.234 139.38 266.964 140.276 266.422 141.109C265.88 141.943 265.18 142.646 264.32 143.219C263.461 143.792 262.557 144.188 261.609 144.406L261.047 143.375C261.87 143.208 262.677 142.883 263.469 142.398C264.26 141.914 264.906 141.32 265.406 140.617C265.906 139.914 266.156 139.182 266.156 138.422V137.359H267.234V138.422ZM267.438 138.422C267.438 139.172 267.693 139.901 268.203 140.609C268.714 141.318 269.367 141.917 270.164 142.406C270.961 142.896 271.766 143.219 272.578 143.375L272.016 144.406C271.078 144.188 270.18 143.794 269.32 143.227C268.461 142.659 267.758 141.956 267.211 141.117C266.664 140.279 266.391 139.38 266.391 138.422V137.359H267.438V138.422ZM273.234 148.375H260.516V147.359H273.234V148.375ZM285.114 144.891H275.504V143.891H285.114V144.891ZM286.583 148.453H273.864V147.438H286.583V148.453ZM284.958 138.609H276.754V144.188H275.504V137.578H284.958V138.609ZM284.661 141.656H276.364V140.672H284.661V141.656ZM299.915 143.797H287.196V142.828H299.915V143.797ZM298.321 147.859H289.978V149.516H288.743V147.016H297.103V145.828H288.728V144.906H298.321V147.859ZM298.774 150.078H288.743V149.188H298.774V150.078ZM298.274 139.672H290.071V141.203H288.853V138.828H297.04V137.688H288.806V136.797H298.274V139.672ZM298.524 141.781H288.853V140.891H298.524V141.781ZM310.377 145.156C311.377 145.156 312.241 145.255 312.971 145.453C313.7 145.651 314.262 145.943 314.658 146.328C315.054 146.714 315.252 147.172 315.252 147.703C315.252 148.224 315.054 148.674 314.658 149.055C314.262 149.435 313.697 149.727 312.963 149.93C312.228 150.133 311.366 150.234 310.377 150.234C309.387 150.234 308.528 150.133 307.799 149.93C307.07 149.727 306.507 149.435 306.111 149.055C305.715 148.674 305.517 148.224 305.517 147.703C305.517 147.172 305.715 146.714 306.111 146.328C306.507 145.943 307.07 145.651 307.799 145.453C308.528 145.255 309.387 145.156 310.377 145.156ZM310.377 146.094C309.648 146.094 309.007 146.159 308.455 146.289C307.903 146.419 307.478 146.607 307.182 146.852C306.885 147.096 306.736 147.38 306.736 147.703C306.736 148.016 306.885 148.292 307.182 148.531C307.478 148.771 307.903 148.953 308.455 149.078C309.007 149.203 309.648 149.266 310.377 149.266C311.116 149.266 311.76 149.203 312.307 149.078C312.853 148.953 313.278 148.771 313.58 148.531C313.882 148.292 314.033 148.016 314.033 147.703C314.033 147.38 313.882 147.096 313.58 146.852C313.278 146.607 312.853 146.419 312.307 146.289C311.76 146.159 311.116 146.094 310.377 146.094ZM314.627 138.094H305.611V137.094H314.627V138.094ZM316.752 143.859H304.111V142.859H316.752V143.859ZM310.549 143.172H309.346V140.172H310.549V143.172ZM315.142 138.266C315.142 139.016 315.122 139.656 315.08 140.188C315.038 140.719 314.929 141.307 314.752 141.953L313.549 141.812C313.715 141.188 313.82 140.625 313.861 140.125C313.903 139.625 313.924 139.047 313.924 138.391V138.266V137.094H315.142V138.266ZM329.303 150.266H328.1V136.375H329.303V150.266ZM328.553 143H325.819V141.984H328.553V143ZM323.428 138.188C323.428 139.438 323.261 140.612 322.928 141.711C322.595 142.81 322.04 143.836 321.264 144.789C320.488 145.742 319.459 146.573 318.178 147.281L317.459 146.422C318.605 145.786 319.532 145.052 320.241 144.219C320.949 143.385 321.462 142.484 321.78 141.516C322.097 140.547 322.256 139.505 322.256 138.391V138.188H323.428ZM322.663 139.203H317.991V138.188H322.663V139.203ZM326.178 149.578H325.006V136.75H326.178V149.578ZM341.651 144.453H340.432V136.375H341.651V144.453ZM343.745 140.984H341.12V139.938H343.745V140.984ZM334.089 146.547H340.432V145.062H341.651V150.078H332.87V145.062H334.089V146.547ZM340.432 149.094V147.516H334.089V149.094H340.432ZM339.104 138.828H330.823V137.812H339.104V138.828ZM334.964 139.469C335.63 139.469 336.214 139.568 336.714 139.766C337.214 139.964 337.604 140.247 337.886 140.617C338.167 140.987 338.307 141.417 338.307 141.906C338.307 142.396 338.167 142.823 337.886 143.188C337.604 143.552 337.214 143.836 336.714 144.039C336.214 144.242 335.63 144.344 334.964 144.344C334.297 144.344 333.711 144.242 333.206 144.039C332.701 143.836 332.31 143.552 332.034 143.188C331.758 142.823 331.62 142.396 331.62 141.906C331.62 141.417 331.758 140.987 332.034 140.617C332.31 140.247 332.701 139.964 333.206 139.766C333.711 139.568 334.297 139.469 334.964 139.469ZM334.964 140.422C334.537 140.411 334.156 140.469 333.823 140.594C333.49 140.719 333.235 140.896 333.057 141.125C332.88 141.354 332.792 141.615 332.792 141.906C332.792 142.198 332.88 142.458 333.057 142.688C333.235 142.917 333.49 143.094 333.823 143.219C334.156 143.344 334.537 143.406 334.964 143.406C335.391 143.406 335.771 143.344 336.104 143.219C336.438 143.094 336.696 142.917 336.878 142.688C337.06 142.458 337.151 142.198 337.151 141.906C337.151 141.604 337.057 141.341 336.87 141.117C336.682 140.893 336.425 140.719 336.097 140.594C335.768 140.469 335.391 140.411 334.964 140.422ZM335.573 138.359H334.354V136.25H335.573V138.359ZM355.593 150.266H354.374V136.375H355.593V150.266ZM346.249 146.344H345.046V137.75H346.249V146.344ZM346.171 145.625C347.307 145.625 348.429 145.573 349.538 145.469C350.648 145.365 351.765 145.193 352.89 144.953L353.062 146C351.885 146.24 350.736 146.414 349.617 146.523C348.497 146.633 347.348 146.688 346.171 146.688H345.046V145.625H346.171ZM368.238 150.297H367.019V136.375H368.238V150.297ZM370.566 142.906H367.957V141.875H370.566V142.906ZM359.191 145.781C360.535 145.781 361.699 145.745 362.683 145.672C363.668 145.599 364.665 145.469 365.676 145.281L365.832 146.344C364.811 146.531 363.806 146.656 362.816 146.719C361.827 146.781 360.618 146.812 359.191 146.812H358.098V145.781H359.191ZM364.582 138.75H359.316V146.25H358.098V137.734H364.582V138.75ZM372.305 149.094C372.128 149.094 371.961 149.047 371.805 148.953C371.649 148.859 371.526 148.734 371.438 148.578C371.349 148.422 371.305 148.255 371.305 148.078C371.305 147.901 371.349 147.734 371.438 147.578C371.526 147.422 371.649 147.299 371.805 147.211C371.961 147.122 372.128 147.078 372.305 147.078C372.482 147.078 372.649 147.122 372.805 147.211C372.961 147.299 373.084 147.422 373.172 147.578C373.261 147.734 373.305 147.901 373.305 148.078C373.305 148.255 373.261 148.422 373.172 148.578C373.084 148.734 372.961 148.859 372.805 148.953C372.649 149.047 372.482 149.094 372.305 149.094ZM31.6719 174.078H22.1094V170.109H31.6719V174.078ZM23.3281 173.125H30.4688V171.062H23.3281V173.125ZM32.4844 162.5H21.2188V161.547H32.4844V162.5ZM26.8906 163.062C28.349 163.073 29.4635 163.242 30.2344 163.57C31.0052 163.898 31.3906 164.385 31.3906 165.031C31.3906 165.677 31.0052 166.167 30.2344 166.5C29.4635 166.833 28.349 167 26.8906 167C25.4427 167 24.3281 166.833 23.5469 166.5C22.7656 166.167 22.375 165.677 22.375 165.031C22.375 164.385 22.7656 163.898 23.5469 163.57C24.3281 163.242 25.4427 163.073 26.8906 163.062ZM26.8906 163.922C26.2031 163.922 25.6198 163.966 25.1406 164.055C24.6615 164.143 24.2995 164.268 24.0547 164.43C23.8099 164.591 23.6875 164.792 23.6875 165.031C23.6875 165.26 23.8125 165.458 24.0625 165.625C24.3125 165.792 24.6771 165.919 25.1562 166.008C25.6354 166.096 26.2135 166.141 26.8906 166.141C27.5677 166.141 28.1458 166.096 28.625 166.008C29.1042 165.919 29.4688 165.792 29.7188 165.625C29.9688 165.458 30.0938 165.26 30.0938 165.031C30.0938 164.792 29.9688 164.591 29.7188 164.43C29.4688 164.268 29.1068 164.143 28.6328 164.055C28.1589 163.966 27.5781 163.922 26.8906 163.922ZM27.5 162.172H26.2812V160.172H27.5V162.172ZM33.2188 169.047H20.5625V168.062H33.2188V169.047ZM27.5 168.625H26.2812V166.688H27.5V168.625ZM42.27 166.812H39.5981V165.797H42.27V166.812ZM45.8169 174.266H44.6294V160.375H45.8169V174.266ZM43.02 173.562H41.8481V160.672H43.02V173.562ZM37.0669 161.547C37.671 161.547 38.1971 161.742 38.645 162.133C39.0929 162.523 39.4419 163.083 39.6919 163.812C39.9419 164.542 40.0669 165.396 40.0669 166.375C40.0669 167.344 39.9419 168.193 39.6919 168.922C39.4419 169.651 39.0929 170.214 38.645 170.609C38.1971 171.005 37.671 171.203 37.0669 171.203C36.4731 171.203 35.9497 171.005 35.4966 170.609C35.0434 170.214 34.6945 169.651 34.4497 168.922C34.2049 168.193 34.0825 167.344 34.0825 166.375C34.0825 165.396 34.2049 164.542 34.4497 163.812C34.6945 163.083 35.0434 162.523 35.4966 162.133C35.9497 161.742 36.4731 161.547 37.0669 161.547ZM37.0669 162.703C36.6919 162.703 36.3664 162.852 36.0903 163.148C35.8143 163.445 35.6033 163.87 35.4575 164.422C35.3117 164.974 35.2388 165.625 35.2388 166.375C35.2388 167.115 35.3117 167.76 35.4575 168.312C35.6033 168.865 35.8169 169.289 36.0981 169.586C36.3794 169.883 36.7023 170.031 37.0669 170.031C37.4419 170.031 37.7674 169.883 38.0434 169.586C38.3195 169.289 38.533 168.865 38.6841 168.312C38.8351 167.76 38.9106 167.115 38.9106 166.375C38.9106 165.625 38.8351 164.974 38.6841 164.422C38.533 163.87 38.3195 163.445 38.0434 163.148C37.7674 162.852 37.4419 162.703 37.0669 162.703ZM58.165 166.125H54.2588V165.125H58.165V166.125ZM51.915 164.109C51.915 165.109 51.7457 166.091 51.4072 167.055C51.0686 168.018 50.6051 168.872 50.0166 169.617C49.428 170.362 48.7692 170.932 48.04 171.328L47.2431 170.344C47.9202 170.01 48.5374 169.516 49.0947 168.859C49.652 168.203 50.0921 167.456 50.415 166.617C50.7379 165.779 50.8994 164.943 50.8994 164.109V161.578H51.915V164.109ZM52.1494 164.109C52.1494 164.932 52.3108 165.745 52.6338 166.547C52.9567 167.349 53.3942 168.06 53.9463 168.68C54.4983 169.299 55.1077 169.766 55.7744 170.078L55.04 171.078C54.3004 170.693 53.6364 170.143 53.0478 169.43C52.4593 168.716 51.9957 167.896 51.6572 166.969C51.3186 166.042 51.1494 165.089 51.1494 164.109V161.578H52.1494V164.109ZM58.7744 174.297H57.5556V160.375H58.7744V174.297ZM71.8413 165.578H62.3256V164.594H71.8413V165.578ZM73.31 168.469H60.5913V167.469H73.31V168.469ZM63.5444 165.094H62.3256V160.891H63.5444V165.094ZM71.9194 173.922H62.2475V172.906H71.9194V173.922ZM63.4663 173.203H62.2475V169.891H63.4663V173.203ZM84.475 162.922H78.1312V161.922H84.475V162.922ZM81.5531 170.594H80.35V165.891H81.5531V170.594ZM85.1937 162.859C85.1833 163.682 85.1521 164.505 85.1 165.328C85.0479 166.151 84.9437 167.094 84.7875 168.156L83.5531 168.047C83.7302 166.943 83.8422 165.977 83.8891 165.148C83.9359 164.32 83.9594 163.484 83.9594 162.641V161.922H85.1937V162.641V162.859ZM88.2094 174.266H86.9906V160.375H88.2094V174.266ZM90.4594 167.25H87.8812V166.188H90.4594V167.25ZM77.5531 170.188C79.1469 170.177 80.6599 170.143 82.0922 170.086C83.5245 170.029 84.8656 169.927 86.1156 169.781L86.1781 170.703C84.8656 170.901 83.475 171.036 82.0062 171.109C80.5375 171.182 79.0375 171.214 77.5062 171.203L77.35 170.188H77.5531ZM98.0888 166.812H91.5731V161.156H98.0888V166.812ZM92.7763 165.844H96.8856V162.156H92.7763V165.844ZM102.292 167.547H101.089V160.375H102.292V167.547ZM102.292 171.547H94.5106V173.547H93.2919V170.641H101.089V169.219H93.2763V168.234H102.292V171.547ZM102.792 174.109H93.2919V173.109H102.792V174.109ZM115.406 167.891H105.812V166.891H115.406V167.891ZM116.906 172.516H104.187V171.484H116.906V172.516ZM111.109 171.906H109.906V167.328H111.109V171.906ZM115.265 162.516H107.046V167.359H105.812V161.516H115.265V162.516ZM130.238 167.797H117.519V166.828H130.238V167.797ZM128.644 171.859H120.301V173.516H119.066V171.016H127.426V169.828H119.051V168.906H128.644V171.859ZM129.098 174.078H119.066V173.188H129.098V174.078ZM128.598 163.672H120.394V165.203H119.176V162.828H127.363V161.688H119.129V160.797H128.598V163.672ZM128.848 165.781H119.176V164.891H128.848V165.781ZM141.341 169.047H140.137V166.906H141.341V169.047ZM147.075 167.188H134.419V166.188H147.075V167.188ZM145.45 171.75H137.2V173.391H135.981V170.844H144.247V169.531H135.95V168.594H145.45V171.75ZM145.872 174.109H135.981V173.141H145.872V174.109ZM141.122 161.656C141.122 162.354 140.864 162.974 140.348 163.516C139.833 164.057 139.151 164.497 138.302 164.836C137.453 165.174 136.523 165.396 135.512 165.5L135.106 164.562C135.971 164.49 136.781 164.318 137.536 164.047C138.291 163.776 138.901 163.432 139.364 163.016C139.828 162.599 140.059 162.146 140.059 161.656V161.25H141.122V161.656ZM141.45 161.656C141.45 162.146 141.679 162.599 142.137 163.016C142.596 163.432 143.208 163.776 143.973 164.047C144.739 164.318 145.549 164.49 146.403 164.562L145.997 165.5C144.997 165.396 144.07 165.174 143.216 164.836C142.361 164.497 141.677 164.055 141.161 163.508C140.645 162.961 140.387 162.344 140.387 161.656V161.25H141.45V161.656ZM145.95 161.844H135.575V160.875H145.95V161.844ZM159.22 174.297H157.986V160.375H159.22V174.297ZM151.829 161.453C152.517 161.453 153.129 161.654 153.665 162.055C154.202 162.456 154.621 163.021 154.923 163.75C155.225 164.479 155.376 165.328 155.376 166.297C155.376 167.266 155.225 168.115 154.923 168.844C154.621 169.573 154.202 170.135 153.665 170.531C153.129 170.927 152.517 171.125 151.829 171.125C151.142 171.125 150.53 170.927 149.993 170.531C149.457 170.135 149.038 169.573 148.736 168.844C148.434 168.115 148.283 167.266 148.283 166.297C148.283 165.328 148.434 164.479 148.736 163.75C149.038 163.021 149.457 162.456 149.993 162.055C150.53 161.654 151.142 161.453 151.829 161.453ZM151.829 162.547C151.371 162.547 150.962 162.703 150.603 163.016C150.243 163.328 149.965 163.766 149.767 164.328C149.569 164.891 149.47 165.547 149.47 166.297C149.47 167.036 149.569 167.69 149.767 168.258C149.965 168.826 150.243 169.263 150.603 169.57C150.962 169.878 151.371 170.031 151.829 170.031C152.288 170.031 152.697 169.878 153.056 169.57C153.415 169.263 153.694 168.826 153.892 168.258C154.09 167.69 154.189 167.036 154.189 166.297C154.189 165.547 154.09 164.891 153.892 164.328C153.694 163.766 153.418 163.328 153.064 163.016C152.71 162.703 152.298 162.547 151.829 162.547ZM172.599 174.266H171.365V160.375H172.599V174.266ZM168.49 161.891C168.49 163.266 168.263 164.552 167.81 165.75C167.357 166.948 166.646 168.049 165.678 169.055C164.709 170.06 163.469 170.927 161.959 171.656L161.287 170.656C162.631 170.021 163.745 169.273 164.631 168.414C165.516 167.555 166.178 166.594 166.615 165.531C167.053 164.469 167.271 163.318 167.271 162.078V161.891H168.49ZM167.771 162.891H161.928V161.891H167.771V162.891ZM182.577 161.062C183.264 161.052 183.879 161.164 184.421 161.398C184.962 161.633 185.384 161.966 185.686 162.398C185.988 162.831 186.139 163.328 186.139 163.891C186.139 164.443 185.988 164.935 185.686 165.367C185.384 165.799 184.962 166.135 184.421 166.375C183.879 166.615 183.264 166.734 182.577 166.734C181.889 166.734 181.277 166.615 180.741 166.375C180.204 166.135 179.783 165.799 179.475 165.367C179.168 164.935 179.014 164.443 179.014 163.891C179.014 163.328 179.168 162.831 179.475 162.398C179.783 161.966 180.204 161.633 180.741 161.398C181.277 161.164 181.889 161.052 182.577 161.062ZM182.577 162.062C182.119 162.052 181.71 162.125 181.35 162.281C180.991 162.438 180.712 162.656 180.514 162.938C180.316 163.219 180.217 163.536 180.217 163.891C180.217 164.245 180.316 164.562 180.514 164.844C180.712 165.125 180.991 165.341 181.35 165.492C181.71 165.643 182.119 165.719 182.577 165.719C183.046 165.719 183.46 165.643 183.819 165.492C184.178 165.341 184.46 165.125 184.663 164.844C184.866 164.562 184.967 164.245 184.967 163.891C184.967 163.536 184.866 163.219 184.663 162.938C184.46 162.656 184.178 162.438 183.819 162.281C183.46 162.125 183.046 162.052 182.577 162.062ZM183.264 173.844H182.046V168.297H183.264V173.844ZM189.452 174.281H188.249V160.391H189.452V174.281ZM177.967 167.922C179.686 167.922 181.316 167.888 182.858 167.82C184.4 167.753 185.858 167.62 187.233 167.422L187.311 168.344C186.03 168.573 184.712 168.729 183.358 168.812C182.004 168.896 180.488 168.948 178.811 168.969C178.592 168.969 178.369 168.969 178.139 168.969L177.967 167.922ZM198.284 163.781H191.316V162.781H198.284V163.781ZM194.8 164.719C195.383 164.719 195.902 164.852 196.355 165.117C196.808 165.383 197.165 165.755 197.425 166.234C197.685 166.714 197.816 167.26 197.816 167.875C197.816 168.49 197.685 169.036 197.425 169.516C197.165 169.995 196.808 170.372 196.355 170.648C195.902 170.924 195.383 171.062 194.8 171.062C194.227 171.062 193.714 170.924 193.261 170.648C192.808 170.372 192.454 169.992 192.198 169.508C191.943 169.023 191.816 168.479 191.816 167.875C191.816 167.271 191.943 166.727 192.198 166.242C192.454 165.758 192.808 165.383 193.261 165.117C193.714 164.852 194.227 164.719 194.8 164.719ZM194.8 165.75C194.446 165.75 194.123 165.844 193.831 166.031C193.54 166.219 193.313 166.471 193.152 166.789C192.99 167.107 192.909 167.469 192.909 167.875C192.909 168.281 192.993 168.646 193.159 168.969C193.326 169.292 193.553 169.542 193.839 169.719C194.126 169.896 194.446 169.984 194.8 169.984C195.165 169.984 195.493 169.896 195.784 169.719C196.076 169.542 196.305 169.292 196.472 168.969C196.639 168.646 196.722 168.281 196.722 167.875C196.722 167.469 196.639 167.107 196.472 166.789C196.305 166.471 196.076 166.219 195.784 166.031C195.493 165.844 195.165 165.75 194.8 165.75ZM203.175 174.266H202.003V160.375H203.175V174.266ZM202.394 167.25H199.738V166.234H202.394V167.25ZM200.159 173.578H199.003V160.719H200.159V173.578ZM195.425 163.391H194.206V160.797H195.425V163.391ZM220.106 174.266H218.934V160.375H220.106V174.266ZM219.246 166.984H216.527V165.969H219.246V166.984ZM216.887 173.547H215.762V160.688H216.887V173.547ZM209.637 169.781C210.772 169.781 211.715 169.755 212.465 169.703C213.215 169.651 213.975 169.547 214.746 169.391L214.856 170.422C214.064 170.578 213.285 170.685 212.52 170.742C211.754 170.799 210.793 170.828 209.637 170.828H208.746V169.781H209.637ZM213.949 163.094H209.965V170.266H208.746V162.078H213.949V163.094ZM226.36 171.891H225.126V167.891H226.36V171.891ZM230.657 171.891H229.438V167.891H230.657V171.891ZM234.298 172.562H221.579V171.547H234.298V172.562ZM233.079 162.688H222.704V161.672H233.079V162.688ZM233.048 168.234H222.735V167.219H233.048V168.234ZM226.126 167.438H224.907V162.484H226.126V167.438ZM230.876 167.438H229.673V162.484H230.876V167.438ZM250.337 174.266H249.166V160.375H250.337V174.266ZM249.478 166.984H246.759V165.969H249.478V166.984ZM247.119 173.547H245.994V160.688H247.119V173.547ZM239.869 169.781C241.004 169.781 241.947 169.755 242.697 169.703C243.447 169.651 244.207 169.547 244.978 169.391L245.087 170.422C244.296 170.578 243.517 170.685 242.752 170.742C241.986 170.799 241.025 170.828 239.869 170.828H238.978V169.781H239.869ZM244.181 163.094H240.197V170.266H238.978V162.078H244.181V163.094ZM260.123 162.875H251.842V161.875H260.123V162.875ZM255.982 163.594C256.649 163.594 257.232 163.698 257.732 163.906C258.232 164.115 258.623 164.406 258.904 164.781C259.186 165.156 259.326 165.599 259.326 166.109C259.326 166.609 259.186 167.047 258.904 167.422C258.623 167.797 258.232 168.089 257.732 168.297C257.232 168.505 256.649 168.609 255.982 168.609C255.326 168.609 254.743 168.505 254.232 168.297C253.722 168.089 253.329 167.797 253.053 167.422C252.777 167.047 252.639 166.609 252.639 166.109C252.639 165.599 252.777 165.156 253.053 164.781C253.329 164.406 253.722 164.115 254.232 163.906C254.743 163.698 255.326 163.594 255.982 163.594ZM255.982 164.547C255.555 164.547 255.175 164.612 254.842 164.742C254.509 164.872 254.253 165.055 254.076 165.289C253.899 165.523 253.811 165.797 253.811 166.109C253.811 166.411 253.899 166.677 254.076 166.906C254.253 167.135 254.509 167.312 254.842 167.438C255.175 167.562 255.555 167.625 255.982 167.625C256.41 167.625 256.79 167.562 257.123 167.438C257.456 167.312 257.714 167.135 257.897 166.906C258.079 166.677 258.17 166.411 258.17 166.109C258.17 165.797 258.079 165.523 257.897 165.289C257.714 165.055 257.456 164.872 257.123 164.742C256.79 164.612 256.41 164.547 255.982 164.547ZM262.67 169.062H261.451V160.375H262.67V169.062ZM264.764 165.266H262.326V164.234H264.764V165.266ZM262.67 174.266H261.451V170.828H253.576V169.828H262.67V174.266ZM256.592 162.422H255.373V160.312H256.592V162.422ZM272.174 168.031H265.753V161.641H272.174V168.031ZM266.956 167.047H270.987V162.641H266.956V167.047ZM276.018 170.562H274.799V160.375H276.018V170.562ZM278.112 165.641H275.628V164.609H278.112V165.641ZM276.659 173.969H267.331V172.938H276.659V173.969ZM268.534 173.359H267.331V169.594H268.534V173.359ZM293.293 167.734H283.605V166.703H293.293V167.734ZM294.761 172.453H282.043V171.438H294.761V172.453ZM288.98 171.781H287.761V167.328H288.98V171.781ZM284.855 167.141H283.605V161.562H284.855V167.141ZM302.312 169.391H301.109V167.281H302.312V169.391ZM308.047 167.516H295.406V166.562H308.047V167.516ZM302.312 161.984H301.109V160.297H302.312V161.984ZM302.125 162.312C302.125 163.01 301.87 163.617 301.359 164.133C300.849 164.648 300.167 165.052 299.312 165.344C298.458 165.635 297.5 165.828 296.438 165.922L296.078 164.984C296.995 164.922 297.831 164.776 298.586 164.547C299.341 164.318 299.94 164.01 300.383 163.625C300.826 163.24 301.047 162.802 301.047 162.312V162.109H302.125V162.312ZM302.391 162.312C302.391 162.802 302.612 163.24 303.055 163.625C303.497 164.01 304.096 164.318 304.852 164.547C305.607 164.776 306.443 164.922 307.359 164.984L306.984 165.922C305.932 165.828 304.979 165.635 304.125 165.344C303.271 165.052 302.589 164.648 302.078 164.133C301.568 163.617 301.312 163.01 301.312 162.312V162.109H302.391V162.312ZM306.766 162.562H296.703V161.594H306.766V162.562ZM306.422 171.812H298.172V173.516H296.953V170.938H305.219V169.734H296.922V168.812H306.422V171.812ZM306.844 174.109H296.953V173.172H306.844V174.109ZM319.598 168.453H318.379V160.375H319.598V168.453ZM321.692 164.984H319.067V163.938H321.692V164.984ZM312.036 170.547H318.379V169.062H319.598V174.078H310.817V169.062H312.036V170.547ZM318.379 173.094V171.516H312.036V173.094H318.379ZM317.051 162.828H308.77V161.812H317.051V162.828ZM312.911 163.469C313.577 163.469 314.161 163.568 314.661 163.766C315.161 163.964 315.551 164.247 315.832 164.617C316.114 164.987 316.254 165.417 316.254 165.906C316.254 166.396 316.114 166.823 315.832 167.188C315.551 167.552 315.161 167.836 314.661 168.039C314.161 168.242 313.577 168.344 312.911 168.344C312.244 168.344 311.658 168.242 311.153 168.039C310.648 167.836 310.257 167.552 309.981 167.188C309.705 166.823 309.567 166.396 309.567 165.906C309.567 165.417 309.705 164.987 309.981 164.617C310.257 164.247 310.648 163.964 311.153 163.766C311.658 163.568 312.244 163.469 312.911 163.469ZM312.911 164.422C312.484 164.411 312.103 164.469 311.77 164.594C311.437 164.719 311.181 164.896 311.004 165.125C310.827 165.354 310.739 165.615 310.739 165.906C310.739 166.198 310.827 166.458 311.004 166.688C311.181 166.917 311.437 167.094 311.77 167.219C312.103 167.344 312.484 167.406 312.911 167.406C313.338 167.406 313.718 167.344 314.051 167.219C314.385 167.094 314.642 166.917 314.825 166.688C315.007 166.458 315.098 166.198 315.098 165.906C315.098 165.604 315.004 165.341 314.817 165.117C314.629 164.893 314.372 164.719 314.043 164.594C313.715 164.469 313.338 164.411 312.911 164.422ZM313.52 162.359H312.301V160.25H313.52V162.359ZM333.54 174.266H332.321V160.375H333.54V174.266ZM324.196 170.344H322.993V161.75H324.196V170.344ZM324.118 169.625C325.254 169.625 326.376 169.573 327.485 169.469C328.595 169.365 329.712 169.193 330.837 168.953L331.009 170C329.832 170.24 328.683 170.414 327.563 170.523C326.444 170.633 325.295 170.688 324.118 170.688H322.993V169.625H324.118ZM346.185 174.297H344.966V160.375H346.185V174.297ZM348.513 166.906H345.904V165.875H348.513V166.906ZM337.138 169.781C338.482 169.781 339.646 169.745 340.63 169.672C341.615 169.599 342.612 169.469 343.622 169.281L343.779 170.344C342.758 170.531 341.753 170.656 340.763 170.719C339.774 170.781 338.565 170.812 337.138 170.812H336.044V169.781H337.138ZM342.529 162.75H337.263V170.25H336.044V161.734H342.529V162.75ZM350.252 173.094C350.075 173.094 349.908 173.047 349.752 172.953C349.596 172.859 349.473 172.734 349.385 172.578C349.296 172.422 349.252 172.255 349.252 172.078C349.252 171.901 349.296 171.734 349.385 171.578C349.473 171.422 349.596 171.299 349.752 171.211C349.908 171.122 350.075 171.078 350.252 171.078C350.429 171.078 350.596 171.122 350.752 171.211C350.908 171.299 351.031 171.422 351.119 171.578C351.208 171.734 351.252 171.901 351.252 172.078C351.252 172.255 351.208 172.422 351.119 172.578C351.031 172.734 350.908 172.859 350.752 172.953C350.596 173.047 350.429 173.094 350.252 173.094Z" fill="black"/>
</svg>
