<svg width="205" height="88" viewBox="0 0 205 88" fill="none" xmlns="http://www.w3.org/2000/svg">
<path d="M0 10C0 4.47715 4.47715 0 10 0H177.71V78C177.71 83.5229 173.233 88 167.71 88H9.99999C4.47715 88 0 83.5229 0 78V10Z" fill="#EBEBEB"/>
<path d="M31.1562 29.5156H26.875V28.4844H31.1562V29.5156ZM31.1562 33.9062H26.875V32.8906H31.1562V33.9062ZM24.2969 26.4531C24.974 26.4531 25.5729 26.6536 26.0938 27.0547C26.6146 27.4557 27.0234 28.0208 27.3203 28.75C27.6172 29.4792 27.7656 30.3281 27.7656 31.2969C27.7656 32.2656 27.6172 33.1146 27.3203 33.8438C27.0234 34.5729 26.6146 35.1354 26.0938 35.5312C25.5729 35.9271 24.974 36.125 24.2969 36.125C23.6198 36.125 23.0182 35.9271 22.4922 35.5312C21.9661 35.1354 21.5547 34.5729 21.2578 33.8438C20.9609 33.1146 20.8125 32.2656 20.8125 31.2969C20.8125 30.3281 20.9609 29.4792 21.2578 28.75C21.5547 28.0208 21.9661 27.4557 22.4922 27.0547C23.0182 26.6536 23.6198 26.4531 24.2969 26.4531ZM24.2969 27.5469C23.849 27.5469 23.4479 27.7031 23.0938 28.0156C22.7396 28.3281 22.4661 28.7656 22.2734 29.3281C22.0807 29.8906 21.9844 30.5469 21.9844 31.2969C21.9844 32.0365 22.0807 32.6901 22.2734 33.2578C22.4661 33.8255 22.7396 34.263 23.0938 34.5703C23.4479 34.8776 23.849 35.0312 24.2969 35.0312C24.7448 35.0312 25.1458 34.8776 25.5 34.5703C25.8542 34.263 26.1276 33.8255 26.3203 33.2578C26.513 32.6901 26.6094 32.0365 26.6094 31.2969C26.6094 30.5469 26.513 29.8906 26.3203 29.3281C26.1276 28.7656 25.8568 28.3281 25.5078 28.0156C25.1589 27.7031 24.7552 27.5469 24.2969 27.5469ZM32.0781 39.2969H30.8594V25.375H32.0781V39.2969ZM45.3638 35.4844H44.1294V25.3906H45.3638V35.4844ZM41.3325 26.4375C41.3325 27.6146 41.0617 28.6953 40.52 29.6797C39.9783 30.6641 39.2075 31.5182 38.2075 32.2422C37.2075 32.9661 36.02 33.5417 34.645 33.9688L34.145 32.9688C35.3429 32.6042 36.382 32.1224 37.2622 31.5234C38.1424 30.9245 38.8195 30.237 39.2934 29.4609C39.7674 28.6849 40.0044 27.849 40.0044 26.9531V26.4375H41.3325ZM40.7231 27.4688H34.8794V26.4375H40.7231V27.4688ZM45.7388 38.9688H36.3169V37.9375H45.7388V38.9688ZM37.5513 38.3281H36.3169V34.6562H37.5513V38.3281ZM55.5756 28.3594C55.5756 29.1823 55.409 29.9609 55.0756 30.6953C54.7423 31.4297 54.2787 32.0677 53.685 32.6094C53.0912 33.151 52.409 33.5625 51.6381 33.8438L50.9975 32.8594C51.685 32.6094 52.2996 32.2552 52.8412 31.7969C53.3829 31.3385 53.8048 30.8125 54.1069 30.2188C54.409 29.625 54.56 29.0052 54.56 28.3594V26.9062H55.5756V28.3594ZM55.7944 28.3594C55.7944 28.974 55.9454 29.5625 56.2475 30.125C56.5496 30.6875 56.9715 31.1823 57.5131 31.6094C58.0548 32.0365 58.6694 32.3594 59.3569 32.5781L58.7319 33.5625C57.961 33.3021 57.2761 32.9141 56.6772 32.3984C56.0782 31.8828 55.6121 31.2786 55.2787 30.5859C54.9454 29.8932 54.7787 29.151 54.7787 28.3594V26.9062H55.7944V28.3594ZM58.9975 27.5469H51.31V26.5469H58.9975V27.5469ZM62.2631 35.5781H61.0444V25.3906H62.2631V35.5781ZM62.7006 38.9688H53.2944V37.9375H62.7006V38.9688ZM54.5131 38.3906H53.2944V34.6094H54.5131V38.3906ZM75.2206 39.2656H73.9863V25.375H75.2206V39.2656ZM77.1894 31.9531H74.6113V30.9062H77.1894V31.9531ZM67.0644 29.5625C67.0644 30.4375 66.9915 31.3047 66.8456 32.1641C66.6998 33.0234 66.455 33.8255 66.1113 34.5703C65.7675 35.3151 65.3144 35.9115 64.7519 36.3594L63.9394 35.4531C64.4706 35.0573 64.9003 34.5286 65.2284 33.8672C65.5566 33.2057 65.7909 32.5052 65.9316 31.7656C66.0722 31.026 66.1425 30.2917 66.1425 29.5625V27.4219H67.0644V29.5625ZM67.2988 29.5625C67.2988 30.2812 67.3534 31.0052 67.4628 31.7344C67.5722 32.4635 67.7805 33.1745 68.0878 33.8672C68.3951 34.5599 68.8248 35.125 69.3769 35.5625L68.6581 36.4688C68.0748 36.0104 67.6139 35.388 67.2753 34.6016C66.9368 33.8151 66.705 32.9896 66.58 32.125C66.455 31.2604 66.3925 30.4062 66.3925 29.5625V27.4219H67.2988V29.5625ZM70.9238 29.5625C70.9238 30.4479 70.8613 31.3229 70.7363 32.1875C70.6113 33.0521 70.3821 33.8698 70.0488 34.6406C69.7154 35.4115 69.2519 36.0208 68.6581 36.4688L67.9706 35.5625C68.5123 35.1354 68.9368 34.5833 69.2441 33.9062C69.5514 33.2292 69.7623 32.5208 69.8769 31.7812C69.9915 31.0417 70.0488 30.3021 70.0488 29.5625V27.4219H70.9238V29.5625ZM71.205 29.5625C71.205 30.3229 71.2727 31.0729 71.4081 31.8125C71.5435 32.5521 71.7753 33.2448 72.1034 33.8906C72.4316 34.5365 72.8665 35.0573 73.4081 35.4531L72.5956 36.3594C72.0331 35.9219 71.58 35.3333 71.2363 34.5938C70.8925 33.8542 70.6477 33.0547 70.5019 32.1953C70.356 31.3359 70.2831 30.4583 70.2831 29.5625V27.4219H71.205V29.5625ZM68.3613 27.8281H64.3925V26.7969H68.3613V27.8281ZM72.83 27.8281H68.9706V26.7969H72.83V27.8281ZM92.1825 34.8594H83.8387V38.7344H82.6044V33.9375H92.1825V34.8594ZM92.3387 39.1094H82.6044V38.1719H92.3387V39.1094ZM91.8544 36.9375H83.3856V36.0625H91.8544V36.9375ZM87.9481 34.2188H86.7294V32.0781H87.9481V34.2188ZM93.6825 32.4688H81.0262V31.4844H93.6825V32.4688ZM83.9325 27H90.8075V25.625H92.0262V30.3281H82.7137V25.625H83.9325V27ZM90.8075 29.3438V27.9531H83.9325V29.3438H90.8075ZM105.609 30.5781H96.0931V29.5938H105.609V30.5781ZM107.077 33.4688H94.3587V32.4688H107.077V33.4688ZM97.3119 30.0938H96.0931V25.8906H97.3119V30.0938ZM105.687 38.9219H96.015V37.9062H105.687V38.9219ZM97.2337 38.2031H96.015V34.8906H97.2337V38.2031ZM114.414 26.5469C115.019 26.5469 115.545 26.7422 115.993 27.1328C116.44 27.5234 116.789 28.0833 117.039 28.8125C117.289 29.5417 117.414 30.3958 117.414 31.375C117.414 32.3438 117.289 33.1927 117.039 33.9219C116.789 34.651 116.44 35.2135 115.993 35.6094C115.545 36.0052 115.019 36.2031 114.414 36.2031C113.821 36.2031 113.297 36.0052 112.844 35.6094C112.391 35.2135 112.042 34.651 111.797 33.9219C111.552 33.1927 111.43 32.3438 111.43 31.375C111.43 30.3958 111.552 29.5417 111.797 28.8125C112.042 28.0833 112.391 27.5234 112.844 27.1328C113.297 26.7422 113.821 26.5469 114.414 26.5469ZM114.414 27.7031C114.039 27.7031 113.714 27.8516 113.438 28.1484C113.162 28.4453 112.951 28.8698 112.805 29.4219C112.659 29.974 112.586 30.625 112.586 31.375C112.586 32.1146 112.659 32.7604 112.805 33.3125C112.951 33.8646 113.164 34.2891 113.446 34.5859C113.727 34.8828 114.05 35.0312 114.414 35.0312C114.789 35.0312 115.115 34.8828 115.391 34.5859C115.667 34.2891 115.881 33.8646 116.032 33.3125C116.183 32.7604 116.258 32.1146 116.258 31.375C116.258 30.625 116.183 29.974 116.032 29.4219C115.881 28.8698 115.667 28.4453 115.391 28.1484C115.115 27.8516 114.789 27.7031 114.414 27.7031ZM123.164 39.2656H121.977V25.375H123.164V39.2656ZM122.43 31.9062H119.711V30.8906H122.43V31.9062ZM120.039 38.5625H118.868V25.6719H120.039V38.5625ZM137.278 32.2031H124.606V31.2188H137.278V32.2031ZM135.762 30.0781H126.294V29.0781H135.762V30.0781ZM135.622 26.8438H127.528V29.8594H126.294V25.8594H135.622V26.8438ZM135.637 36.6719H127.387V38.4531H126.169V35.75H134.434V34.4062H126.137V33.4531H135.637V36.6719ZM136.059 39.1094H126.169V38.1094H136.059V39.1094ZM149.408 39.2969H148.173V25.375H149.408V39.2969ZM142.017 26.4531C142.704 26.4531 143.316 26.6536 143.853 27.0547C144.389 27.4557 144.809 28.0208 145.111 28.75C145.413 29.4792 145.564 30.3281 145.564 31.2969C145.564 32.2656 145.413 33.1146 145.111 33.8438C144.809 34.5729 144.389 35.1354 143.853 35.5312C143.316 35.9271 142.704 36.125 142.017 36.125C141.329 36.125 140.717 35.9271 140.181 35.5312C139.644 35.1354 139.225 34.5729 138.923 33.8438C138.621 33.1146 138.47 32.2656 138.47 31.2969C138.47 30.3281 138.621 29.4792 138.923 28.75C139.225 28.0208 139.644 27.4557 140.181 27.0547C140.717 26.6536 141.329 26.4531 142.017 26.4531ZM142.017 27.5469C141.559 27.5469 141.15 27.7031 140.79 28.0156C140.431 28.3281 140.152 28.7656 139.954 29.3281C139.756 29.8906 139.658 30.5469 139.658 31.2969C139.658 32.0365 139.756 32.6901 139.954 33.2578C140.152 33.8255 140.431 34.263 140.79 34.5703C141.15 34.8776 141.559 35.0312 142.017 35.0312C142.475 35.0312 142.884 34.8776 143.243 34.5703C143.603 34.263 143.881 33.8255 144.079 33.2578C144.277 32.6901 144.376 32.0365 144.376 31.2969C144.376 30.5469 144.277 29.8906 144.079 29.3281C143.881 28.7656 143.605 28.3281 143.251 28.0156C142.897 27.7031 142.486 27.5469 142.017 27.5469ZM31.3125 63.2969H30.0938V49.375H31.3125V63.2969ZM33.6406 55.9062H31.0312V54.875H33.6406V55.9062ZM22.2656 58.7812C23.6094 58.7812 24.7734 58.7448 25.7578 58.6719C26.7422 58.599 27.7396 58.4688 28.75 58.2812L28.9062 59.3438C27.8854 59.5312 26.8802 59.6562 25.8906 59.7188C24.901 59.7812 23.6927 59.8125 22.2656 59.8125H21.1719V58.7812H22.2656ZM27.6562 51.75H22.3906V59.25H21.1719V50.7344H27.6562V51.75ZM50.165 61.4844H37.4463V60.4531H50.165V61.4844ZM44.3681 60.75H43.165V56.8125H44.3681V60.75ZM48.5869 57.0625H38.9463V50.5469H48.5869V57.0625ZM40.1494 56.0781H47.3994V51.5312H40.1494V56.0781ZM61.3881 53.5156H57.1069V52.4844H61.3881V53.5156ZM61.3881 57.9062H57.1069V56.8906H61.3881V57.9062ZM54.5287 50.4531C55.2058 50.4531 55.8048 50.6536 56.3256 51.0547C56.8465 51.4557 57.2553 52.0208 57.5522 52.75C57.8491 53.4792 57.9975 54.3281 57.9975 55.2969C57.9975 56.2656 57.8491 57.1146 57.5522 57.8438C57.2553 58.5729 56.8465 59.1354 56.3256 59.5312C55.8048 59.9271 55.2058 60.125 54.5287 60.125C53.8517 60.125 53.2501 59.9271 52.7241 59.5312C52.198 59.1354 51.7866 58.5729 51.4897 57.8438C51.1928 57.1146 51.0444 56.2656 51.0444 55.2969C51.0444 54.3281 51.1928 53.4792 51.4897 52.75C51.7866 52.0208 52.198 51.4557 52.7241 51.0547C53.2501 50.6536 53.8517 50.4531 54.5287 50.4531ZM54.5287 51.5469C54.0808 51.5469 53.6798 51.7031 53.3256 52.0156C52.9715 52.3281 52.698 52.7656 52.5053 53.3281C52.3126 53.8906 52.2162 54.5469 52.2162 55.2969C52.2162 56.0365 52.3126 56.6901 52.5053 57.2578C52.698 57.8255 52.9715 58.263 53.3256 58.5703C53.6798 58.8776 54.0808 59.0312 54.5287 59.0312C54.9767 59.0312 55.3777 58.8776 55.7319 58.5703C56.086 58.263 56.3595 57.8255 56.5522 57.2578C56.7449 56.6901 56.8412 56.0365 56.8412 55.2969C56.8412 54.5469 56.7449 53.8906 56.5522 53.3281C56.3595 52.7656 56.0886 52.3281 55.7397 52.0156C55.3907 51.7031 54.9871 51.5469 54.5287 51.5469ZM62.31 63.2969H61.0912V49.375H62.31V63.2969ZM68.6269 58.7031C68.6269 59.3073 68.4993 59.8984 68.2441 60.4766C67.9889 61.0547 67.6243 61.5703 67.1503 62.0234C66.6764 62.4766 66.1113 62.8281 65.455 63.0781L64.83 62.1719C65.4029 61.9531 65.9003 61.6589 66.3222 61.2891C66.7441 60.9193 67.0722 60.5078 67.3066 60.0547C67.5409 59.6016 67.6581 59.151 67.6581 58.7031V57.9375H68.6269V58.7031ZM68.8456 58.7031C68.8456 59.1719 68.942 59.638 69.1347 60.1016C69.3274 60.5651 69.6139 60.9844 69.9941 61.3594C70.3743 61.7344 70.8352 62.0312 71.3769 62.25L70.8613 63.1875C70.2154 62.9375 69.6738 62.5781 69.2363 62.1094C68.7988 61.6406 68.4732 61.112 68.2597 60.5234C68.0461 59.9349 67.9394 59.3281 67.9394 58.7031V57.9375H68.8456V58.7031ZM73.7675 58.7031C73.7675 59.2656 73.6581 59.8411 73.4394 60.4297C73.2206 61.0182 72.8925 61.5573 72.455 62.0469C72.0175 62.5365 71.4863 62.9167 70.8613 63.1875L70.33 62.25C70.8613 62.0104 71.317 61.6901 71.6972 61.2891C72.0774 60.888 72.3639 60.4583 72.5566 60C72.7493 59.5417 72.8456 59.1094 72.8456 58.7031V57.9375H73.7675V58.7031ZM74.0488 58.7031C74.0488 59.1823 74.1633 59.6484 74.3925 60.1016C74.6217 60.5547 74.9498 60.9635 75.3769 61.3281C75.804 61.6927 76.304 61.974 76.8769 62.1719L76.2675 63.0781C75.6008 62.8385 75.0279 62.4974 74.5488 62.0547C74.0696 61.612 73.705 61.1016 73.455 60.5234C73.205 59.9453 73.08 59.3385 73.08 58.7031V57.9375H74.0488V58.7031ZM75.6113 57.3281H74.3925V49.3906H75.6113V57.3281ZM68.1113 50.2031C68.8092 50.2031 69.4342 50.3385 69.9863 50.6094C70.5383 50.8802 70.9706 51.263 71.2831 51.7578C71.5956 52.2526 71.7519 52.8177 71.7519 53.4531C71.7519 54.0781 71.5956 54.6354 71.2831 55.125C70.9706 55.6146 70.5383 55.9948 69.9863 56.2656C69.4342 56.5365 68.8092 56.6719 68.1113 56.6719C67.4133 56.6719 66.7883 56.5365 66.2363 56.2656C65.6842 55.9948 65.2519 55.6146 64.9394 55.125C64.6269 54.6354 64.4706 54.0781 64.4706 53.4531C64.4706 52.8177 64.6269 52.2526 64.9394 51.7578C65.2519 51.263 65.6842 50.8802 66.2363 50.6094C66.7883 50.3385 67.4133 50.2031 68.1113 50.2031ZM68.1113 51.25C67.6425 51.2396 67.2232 51.3281 66.8534 51.5156C66.4836 51.7031 66.1946 51.9661 65.9863 52.3047C65.7779 52.6432 65.6738 53.026 65.6738 53.4531C65.6738 53.8698 65.7779 54.2448 65.9863 54.5781C66.1946 54.9115 66.4836 55.1719 66.8534 55.3594C67.2232 55.5469 67.6425 55.6458 68.1113 55.6562C68.58 55.6458 68.9993 55.5469 69.3691 55.3594C69.7389 55.1719 70.0279 54.9115 70.2363 54.5781C70.4446 54.2448 70.5488 53.8698 70.5488 53.4531C70.5488 53.026 70.4446 52.6432 70.2363 52.3047C70.0279 51.9661 69.7389 51.7031 69.3691 51.5156C68.9993 51.3281 68.58 51.2396 68.1113 51.25ZM81.225 50.4531C81.9021 50.4531 82.501 50.6536 83.0219 51.0547C83.5427 51.4557 83.9516 52.0208 84.2484 52.75C84.5453 53.4792 84.6937 54.3281 84.6937 55.2969C84.6937 56.2656 84.5453 57.1146 84.2484 57.8438C83.9516 58.5729 83.5427 59.1354 83.0219 59.5312C82.501 59.9271 81.9021 60.125 81.225 60.125C80.5479 60.125 79.9464 59.9271 79.4203 59.5312C78.8943 59.1354 78.4828 58.5729 78.1859 57.8438C77.8891 57.1146 77.7406 56.2656 77.7406 55.2969C77.7406 54.3281 77.8891 53.4792 78.1859 52.75C78.4828 52.0208 78.8943 51.4557 79.4203 51.0547C79.9464 50.6536 80.5479 50.4531 81.225 50.4531ZM81.225 51.5469C80.7771 51.5469 80.376 51.7031 80.0219 52.0156C79.6677 52.3281 79.3943 52.7656 79.2016 53.3281C79.0089 53.8906 78.9125 54.5469 78.9125 55.2969C78.9125 56.0365 79.0089 56.6901 79.2016 57.2578C79.3943 57.8255 79.6677 58.263 80.0219 58.5703C80.376 58.8776 80.7771 59.0312 81.225 59.0312C81.6729 59.0312 82.074 58.8776 82.4281 58.5703C82.7823 58.263 83.0557 57.8255 83.2484 57.2578C83.4411 56.6901 83.5375 56.0365 83.5375 55.2969C83.5375 54.5469 83.4411 53.8906 83.2484 53.3281C83.0557 52.7656 82.7849 52.3281 82.4359 52.0156C82.087 51.7031 81.6833 51.5469 81.225 51.5469ZM89.0062 63.2969H87.7875V49.375H89.0062V63.2969ZM88.3344 55.7031H84.2875V54.6875H88.3344V55.7031ZM95.1981 60.7031H93.995V56.5469H95.1981V60.7031ZM100.401 60.7031H99.1669V56.5469H100.401V60.7031ZM103.558 61.4844H90.8388V60.4531H103.558V61.4844ZM97.1669 50.25C98.1565 50.25 99.0341 50.3984 99.7997 50.6953C100.565 50.9922 101.164 51.4115 101.597 51.9531C102.029 52.4948 102.245 53.1198 102.245 53.8281C102.245 54.5365 102.029 55.1589 101.597 55.6953C101.164 56.2318 100.565 56.6484 99.7997 56.9453C99.0341 57.2422 98.1565 57.3906 97.1669 57.3906C96.1877 57.3906 95.3127 57.2422 94.5419 56.9453C93.771 56.6484 93.1695 56.2318 92.7372 55.6953C92.3049 55.1589 92.0888 54.5365 92.0888 53.8281C92.0888 53.1198 92.3049 52.4948 92.7372 51.9531C93.1695 51.4115 93.771 50.9922 94.5419 50.6953C95.3127 50.3984 96.1877 50.25 97.1669 50.25ZM97.1669 51.2656C96.4169 51.2552 95.7476 51.3568 95.1591 51.5703C94.5705 51.7839 94.1096 52.0859 93.7763 52.4766C93.4429 52.8672 93.2763 53.3177 93.2763 53.8281C93.2763 54.3385 93.4429 54.7891 93.7763 55.1797C94.1096 55.5703 94.5705 55.875 95.1591 56.0938C95.7476 56.3125 96.4169 56.4219 97.1669 56.4219C97.9169 56.4219 98.5861 56.3125 99.1747 56.0938C99.7632 55.875 100.224 55.5703 100.558 55.1797C100.891 54.7891 101.058 54.3385 101.058 53.8281C101.058 53.3177 100.891 52.8672 100.558 52.4766C100.224 52.0859 99.7632 51.7839 99.1747 51.5703C98.5861 51.3568 97.9169 51.2552 97.1669 51.2656Z" fill="black"/>
<path d="M204.419 0L177.71 -2.33504e-06L177.71 15L204.419 0Z" fill="#EBEBEB"/>
</svg>
