<svg width="1696" height="373" viewBox="0 0 1696 373" fill="none" xmlns="http://www.w3.org/2000/svg">
<path d="M162 3.1998L110 144.8H87.8L86.4 28.7998H86L44.2 144.8H22.2L19.4 3.1998H37L37.6 122.4H38.2L81 3.1998H101.2L103.2 122.4H103.6L145.2 3.1998H162ZM231.456 3.1998L228.856 18.3998H187.656L179.656 64.1998H218.856L216.256 78.3998H177.256L168.456 129.4H212.856L210.256 144.8H149.256L173.856 3.1998H231.456ZM357.964 16.5998L345.164 28.1998C340.564 19.9998 333.764 15.7998 324.364 15.7998C296.364 15.7998 279.964 60.9998 279.964 94.3998C279.964 116.4 287.564 132.4 304.564 132.4C316.364 132.4 324.564 125 329.564 119L338.764 130.2C329.164 141.2 317.564 148.2 301.364 148.2C275.764 148.2 261.764 126 261.764 95.1998C261.764 48.3998 288.164 -0.000202656 326.364 -0.000202656C340.564 -0.000202656 351.964 5.5998 357.964 16.5998ZM423.723 144.8H406.323L404.923 111.2H362.923L348.123 144.8H330.523L394.123 3.1998H416.723L423.723 144.8ZM405.123 97.5998L402.723 19.1998H401.923L368.123 97.5998H405.123ZM542.613 3.1998L518.013 144.8H497.813L471.013 33.3998H470.413L451.213 144.8H435.413L460.013 3.1998H480.612L506.613 114.8H507.213L526.813 3.1998H542.613ZM687.194 144.8H670.194L690.794 27.5998H690.194L637.994 144.8H621.794L611.194 27.5998H610.594L589.994 144.8H574.194L599.194 3.1998H624.394L634.594 115.6H635.394L685.194 3.1998H712.194L687.194 144.8ZM790.934 144.8H773.534L772.134 111.2H730.134L715.334 144.8H697.734L761.334 3.1998H783.934L790.934 144.8ZM772.334 97.5998L769.934 19.1998H769.134L735.334 97.5998H772.334ZM905.823 3.1998L848.223 70.1998L884.223 144.8H865.023L832.223 73.3998H831.823L819.423 144.8H802.623L827.223 3.1998H844.023L833.023 66.3998H833.423L885.823 3.1998H905.823ZM977.261 3.1998L974.661 18.3998H933.461L925.461 64.1998H964.661L962.061 78.3998H923.061L914.261 129.4H958.661L956.061 144.8H895.061L919.661 3.1998H977.261ZM34.6 326.6C30.8667 326.6 26.8667 326.2 22.6 325.4C18.4667 324.6 14.5333 323.533 10.8 322.2C7.2 320.733 4.33333 319.066 2.2 317.2C1.53333 316.533 1.06667 315.866 0.8 315.2C0.666667 314.533 0.733333 313.533 1 312.2L6.6 280.8C7 278.4 8.06667 277.2 9.8 277.2C11.4 277.2 12.2 278.533 12.2 281.2L12.4 289C12.6667 300.2 14.6 308.266 18.2 313.2C21.8 318.133 27.6667 320.6 35.8 320.6C43.2667 320.6 49.4667 317.933 54.4 312.6C59.3333 307.133 61.8 299.866 61.8 290.8C61.8 284.933 60.2 278.8 57 272.4C53.8 266 49.3333 259.6 43.6 253.2C36.8 245.6 31.7333 238.666 28.4 232.4C25.2 226.133 23.6 219.533 23.6 212.6C23.6 207.133 24.9333 201.866 27.6 196.8C30.2667 191.6 34.2667 187.333 39.6 184C45.0667 180.533 52 178.8 60.4 178.8C72 178.8 80.8667 181.4 87 186.6C88.8667 188.066 89.5333 190.266 89 193.2L83.4 222.4C83 224.4 82.0667 225.4 80.6 225.4C79.1333 225.4 78.2667 224.266 78 222L77.8 217.8C77.2667 207 75.7333 198.8 73.2 193.2C70.8 187.466 65.9333 184.6 58.6 184.6C53.2667 184.6 49 185.8 45.8 188.2C42.6 190.6 40.2667 193.6 38.8 197.2C37.3333 200.666 36.6 204.133 36.6 207.6C36.6 211.466 37.1333 215.2 38.2 218.8C39.2667 222.266 41.0667 226 43.6 230C46.2667 233.866 49.8667 238.6 54.4 244.2C60.8 251.8 65.8 259.066 69.4 266C73 272.933 74.8 279.666 74.8 286.2C74.8 294.066 73 301.066 69.4 307.2C65.9333 313.2 61.2 317.933 55.2 321.4C49.2 324.866 42.3333 326.6 34.6 326.6ZM120.641 326.6C113.441 326.6 107.307 324.933 102.241 321.6C97.174 318.133 93.574 313.4 91.4406 307.4C89.4406 301.266 89.374 294.266 91.2406 286.4L112.641 194C113.307 191.2 113.307 189.333 112.641 188.4C111.974 187.466 110.307 186.733 107.641 186.2L103.641 185.4C101.907 185 101.041 184.266 101.041 183.2C101.041 181.6 102.241 180.8 104.641 180.8H140.641C142.507 180.8 143.441 181.466 143.441 182.8C143.441 184.266 142.507 185.133 140.641 185.4L135.041 186.2C132.241 186.6 130.241 187.333 129.041 188.4C127.974 189.466 127.107 191.4 126.441 194.2L105.041 286.6C102.641 296.733 103.307 304.6 107.041 310.2C110.907 315.8 116.841 318.6 124.841 318.6C133.507 318.6 140.507 315.8 145.841 310.2C151.174 304.6 154.974 296.733 157.241 286.6L177.641 198.2C179.374 190.733 178.041 186.733 173.641 186.2L169.241 185.6C167.374 185.333 166.441 184.533 166.441 183.2C166.441 182.4 166.841 181.8 167.641 181.4C168.441 181 169.307 180.8 170.241 180.8H199.041C200.774 180.8 201.641 181.466 201.641 182.8C201.641 184.133 200.574 185 198.441 185.4L193.641 186.2C188.974 187 185.774 190.933 184.041 198L163.641 286.4C160.841 298.533 155.774 308.266 148.441 315.6C141.107 322.933 131.841 326.6 120.641 326.6ZM225.919 326.6C211.785 326.6 201.519 322.133 195.119 313.2C188.852 304.266 185.719 291.333 185.719 274.4C185.719 266.266 186.719 257.8 188.719 249C190.719 240.2 193.585 231.666 197.319 223.4C201.185 215 205.785 207.466 211.119 200.8C216.452 194.133 222.452 188.8 229.119 184.8C235.919 180.8 243.252 178.8 251.119 178.8C260.452 178.8 268.919 181.933 276.519 188.2C277.852 189.266 278.319 190.733 277.919 192.6L271.919 222.8C271.519 224.933 270.519 226 268.919 226C267.319 226 266.519 224.933 266.519 222.8L266.319 215C266.052 203.933 264.452 196.066 261.519 191.4C258.585 186.733 254.385 184.4 248.919 184.4C243.719 184.4 238.719 186.533 233.919 190.8C229.119 194.933 224.652 200.533 220.519 207.6C216.385 214.533 212.719 222.266 209.519 230.8C206.452 239.2 204.052 247.666 202.319 256.2C200.585 264.733 199.719 272.666 199.719 280C199.719 292 201.519 301.8 205.119 309.4C208.852 317 214.985 320.8 223.519 320.8C228.585 320.8 233.052 319 236.919 315.4C240.919 311.666 244.985 305.333 249.119 296.4L253.519 287C254.185 285.4 255.185 284.6 256.519 284.6C258.652 284.6 259.385 285.866 258.719 288.4L250.719 319.6C250.185 321.6 249.119 322.8 247.519 323.2C245.252 324 241.985 324.733 237.719 325.4C233.452 326.2 229.519 326.6 225.919 326.6ZM312.497 326.6C298.364 326.6 288.097 322.133 281.697 313.2C275.43 304.266 272.297 291.333 272.297 274.4C272.297 266.266 273.297 257.8 275.297 249C277.297 240.2 280.164 231.666 283.897 223.4C287.764 215 292.364 207.466 297.697 200.8C303.03 194.133 309.03 188.8 315.697 184.8C322.497 180.8 329.83 178.8 337.697 178.8C347.03 178.8 355.497 181.933 363.097 188.2C364.43 189.266 364.897 190.733 364.497 192.6L358.497 222.8C358.097 224.933 357.097 226 355.497 226C353.897 226 353.097 224.933 353.097 222.8L352.897 215C352.63 203.933 351.03 196.066 348.097 191.4C345.164 186.733 340.964 184.4 335.497 184.4C330.297 184.4 325.297 186.533 320.497 190.8C315.697 194.933 311.23 200.533 307.097 207.6C302.964 214.533 299.297 222.266 296.097 230.8C293.03 239.2 290.63 247.666 288.897 256.2C287.164 264.733 286.297 272.666 286.297 280C286.297 292 288.097 301.8 291.697 309.4C295.43 317 301.564 320.8 310.097 320.8C315.164 320.8 319.63 319 323.497 315.4C327.497 311.666 331.564 305.333 335.697 296.4L340.097 287C340.764 285.4 341.764 284.6 343.097 284.6C345.23 284.6 345.964 285.866 345.297 288.4L337.297 319.6C336.764 321.6 335.697 322.8 334.097 323.2C331.83 324 328.564 324.733 324.297 325.4C320.03 326.2 316.097 326.6 312.497 326.6ZM345.819 324.8C343.952 324.8 343.019 324.133 343.019 322.8C343.019 321.333 344.352 320.4 347.019 320L351.019 319.4C353.952 319 355.952 318.333 357.019 317.4C358.219 316.333 359.085 314.4 359.619 311.6L386.819 194C387.485 191.2 387.485 189.333 386.819 188.4C386.152 187.466 384.485 186.733 381.819 186.2L377.819 185.4C376.085 185 375.219 184.266 375.219 183.2C375.219 181.6 376.419 180.8 378.819 180.8H445.619C449.085 180.8 450.485 182.333 449.819 185.4L443.619 218.6C443.219 220.866 442.152 222 440.419 222C438.552 222 437.752 221.133 438.019 219.4L438.619 212.4C439.285 205.6 438.685 200.266 436.819 196.4C435.085 192.533 432.419 189.8 428.819 188.2C425.352 186.6 421.285 185.8 416.619 185.8C411.285 185.8 407.419 186.6 405.019 188.2C402.619 189.666 400.952 192.333 400.019 196.2L389.019 244.4C388.619 246.266 389.352 247.2 391.219 247.2H401.419C407.285 247.2 411.552 244.066 414.219 237.8L418.619 227.8C419.285 226.066 420.352 225.2 421.819 225.2C422.619 225.2 423.219 225.533 423.619 226.2C424.152 226.733 424.285 227.533 424.019 228.6L413.619 273.6C412.952 275.866 411.819 277 410.219 277C408.619 277 407.819 276.133 407.819 274.4L408.019 264.6C408.152 259.933 407.552 256.866 406.219 255.4C405.019 253.933 402.885 253.2 399.819 253.2H389.819C387.819 253.2 386.619 254.133 386.219 256L374.619 306.2C373.552 311 374.019 314.466 376.019 316.6C378.019 318.733 382.285 319.8 388.819 319.8C392.819 319.8 396.752 319.2 400.619 318C404.619 316.666 408.352 314.2 411.819 310.6C415.419 307 418.685 301.8 421.619 295L426.419 283.8C427.085 282.066 428.152 281.2 429.619 281.2C431.619 281.2 432.285 282.333 431.619 284.6L421.419 320.2C420.619 323.266 418.619 324.8 415.419 324.8H345.819ZM469.639 326.6C465.906 326.6 461.906 326.2 457.639 325.4C453.506 324.6 449.572 323.533 445.839 322.2C442.239 320.733 439.372 319.066 437.239 317.2C436.572 316.533 436.106 315.866 435.839 315.2C435.706 314.533 435.772 313.533 436.039 312.2L441.639 280.8C442.039 278.4 443.106 277.2 444.839 277.2C446.439 277.2 447.239 278.533 447.239 281.2L447.439 289C447.706 300.2 449.639 308.266 453.239 313.2C456.839 318.133 462.706 320.6 470.839 320.6C478.306 320.6 484.506 317.933 489.439 312.6C494.372 307.133 496.839 299.866 496.839 290.8C496.839 284.933 495.239 278.8 492.039 272.4C488.839 266 484.372 259.6 478.639 253.2C471.839 245.6 466.772 238.666 463.439 232.4C460.239 226.133 458.639 219.533 458.639 212.6C458.639 207.133 459.972 201.866 462.639 196.8C465.306 191.6 469.306 187.333 474.639 184C480.106 180.533 487.039 178.8 495.439 178.8C507.039 178.8 515.906 181.4 522.039 186.6C523.906 188.066 524.572 190.266 524.039 193.2L518.439 222.4C518.039 224.4 517.106 225.4 515.639 225.4C514.172 225.4 513.306 224.266 513.039 222L512.839 217.8C512.306 207 510.772 198.8 508.239 193.2C505.839 187.466 500.972 184.6 493.639 184.6C488.306 184.6 484.039 185.8 480.839 188.2C477.639 190.6 475.306 193.6 473.839 197.2C472.372 200.666 471.639 204.133 471.639 207.6C471.639 211.466 472.172 215.2 473.239 218.8C474.306 222.266 476.106 226 478.639 230C481.306 233.866 484.906 238.6 489.439 244.2C495.839 251.8 500.839 259.066 504.439 266C508.039 272.933 509.839 279.666 509.839 286.2C509.839 294.066 508.039 301.066 504.439 307.2C500.972 313.2 496.239 317.933 490.239 321.4C484.239 324.866 477.372 326.6 469.639 326.6ZM548.405 326.6C544.671 326.6 540.671 326.2 536.405 325.4C532.271 324.6 528.338 323.533 524.605 322.2C521.005 320.733 518.138 319.066 516.005 317.2C515.338 316.533 514.871 315.866 514.605 315.2C514.471 314.533 514.538 313.533 514.805 312.2L520.405 280.8C520.805 278.4 521.871 277.2 523.605 277.2C525.205 277.2 526.005 278.533 526.005 281.2L526.205 289C526.471 300.2 528.405 308.266 532.005 313.2C535.605 318.133 541.471 320.6 549.605 320.6C557.071 320.6 563.271 317.933 568.205 312.6C573.138 307.133 575.605 299.866 575.605 290.8C575.605 284.933 574.005 278.8 570.805 272.4C567.605 266 563.138 259.6 557.405 253.2C550.605 245.6 545.538 238.666 542.205 232.4C539.005 226.133 537.405 219.533 537.405 212.6C537.405 207.133 538.738 201.866 541.405 196.8C544.071 191.6 548.071 187.333 553.405 184C558.871 180.533 565.805 178.8 574.205 178.8C585.805 178.8 594.671 181.4 600.805 186.6C602.671 188.066 603.338 190.266 602.805 193.2L597.205 222.4C596.805 224.4 595.871 225.4 594.405 225.4C592.938 225.4 592.071 224.266 591.805 222L591.605 217.8C591.071 207 589.538 198.8 587.005 193.2C584.605 187.466 579.738 184.6 572.405 184.6C567.071 184.6 562.805 185.8 559.605 188.2C556.405 190.6 554.071 193.6 552.605 197.2C551.138 200.666 550.405 204.133 550.405 207.6C550.405 211.466 550.938 215.2 552.005 218.8C553.071 222.266 554.871 226 557.405 230C560.071 233.866 563.671 238.6 568.205 244.2C574.605 251.8 579.605 259.066 583.205 266C586.805 272.933 588.605 279.666 588.605 286.2C588.605 294.066 586.805 301.066 583.205 307.2C579.738 313.2 575.005 317.933 569.005 321.4C563.005 324.866 556.138 326.6 548.405 326.6ZM655.155 326.6C651.421 326.6 647.421 326.2 643.155 325.4C639.021 324.6 635.088 323.533 631.355 322.2C627.755 320.733 624.888 319.066 622.755 317.2C622.088 316.533 621.621 315.866 621.355 315.2C621.221 314.533 621.288 313.533 621.555 312.2L627.155 280.8C627.555 278.4 628.621 277.2 630.355 277.2C631.955 277.2 632.755 278.533 632.755 281.2L632.955 289C633.221 300.2 635.155 308.266 638.755 313.2C642.355 318.133 648.221 320.6 656.355 320.6C663.821 320.6 670.021 317.933 674.955 312.6C679.888 307.133 682.355 299.866 682.355 290.8C682.355 284.933 680.755 278.8 677.555 272.4C674.355 266 669.888 259.6 664.155 253.2C657.355 245.6 652.288 238.666 648.955 232.4C645.755 226.133 644.155 219.533 644.155 212.6C644.155 207.133 645.488 201.866 648.155 196.8C650.821 191.6 654.821 187.333 660.155 184C665.621 180.533 672.555 178.8 680.955 178.8C692.555 178.8 701.421 181.4 707.555 186.6C709.421 188.066 710.088 190.266 709.555 193.2L703.955 222.4C703.555 224.4 702.621 225.4 701.155 225.4C699.688 225.4 698.821 224.266 698.555 222L698.355 217.8C697.821 207 696.288 198.8 693.755 193.2C691.355 187.466 686.488 184.6 679.155 184.6C673.821 184.6 669.555 185.8 666.355 188.2C663.155 190.6 660.821 193.6 659.355 197.2C657.888 200.666 657.155 204.133 657.155 207.6C657.155 211.466 657.688 215.2 658.755 218.8C659.821 222.266 661.621 226 664.155 230C666.821 233.866 670.421 238.6 674.955 244.2C681.355 251.8 686.355 259.066 689.955 266C693.555 272.933 695.355 279.666 695.355 286.2C695.355 294.066 693.555 301.066 689.955 307.2C686.488 313.2 681.755 317.933 675.755 321.4C669.755 324.866 662.888 326.6 655.155 326.6ZM710.758 324.8C708.891 324.8 707.958 324.133 707.958 322.8C707.958 321.466 709.024 320.6 711.158 320.2L719.558 318.8C722.224 318.4 724.224 317.733 725.558 316.8C726.891 315.733 727.824 313.8 728.358 311L756.158 191C756.558 189.133 756.358 187.8 755.558 187C754.891 186.2 753.291 185.8 750.758 185.8C746.224 185.8 741.224 187.666 735.758 191.4C730.424 195 725.624 201.8 721.358 211.8L718.158 219.4C717.491 221.133 716.358 222 714.758 222C712.891 222 712.291 220.866 712.958 218.6L722.958 182.4C723.758 179.333 725.224 177.8 727.358 177.8C728.558 177.8 729.491 178.066 730.158 178.6C730.958 179 732.224 179.466 733.958 180C735.691 180.533 738.691 180.8 742.958 180.8H787.558C791.824 180.8 794.958 180.533 796.958 180C799.091 179.466 800.624 179 801.558 178.6C802.624 178.066 803.558 177.8 804.358 177.8C806.624 177.8 807.424 179.333 806.758 182.4L800.358 218.6C799.958 220.866 798.824 222 796.958 222C795.224 222 794.491 221.133 794.758 219.4L795.158 214.4C795.958 204.533 794.691 197.333 791.358 192.8C788.024 188.133 783.358 185.8 777.358 185.8C774.824 185.8 773.024 186.2 771.958 187C771.024 187.8 770.358 189.133 769.958 191L742.158 311C741.491 313.8 741.558 315.733 742.358 316.8C743.291 317.733 745.024 318.4 747.558 318.8L756.958 320.2C758.424 320.333 759.158 321.066 759.158 322.4C759.158 324 758.091 324.8 755.958 324.8H710.758ZM826.983 326.6C816.583 326.6 808.316 322.333 802.183 313.8C796.183 305.266 793.183 292.733 793.183 276.2C793.183 266.333 794.316 256.666 796.583 247.2C798.849 237.733 801.983 228.933 805.983 220.8C809.983 212.533 814.583 205.266 819.783 199C825.116 192.6 830.783 187.666 836.783 184.2C842.916 180.6 849.183 178.8 855.583 178.8C865.983 178.8 874.183 183.066 880.183 191.6C886.316 200 889.383 212.533 889.383 229.2C889.383 239.066 888.249 248.733 885.983 258.2C883.716 267.666 880.583 276.533 876.583 284.8C872.583 292.933 867.916 300.2 862.583 306.6C857.383 312.866 851.716 317.8 845.583 321.4C839.583 324.866 833.383 326.6 826.983 326.6ZM826.583 321.4C831.516 321.4 836.316 319.466 840.983 315.6C845.783 311.6 850.249 306.2 854.383 299.4C858.649 292.466 862.383 284.533 865.583 275.6C868.783 266.533 871.249 256.933 872.983 246.8C874.849 236.666 875.783 226.4 875.783 216C875.783 194.666 869.183 184 855.983 184C851.049 184 846.183 186 841.383 190C836.716 193.866 832.249 199.266 827.983 206.2C823.849 213 820.183 220.933 816.983 230C813.783 238.933 811.249 248.466 809.383 258.6C807.649 268.733 806.783 279 806.783 289.4C806.783 310.733 813.383 321.4 826.583 321.4ZM962.838 326.6C957.238 326.6 952.638 324.6 949.038 320.6C945.571 316.6 943.904 311 944.038 303.8L944.238 281.6C944.371 274.4 943.971 268.933 943.038 265.2C942.104 261.466 940.371 258.933 937.838 257.6C935.304 256.266 931.571 255.6 926.638 255.6C923.704 255.6 921.504 256.133 920.038 257.2C918.704 258.266 917.771 259.933 917.238 262.2L905.638 310.8C904.971 313.6 905.038 315.533 905.838 316.6C906.638 317.666 908.704 318.466 912.038 319L920.838 320.2C922.704 320.333 923.638 321.066 923.638 322.4C923.638 324 922.571 324.8 920.438 324.8H878.037C876.171 324.8 875.237 324.133 875.237 322.8C875.237 321.333 876.571 320.4 879.237 320L883.238 319.4C886.171 319 888.171 318.333 889.238 317.4C890.438 316.333 891.304 314.4 891.838 311.6L919.038 194C919.704 191.2 919.704 189.333 919.038 188.4C918.371 187.466 916.704 186.733 914.038 186.2L910.038 185.4C908.304 185 907.438 184.266 907.438 183.2C907.438 181.6 908.638 180.8 911.038 180.8H951.638C959.504 180.8 966.038 182.2 971.238 185C976.438 187.8 980.304 191.533 982.838 196.2C985.504 200.866 986.838 206 986.838 211.6C986.838 218.666 985.038 225.066 981.438 230.8C977.838 236.533 973.104 241.4 967.238 245.4C961.504 249.266 955.304 252.133 948.638 254C947.838 254.133 947.371 254.533 947.238 255.2C947.238 255.733 947.638 256.2 948.438 256.6C952.171 258.6 954.704 261.4 956.038 265C957.371 268.6 958.038 273.4 958.038 279.4V299.8C958.038 307.133 958.838 312.2 960.438 315C962.038 317.666 964.238 319 967.038 319C968.104 319 969.038 318.866 969.838 318.6C970.638 318.2 971.704 317.533 973.038 316.6C974.104 315.666 975.038 315.4 975.838 315.8C976.771 316.2 977.238 316.933 977.238 318C977.238 319.866 975.838 321.8 973.038 323.8C970.238 325.666 966.838 326.6 962.838 326.6ZM933.638 250.6C940.304 250.6 946.571 248.8 952.438 245.2C958.304 241.6 963.038 236.733 966.638 230.6C970.371 224.466 972.238 217.6 972.238 210C972.238 202.533 970.371 196.666 966.638 192.4C963.038 188 956.704 185.8 947.638 185.8C939.104 185.8 934.171 188.466 932.838 193.8L922.238 239.6C920.504 246.933 924.304 250.6 933.638 250.6ZM990.052 324.8C988.185 324.8 987.252 324.133 987.252 322.8C987.252 321.333 988.252 320.466 990.252 320.2L999.652 318.8C1002.32 318.4 1004.32 317.733 1005.65 316.8C1006.98 315.733 1007.92 313.8 1008.45 311L1019.25 263.8C1019.65 262.2 1019.78 260.733 1019.65 259.4C1019.65 258.066 1019.45 256.666 1019.05 255.2L1003.85 193.6C1003.32 191.333 1002.58 189.6 1001.65 188.4C1000.85 187.2 999.385 186.333 997.252 185.8L995.652 185.4C994.052 185 993.252 184.2 993.252 183C993.252 181.533 994.452 180.8 996.852 180.8H1029.85C1031.58 180.8 1032.45 181.466 1032.45 182.8C1032.45 184.4 1031.12 185.266 1028.45 185.4L1024.45 185.8C1022.18 185.933 1020.45 186.666 1019.25 188C1018.05 189.333 1017.78 191.4 1018.45 194.2L1031.05 247.2C1031.32 248.133 1031.78 248.666 1032.45 248.8C1033.25 248.8 1033.98 248.333 1034.65 247.4L1070.05 198.4C1072.58 194.933 1073.65 192.133 1073.25 190C1072.98 187.733 1071.32 186.4 1068.25 186L1064.05 185.4C1062.18 185.133 1061.25 184.333 1061.25 183C1061.25 181.533 1062.32 180.8 1064.45 180.8H1093.25C1095.12 180.8 1096.05 181.4 1096.05 182.6C1096.05 184.066 1094.92 185 1092.65 185.4L1090.45 185.8C1088.58 186.066 1086.72 187.2 1084.85 189.2C1082.98 191.066 1080.45 194.2 1077.25 198.6L1038.85 251.2C1037.52 253.066 1036.38 254.866 1035.45 256.6C1034.65 258.2 1033.98 260.066 1033.45 262.2L1022.25 311C1021.72 313.8 1021.78 315.666 1022.45 316.6C1023.25 317.533 1024.92 318.266 1027.45 318.8L1035.25 320.2C1037.25 320.6 1038.25 321.333 1038.25 322.4C1038.25 324 1037.05 324.8 1034.65 324.8H990.052ZM1187.27 183.2L1184.47 198.8H1142.67L1134.47 245.4H1173.47L1170.87 260.4H1132.07L1120.87 324.8H1103.87L1128.47 183.2H1187.27ZM1282.36 232.6C1282.36 278.2 1258.36 328.2 1221.36 328.2C1195.96 328.2 1181.76 307.2 1181.76 276.4C1181.76 231 1204.56 180 1242.76 180C1268.96 180 1282.36 201.6 1282.36 232.6ZM1263.76 235.2C1263.76 215.8 1260.56 195.4 1241.76 195.4C1214.96 195.4 1199.96 244.4 1199.96 277.4C1199.96 296.6 1205.96 312.4 1222.56 312.4C1247.96 312.4 1263.76 269 1263.76 235.2ZM1378.2 215.4C1378.2 238.4 1365.2 254.6 1347 259L1365.8 324.8H1347.8L1331 261.2H1314.2L1303.2 324.8H1286.4L1311 183.2H1343.6C1365.6 183.2 1378.2 193.8 1378.2 215.4ZM1361.6 217.6C1361.6 203.6 1353 197.8 1341.4 197.8H1325.2L1316.6 247.8H1333.6C1349.6 247.8 1361.6 236 1361.6 217.6ZM1498.49 183.2L1448.09 267.8L1438.29 324.8H1421.29L1431.09 267.8L1410.69 183.2H1428.89L1442.09 250.2H1442.49L1479.49 183.2H1498.49ZM1585.5 232.6C1585.5 278.2 1561.5 328.2 1524.5 328.2C1499.1 328.2 1484.9 307.2 1484.9 276.4C1484.9 231 1507.7 180 1545.9 180C1572.1 180 1585.5 201.6 1585.5 232.6ZM1566.9 235.2C1566.9 215.8 1563.7 195.4 1544.9 195.4C1518.1 195.4 1503.1 244.4 1503.1 277.4C1503.1 296.6 1509.1 312.4 1525.7 312.4C1551.1 312.4 1566.9 269 1566.9 235.2ZM1695.75 183.2L1679.55 276C1674.55 304.8 1661.95 328.2 1630.75 328.2C1605.55 328.2 1594.55 312 1594.55 291.2C1594.55 286.8 1594.95 281.8 1595.95 276L1612.15 183.2H1629.35L1613.35 274.2C1612.55 279 1611.95 284 1611.95 288.6C1611.95 301.4 1616.35 312.4 1631.75 312.4C1652.15 312.4 1659.15 293.6 1662.55 274.2L1678.55 183.2H1695.75Z" fill="black"/>
<path d="M0 364.6H1065.36V372.2H0V364.6Z" fill="black"/>
</svg>
