<svg width="186" height="64" viewBox="0 0 186 64" fill="none" xmlns="http://www.w3.org/2000/svg">
<path d="M20 10C20 4.47715 24.4772 0 30 0H176C181.523 0 186 4.47715 186 10V54C186 59.5228 181.523 64 176 64H20V10Z" fill="white"/>
<path d="M52.2109 39.3594H50.7188V25.3203H52.2109V39.3594ZM51.1875 31.0703H46.5391V29.8516H51.1875V31.0703ZM42.7578 35.5625H41.2734V26.8672H42.7578V35.5625ZM42.375 34.75C43.5573 34.7448 44.651 34.7005 45.6562 34.6172C46.6615 34.5286 47.6719 34.3854 48.6875 34.1875L48.8594 35.4062C47.8021 35.6198 46.7578 35.7708 45.7266 35.8594C44.6953 35.9479 43.5781 35.9922 42.375 35.9922H41.2734V34.75H42.375ZM61.0869 26.375C61.7744 26.375 62.3838 26.5781 62.915 26.9844C63.4515 27.3906 63.8707 27.9635 64.1728 28.7031C64.4749 29.4427 64.6259 30.3047 64.6259 31.2891C64.6259 32.2786 64.4749 33.1432 64.1728 33.8828C63.8707 34.6224 63.4515 35.1953 62.915 35.6016C62.3838 36.0026 61.7744 36.2031 61.0869 36.2031C60.3994 36.2031 59.7848 36.0026 59.2431 35.6016C58.7067 35.2005 58.2874 34.6302 57.9853 33.8906C57.6832 33.1458 57.5322 32.2786 57.5322 31.2891C57.5322 30.3047 57.6832 29.4427 57.9853 28.7031C58.2874 27.9635 58.7067 27.3906 59.2431 26.9844C59.7848 26.5781 60.3994 26.375 61.0869 26.375ZM61.0869 27.7031C60.6702 27.7031 60.2978 27.849 59.9697 28.1406C59.6416 28.4323 59.389 28.849 59.2119 29.3906C59.04 29.9271 58.9541 30.5599 58.9541 31.2891C58.9541 32.013 59.04 32.6458 59.2119 33.1875C59.389 33.7292 59.6416 34.1458 59.9697 34.4375C60.2978 34.724 60.6702 34.8672 61.0869 34.8672C61.5035 34.8672 61.8759 34.724 62.2041 34.4375C62.5322 34.1458 62.7848 33.7292 62.9619 33.1875C63.139 32.6458 63.2275 32.013 63.2275 31.2891C63.2275 30.5599 63.1364 29.9271 62.9541 29.3906C62.777 28.849 62.527 28.4323 62.2041 28.1406C61.8864 27.849 61.514 27.7031 61.0869 27.7031ZM68.9697 39.3594H67.4931V25.3203H68.9697V39.3594ZM68.1416 31.7891H64.1572V30.5781H68.1416V31.7891ZM82.0053 32.8359H72.1616V31.6172H82.0053V32.8359ZM83.4506 37.4766H70.6381V36.2422H83.4506V37.4766ZM73.6537 32.1406H72.1616V26.5469H73.6537V32.1406ZM99.4281 39.3203H98.0219V25.3203H99.4281V39.3203ZM98.3812 32.0938H95.7641V30.8828H98.3812V32.0938ZM96.1937 38.6172H94.8344V25.6094H96.1937V38.6172ZM88.8187 34.7031C89.9177 34.7031 90.8422 34.6797 91.5922 34.6328C92.3422 34.5807 93.1052 34.4792 93.8812 34.3281L93.9984 35.5547C93.2068 35.7109 92.4255 35.8177 91.6547 35.875C90.8891 35.9271 89.9437 35.9557 88.8187 35.9609H87.8891V34.7031H88.8187ZM93.1312 28.2188H89.3656V35.2969H87.8891V27.0078H93.1312V28.2188ZM109.112 27.9375H100.776V26.75H109.112V27.9375ZM104.948 28.5703C105.62 28.5703 106.211 28.6771 106.722 28.8906C107.232 29.099 107.63 29.3958 107.917 29.7812C108.203 30.1615 108.347 30.6068 108.347 31.1172C108.347 31.6224 108.203 32.0677 107.917 32.4531C107.63 32.8333 107.232 33.1302 106.722 33.3438C106.211 33.5521 105.62 33.6562 104.948 33.6562C104.287 33.6562 103.696 33.5521 103.175 33.3438C102.654 33.1302 102.25 32.8333 101.964 32.4531C101.682 32.0677 101.542 31.6224 101.542 31.1172C101.542 30.6068 101.682 30.1615 101.964 29.7812C102.25 29.3958 102.654 29.099 103.175 28.8906C103.696 28.6771 104.287 28.5703 104.948 28.5703ZM104.948 29.7031C104.557 29.7031 104.211 29.7604 103.909 29.875C103.607 29.9896 103.375 30.1536 103.214 30.3672C103.052 30.5807 102.972 30.8307 102.972 31.1172C102.972 31.3984 103.052 31.6432 103.214 31.8516C103.375 32.0599 103.607 32.2188 103.909 32.3281C104.211 32.4375 104.557 32.4922 104.948 32.4922C105.339 32.4922 105.685 32.4375 105.987 32.3281C106.294 32.2188 106.531 32.0599 106.698 31.8516C106.865 31.6432 106.948 31.3984 106.948 31.1172C106.948 30.8307 106.865 30.5807 106.698 30.3672C106.531 30.1536 106.294 29.9896 105.987 29.875C105.685 29.7604 105.339 29.7031 104.948 29.7031ZM111.761 34.0859H110.284V25.3203H111.761V34.0859ZM113.8 30.3516H111.347V29.125H113.8V30.3516ZM111.761 39.3203H110.284V35.9922H102.511V34.7969H111.761V39.3203ZM105.69 27.4062H104.214V25.2578H105.69V27.4062ZM121.613 26.1719C121.613 26.7344 121.496 27.2891 121.262 27.8359C121.032 28.3776 120.686 28.8672 120.223 29.3047C119.764 29.7422 119.207 30.0807 118.551 30.3203L117.848 29.2109C118.4 29.0234 118.874 28.763 119.269 28.4297C119.665 28.0911 119.962 27.724 120.16 27.3281C120.358 26.9323 120.457 26.5469 120.457 26.1719V25.4922H121.613V26.1719ZM121.933 26.1719C121.933 26.5417 122.03 26.9297 122.223 27.3359C122.42 27.737 122.712 28.112 123.098 28.4609C123.483 28.8099 123.946 29.0859 124.488 29.2891L123.918 30.4688C123.236 30.2292 122.66 29.8776 122.191 29.4141C121.728 28.9505 121.384 28.4349 121.16 27.8672C120.941 27.2995 120.832 26.7344 120.832 26.1719V25.4922H121.933V26.1719ZM126.996 26.1719C126.996 26.75 126.884 27.3229 126.66 27.8906C126.441 28.4583 126.098 28.9714 125.629 29.4297C125.165 29.8828 124.595 30.2292 123.918 30.4688L123.332 29.2891C123.879 29.0964 124.342 28.8307 124.723 28.4922C125.103 28.1484 125.389 27.776 125.582 27.375C125.78 26.9688 125.879 26.5677 125.879 26.1719V25.4922H126.996V26.1719ZM127.363 26.1719C127.363 26.5833 127.462 26.9896 127.66 27.3906C127.858 27.7917 128.152 28.1536 128.543 28.4766C128.933 28.7943 129.41 29.0391 129.973 29.2109L129.269 30.3203C128.608 30.0911 128.051 29.763 127.598 29.3359C127.144 28.9089 126.801 28.4245 126.566 27.8828C126.332 27.3359 126.215 26.7656 126.215 26.1719V25.4922H127.363V26.1719ZM130.301 32.3359H117.535V31.1484H130.301V32.3359ZM128.683 36.7422H120.543V38.375H119.082V35.6797H127.23V34.4922H119.058V33.3828H128.683V36.7422ZM129.09 39.1875H119.082V38.0391H129.09V39.1875ZM142.539 39.3203H141.071V25.3203H142.539V39.3203ZM141.75 32.0938H137.922V30.875H141.75V32.0938ZM137.969 26.8281C137.969 28.2448 137.766 29.5547 137.36 30.7578C136.953 31.9557 136.282 33.0599 135.344 34.0703C134.407 35.0807 133.17 35.9688 131.633 36.7344L130.852 35.5625C132.185 34.9115 133.269 34.1641 134.102 33.3203C134.94 32.4714 135.55 31.5312 135.93 30.5C136.315 29.4635 136.508 28.3203 136.508 27.0703V26.8281H137.969ZM137.282 28.0156H131.477V26.8281H137.282V28.0156ZM147.989 26.375C148.687 26.375 149.304 26.5781 149.841 26.9844C150.382 27.3906 150.807 27.9635 151.114 28.7031C151.427 29.4427 151.583 30.3047 151.583 31.2891C151.583 32.2786 151.427 33.1432 151.114 33.8828C150.807 34.6224 150.382 35.1953 149.841 35.6016C149.299 36.0026 148.682 36.2031 147.989 36.2031C147.296 36.2031 146.677 36.0026 146.13 35.6016C145.588 35.1953 145.164 34.6224 144.856 33.8828C144.554 33.1432 144.403 32.2786 144.403 31.2891C144.403 30.3047 144.554 29.4427 144.856 28.7031C145.164 27.9635 145.588 27.3906 146.13 26.9844C146.677 26.5781 147.296 26.375 147.989 26.375ZM147.989 27.7031C147.562 27.7031 147.184 27.849 146.856 28.1406C146.528 28.4323 146.273 28.849 146.091 29.3906C145.908 29.9271 145.817 30.5599 145.817 31.2891C145.817 32.013 145.908 32.6458 146.091 33.1875C146.273 33.7292 146.531 34.1458 146.864 34.4375C147.197 34.724 147.572 34.8672 147.989 34.8672C148.416 34.8672 148.794 34.724 149.122 34.4375C149.45 34.1458 149.703 33.7292 149.88 33.1875C150.062 32.6458 150.153 32.013 150.153 31.2891C150.153 30.5599 150.062 29.9271 149.88 29.3906C149.703 28.849 149.45 28.4323 149.122 28.1406C148.794 27.849 148.416 27.7031 147.989 27.7031ZM157.309 30.0078H154.739V28.7578H157.309V30.0078ZM157.309 34.1406H154.739V32.9141H157.309V34.1406ZM155.137 39.3203H153.661V25.3203H155.137V39.3203ZM159.884 34.6328C159.894 33.9714 159.96 33.4375 160.079 33.0312C160.204 32.625 160.381 32.2995 160.611 32.0547C160.84 31.8047 161.147 31.5625 161.533 31.3281C161.892 31.1094 162.173 30.849 162.376 30.5469C162.585 30.2448 162.689 29.9036 162.689 29.5234C162.689 29.2109 162.616 28.9349 162.47 28.6953C162.324 28.4505 162.121 28.263 161.861 28.1328C161.6 28.0026 161.311 27.9375 160.993 27.9375C160.707 27.9375 160.436 27.9974 160.181 28.1172C159.931 28.237 159.723 28.4245 159.556 28.6797C159.389 28.9349 159.293 29.2474 159.267 29.6172H157.579C157.605 28.9714 157.772 28.4167 158.079 27.9531C158.387 27.4844 158.793 27.1302 159.298 26.8906C159.809 26.651 160.376 26.5312 161.001 26.5312C161.673 26.5312 162.267 26.6562 162.783 26.9062C163.298 27.1562 163.697 27.5104 163.978 27.9688C164.259 28.4219 164.4 28.9453 164.4 29.5391C164.4 30.1432 164.262 30.6641 163.986 31.1016C163.71 31.5339 163.314 31.9089 162.798 32.2266C162.475 32.4193 162.22 32.6198 162.033 32.8281C161.85 33.0365 161.712 33.2839 161.618 33.5703C161.525 33.8516 161.475 34.2057 161.47 34.6328V34.75H159.884V34.6328ZM160.728 38.1094C160.53 38.1094 160.345 38.0573 160.173 37.9531C160.001 37.849 159.866 37.7135 159.767 37.5469C159.673 37.375 159.626 37.1901 159.626 36.9922C159.626 36.7995 159.673 36.6172 159.767 36.4453C159.866 36.2734 160.001 36.1406 160.173 36.0469C160.345 35.9479 160.53 35.8984 160.728 35.8984C160.921 35.8984 161.103 35.9479 161.275 36.0469C161.447 36.1406 161.582 36.2734 161.681 36.4453C161.78 36.6172 161.829 36.7995 161.829 36.9922C161.829 37.1901 161.78 37.375 161.681 37.5469C161.582 37.7135 161.447 37.849 161.275 37.9531C161.103 38.0573 160.921 38.1094 160.728 38.1094Z" fill="black"/>
<path d="M0 64L20 64L20 50L0 64Z" fill="white"/>
</svg>
