<svg width="213" height="64" viewBox="0 0 213 64" fill="none" xmlns="http://www.w3.org/2000/svg">
<path d="M20 10C20 4.47715 24.4772 0 30 0H203C208.523 0 213 4.47715 213 10V54C213 59.5228 208.523 64 203 64H20V10Z" fill="white"/>
<path d="M47.7891 26.7422C47.7891 28.2422 47.6016 29.6068 47.2266 30.8359C46.8568 32.0651 46.2031 33.2083 45.2656 34.2656C44.3333 35.3229 43.0469 36.2604 41.4062 37.0781L40.5859 35.9453C42.0286 35.2422 43.1719 34.4401 44.0156 33.5391C44.8646 32.6328 45.4661 31.6432 45.8203 30.5703C46.1745 29.4974 46.3516 28.2812 46.3516 26.9219V26.7422H47.7891ZM47.2266 27.9531H41.3984V26.7422H47.2266V27.9531ZM40.8984 31.8516L40.6797 30.5703L46.2188 30.2109V31.3516L40.8984 31.8516ZM51.4219 39.3125H49.9453V25.3203H51.4219V39.3125ZM53.5938 32.1484H51.0391V30.9141H53.5938V32.1484ZM65.9731 39.3203H64.5513V25.3203H65.9731V39.3203ZM62.2544 31.8984H60.0434V30.5703H62.2544V31.8984ZM63.2075 38.6094H61.8013V25.6406H63.2075V38.6094ZM60.4263 28.2578H53.9966V27.0469H60.4263V28.2578ZM53.7075 34.7031C54.9367 34.7031 56.1736 34.6823 57.4184 34.6406C58.6632 34.5938 59.7622 34.5052 60.7153 34.375L60.8091 35.4531C59.8351 35.6458 58.7414 35.776 57.5278 35.8438C56.3143 35.9115 55.1007 35.9453 53.8872 35.9453L53.7075 34.7031ZM56.4263 35.0625H55.0825V27.8125H56.4263V35.0625ZM59.3403 35.0625H57.9731V27.8125H59.3403V35.0625ZM78.8213 35.5156H77.3447V25.3359H78.8213V35.5156ZM79.2431 39.0469H69.6728V37.8203H79.2431V39.0469ZM71.1572 38.2656H69.6728V34.4844H71.1572V38.2656ZM71.2275 26.2812C71.9254 26.2812 72.5582 26.4297 73.1259 26.7266C73.6989 27.0182 74.1468 27.4297 74.4697 27.9609C74.7926 28.487 74.9541 29.0833 74.9541 29.75C74.9541 30.4271 74.7926 31.0286 74.4697 31.5547C74.1468 32.0807 73.6989 32.4922 73.1259 32.7891C72.5582 33.0859 71.9254 33.2344 71.2275 33.2344C70.5296 33.2344 69.8968 33.0859 69.3291 32.7891C68.7666 32.4922 68.3213 32.0807 67.9931 31.5547C67.665 31.0286 67.5009 30.4271 67.5009 29.75C67.5009 29.0833 67.665 28.487 67.9931 27.9609C68.3213 27.4297 68.7666 27.0182 69.3291 26.7266C69.8968 26.4297 70.5296 26.2812 71.2275 26.2812ZM71.2275 27.5781C70.8004 27.5781 70.4124 27.6693 70.0634 27.8516C69.7145 28.0339 69.441 28.2891 69.2431 28.6172C69.0504 28.9453 68.9541 29.3229 68.9541 29.75C68.9541 30.1771 69.0504 30.5573 69.2431 30.8906C69.441 31.224 69.7145 31.4818 70.0634 31.6641C70.4124 31.8464 70.8004 31.9375 71.2275 31.9375C71.6546 31.9375 72.04 31.8464 72.3838 31.6641C72.7275 31.4818 72.9983 31.224 73.1963 30.8906C73.3942 30.5573 73.4931 30.1771 73.4931 29.75C73.4931 29.3229 73.3942 28.9453 73.1963 28.6172C72.9983 28.2891 72.7275 28.0339 72.3838 27.8516C72.04 27.6693 71.6546 27.5781 71.2275 27.5781ZM91.2597 26.7422C91.2597 28.2422 91.0722 29.6068 90.6972 30.8359C90.3274 32.0651 89.6738 33.2083 88.7363 34.2656C87.804 35.3229 86.5175 36.2604 84.8769 37.0781L84.0566 35.9453C85.4993 35.2422 86.6425 34.4401 87.4863 33.5391C88.3352 32.6328 88.9368 31.6432 89.2909 30.5703C89.6451 29.4974 89.8222 28.2812 89.8222 26.9219V26.7422H91.2597ZM90.6972 27.9531H84.8691V26.7422H90.6972V27.9531ZM84.3691 31.8516L84.1503 30.5703L89.6894 30.2109V31.3516L84.3691 31.8516ZM94.8925 39.3125H93.4159V25.3203H94.8925V39.3125ZM97.0644 32.1484H94.5097V30.9141H97.0644V32.1484ZM109.444 39.3203H108.022V25.3203H109.444V39.3203ZM105.725 31.8984H103.514V30.5703H105.725V31.8984ZM106.678 38.6094H105.272V25.6406H106.678V38.6094ZM103.897 28.2578H97.4672V27.0469H103.897V28.2578ZM97.1781 34.7031C98.4073 34.7031 99.6443 34.6823 100.889 34.6406C102.134 34.5938 103.233 34.5052 104.186 34.375L104.28 35.4531C103.306 35.6458 102.212 35.776 100.998 35.8438C99.7849 35.9115 98.5714 35.9453 97.3578 35.9453L97.1781 34.7031ZM99.8969 35.0625H98.5531V27.8125H99.8969V35.0625ZM102.811 35.0625H101.444V27.8125H102.811V35.0625ZM122.292 35.5156H120.815V25.3359H122.292V35.5156ZM122.714 39.0469H113.143V37.8203H122.714V39.0469ZM114.628 38.2656H113.143V34.4844H114.628V38.2656ZM114.698 26.2812C115.396 26.2812 116.029 26.4297 116.597 26.7266C117.169 27.0182 117.617 27.4297 117.94 27.9609C118.263 28.487 118.425 29.0833 118.425 29.75C118.425 30.4271 118.263 31.0286 117.94 31.5547C117.617 32.0807 117.169 32.4922 116.597 32.7891C116.029 33.0859 115.396 33.2344 114.698 33.2344C114 33.2344 113.367 33.0859 112.8 32.7891C112.237 32.4922 111.792 32.0807 111.464 31.5547C111.136 31.0286 110.972 30.4271 110.972 29.75C110.972 29.0833 111.136 28.487 111.464 27.9609C111.792 27.4297 112.237 27.0182 112.8 26.7266C113.367 26.4297 114 26.2812 114.698 26.2812ZM114.698 27.5781C114.271 27.5781 113.883 27.6693 113.534 27.8516C113.185 28.0339 112.912 28.2891 112.714 28.6172C112.521 28.9453 112.425 29.3229 112.425 29.75C112.425 30.1771 112.521 30.5573 112.714 30.8906C112.912 31.224 113.185 31.4818 113.534 31.6641C113.883 31.8464 114.271 31.9375 114.698 31.9375C115.125 31.9375 115.511 31.8464 115.854 31.6641C116.198 31.4818 116.469 31.224 116.667 30.8906C116.865 30.5573 116.964 30.1771 116.964 29.75C116.964 29.3229 116.865 28.9453 116.667 28.6172C116.469 28.2891 116.198 28.0339 115.854 27.8516C115.511 27.6693 115.125 27.5781 114.698 27.5781ZM135.632 39.3594H134.14V25.3203H135.632V39.3594ZM128.132 26.375C128.83 26.375 129.452 26.5781 129.999 26.9844C130.546 27.3906 130.973 27.9635 131.281 28.7031C131.588 29.4427 131.742 30.3047 131.742 31.2891C131.742 32.2786 131.588 33.1432 131.281 33.8828C130.973 34.6224 130.546 35.1953 129.999 35.6016C129.452 36.0026 128.83 36.2031 128.132 36.2031C127.434 36.2031 126.809 36.0026 126.257 35.6016C125.71 35.1953 125.283 34.6224 124.976 33.8828C124.669 33.1432 124.515 32.2786 124.515 31.2891C124.515 30.3047 124.669 29.4427 124.976 28.7031C125.283 27.9635 125.71 27.3906 126.257 26.9844C126.809 26.5781 127.434 26.375 128.132 26.375ZM128.132 27.7031C127.705 27.7031 127.325 27.849 126.992 28.1406C126.658 28.4323 126.4 28.849 126.218 29.3906C126.041 29.9271 125.952 30.5599 125.952 31.2891C125.952 32.013 126.041 32.6458 126.218 33.1875C126.4 33.7292 126.658 34.1458 126.992 34.4375C127.325 34.724 127.705 34.8672 128.132 34.8672C128.559 34.8672 128.937 34.724 129.265 34.4375C129.598 34.1458 129.856 33.7292 130.038 33.1875C130.221 32.6458 130.312 32.013 130.312 31.2891C130.312 30.5599 130.221 29.9271 130.038 29.3906C129.856 28.849 129.601 28.4323 129.273 28.1406C128.945 27.849 128.564 27.7031 128.132 27.7031ZM152.438 32.5703H150.946V25.3203H152.438V32.5703ZM152.438 36.6797H144.657V38.6797H143.196V35.5859H150.969V34.375H143.157V33.2031H152.438V36.6797ZM152.93 39.1875H143.196V38H152.93V39.1875ZM149.016 27.4141H141.43V26.25H149.016V27.4141ZM141.039 30.9453C142.581 30.9401 144.091 30.9089 145.571 30.8516C147.055 30.7891 148.417 30.6849 149.657 30.5391L149.727 31.6172C148.456 31.8099 147.084 31.9453 145.61 32.0234C144.136 32.1016 142.672 32.1406 141.219 32.1406L141.039 30.9453ZM144.164 31.5078H142.735V26.7812H144.164V31.5078ZM147.68 31.5078H146.258V26.7812H147.68V31.5078ZM158.684 36.6172H157.223V32.5156H158.684V36.6172ZM163.903 36.6172H162.411V32.5156H163.903V36.6172ZM166.966 37.5781H154.153V36.3516H166.966V37.5781ZM160.536 26.1328C161.536 26.1328 162.427 26.2865 163.208 26.5938C163.989 26.8958 164.598 27.3255 165.036 27.8828C165.479 28.4349 165.7 29.0703 165.7 29.7891C165.7 30.513 165.479 31.151 165.036 31.7031C164.598 32.25 163.989 32.6771 163.208 32.9844C162.427 33.2865 161.536 33.4375 160.536 33.4375C159.541 33.4375 158.651 33.2865 157.864 32.9844C157.083 32.6771 156.471 32.25 156.028 31.7031C155.585 31.151 155.364 30.513 155.364 29.7891C155.364 29.0703 155.585 28.4349 156.028 27.8828C156.471 27.3255 157.083 26.8958 157.864 26.5938C158.651 26.2865 159.541 26.1328 160.536 26.1328ZM160.536 27.3359C159.807 27.3307 159.161 27.4297 158.598 27.6328C158.041 27.8307 157.604 28.1172 157.286 28.4922C156.973 28.862 156.817 29.2943 156.817 29.7891C156.817 30.2839 156.973 30.7188 157.286 31.0938C157.604 31.4688 158.044 31.7604 158.606 31.9688C159.169 32.1771 159.812 32.2812 160.536 32.2812C161.255 32.2812 161.895 32.1771 162.458 31.9688C163.02 31.7604 163.46 31.4688 163.778 31.0938C164.096 30.7188 164.255 30.2839 164.255 29.7891C164.255 29.2943 164.096 28.862 163.778 28.4922C163.466 28.1172 163.028 27.8307 162.466 27.6328C161.903 27.4297 161.26 27.3307 160.536 27.3359ZM174.415 28.8438H167.47V27.6484H174.415V28.8438ZM170.954 29.6797C171.543 29.6797 172.066 29.8177 172.525 30.0938C172.988 30.3646 173.35 30.7448 173.611 31.2344C173.871 31.724 174.001 32.2839 174.001 32.9141C174.001 33.5391 173.871 34.099 173.611 34.5938C173.35 35.0833 172.988 35.4688 172.525 35.75C172.066 36.0312 171.543 36.1719 170.954 36.1719C170.371 36.1719 169.848 36.0312 169.384 35.75C168.926 35.4688 168.566 35.0807 168.306 34.5859C168.051 34.0911 167.923 33.5339 167.923 32.9141C167.923 32.2943 168.051 31.737 168.306 31.2422C168.566 30.7474 168.926 30.3646 169.384 30.0938C169.848 29.8177 170.371 29.6797 170.954 29.6797ZM170.954 30.9219C170.626 30.9219 170.329 31.0078 170.064 31.1797C169.803 31.3464 169.6 31.5807 169.454 31.8828C169.309 32.1797 169.236 32.5234 169.236 32.9141C169.236 33.2995 169.309 33.6432 169.454 33.9453C169.605 34.2474 169.811 34.4792 170.072 34.6406C170.332 34.8021 170.626 34.8828 170.954 34.8828C171.288 34.8828 171.585 34.8021 171.845 34.6406C172.111 34.4792 172.319 34.2474 172.47 33.9453C172.621 33.6432 172.697 33.2995 172.697 32.9141C172.697 32.5234 172.621 32.1797 172.47 31.8828C172.319 31.5807 172.111 31.3464 171.845 31.1797C171.585 31.0078 171.288 30.9219 170.954 30.9219ZM179.486 39.3203H178.072V25.3203H179.486V39.3203ZM178.54 32.3672H175.978V31.1562H178.54V32.3672ZM176.462 38.6641H175.064V25.6484H176.462V38.6641ZM171.697 28.3906H170.228V25.7344H171.697V28.3906ZM182.443 38.1094C182.245 38.1094 182.06 38.0573 181.888 37.9531C181.717 37.849 181.581 37.7135 181.482 37.5469C181.388 37.375 181.342 37.1901 181.342 36.9922C181.342 36.7995 181.388 36.6172 181.482 36.4453C181.581 36.2734 181.717 36.1406 181.888 36.0469C182.06 35.9479 182.245 35.8984 182.443 35.8984C182.636 35.8984 182.818 35.9479 182.99 36.0469C183.162 36.1406 183.297 36.2734 183.396 36.4453C183.495 36.6172 183.545 36.7995 183.545 36.9922C183.545 37.1901 183.495 37.375 183.396 37.5469C183.297 37.7135 183.162 37.849 182.99 37.9531C182.818 38.0573 182.636 38.1094 182.443 38.1094ZM186.182 38.1094C185.984 38.1094 185.799 38.0573 185.627 37.9531C185.455 37.849 185.32 37.7135 185.221 37.5469C185.127 37.375 185.08 37.1901 185.08 36.9922C185.08 36.7995 185.127 36.6172 185.221 36.4453C185.32 36.2734 185.455 36.1406 185.627 36.0469C185.799 35.9479 185.984 35.8984 186.182 35.8984C186.375 35.8984 186.557 35.9479 186.729 36.0469C186.901 36.1406 187.036 36.2734 187.135 36.4453C187.234 36.6172 187.283 36.7995 187.283 36.9922C187.283 37.1901 187.234 37.375 187.135 37.5469C187.036 37.7135 186.901 37.849 186.729 37.9531C186.557 38.0573 186.375 38.1094 186.182 38.1094ZM189.921 38.1094C189.723 38.1094 189.538 38.0573 189.366 37.9531C189.194 37.849 189.059 37.7135 188.96 37.5469C188.866 37.375 188.819 37.1901 188.819 36.9922C188.819 36.7995 188.866 36.6172 188.96 36.4453C189.059 36.2734 189.194 36.1406 189.366 36.0469C189.538 35.9479 189.723 35.8984 189.921 35.8984C190.113 35.8984 190.296 35.9479 190.467 36.0469C190.639 36.1406 190.775 36.2734 190.874 36.4453C190.973 36.6172 191.022 36.7995 191.022 36.9922C191.022 37.1901 190.973 37.375 190.874 37.5469C190.775 37.7135 190.639 37.849 190.467 37.9531C190.296 38.0573 190.113 38.1094 189.921 38.1094Z" fill="black"/>
<path d="M0 64L20 64L20 50L0 64Z" fill="white"/>
</svg>
