<svg width="236" height="64" viewBox="0 0 236 64" fill="none" xmlns="http://www.w3.org/2000/svg">
<path d="M0 10C0 4.47715 4.47715 0 10 0H206C211.523 0 216 4.47715 216 10V64H10C4.47715 64 0 59.5228 0 54V10Z" fill="white"/>
<path d="M25.3828 29.4531C25.3776 30.4688 25.2005 31.4557 24.8516 32.4141C24.5078 33.3724 24.0286 34.224 23.4141 34.9688C22.8047 35.7135 22.1172 36.2734 21.3516 36.6484L20.4766 35.4844C21.1745 35.1562 21.8021 34.6693 22.3594 34.0234C22.9219 33.3776 23.362 32.6562 23.6797 31.8594C24.0026 31.0573 24.1641 30.2552 24.1641 29.4531V27.375H25.3828V29.4531ZM25.6641 29.4531C25.6641 30.2292 25.8229 30.9974 26.1406 31.7578C26.4635 32.513 26.9036 33.1901 27.4609 33.7891C28.0234 34.3828 28.6589 34.8307 29.3672 35.1328L28.5469 36.2969C27.75 35.9479 27.0443 35.4245 26.4297 34.7266C25.8151 34.0234 25.3359 33.2161 24.9922 32.3047C24.6484 31.3932 24.4792 30.4427 24.4844 29.4531V27.375H25.6641V29.4531ZM28.8672 27.9609H20.9688V26.7422H28.8672V27.9609ZM32.1172 39.3203H30.625V25.3203H32.1172V39.3203ZM44.52 27.25H35.4653V26.0391H44.52V27.25ZM46.6763 32.3594H33.8638V31.1484H46.6763V32.3594ZM45.0513 27.1094C45.0513 27.9219 45.0252 28.6562 44.9731 29.3125C44.921 29.9635 44.7986 30.7109 44.6059 31.5547L43.1216 31.4844C43.2622 30.9219 43.3638 30.3906 43.4263 29.8906C43.494 29.3854 43.5356 28.9427 43.5513 28.5625C43.5669 28.1823 43.5747 27.7318 43.5747 27.2109V27.1094V26.0391H45.0513V27.1094ZM45.0747 39.1484H35.4184V34.1406H45.0747V39.1484ZM36.8872 37.9453H43.6059V35.3047H36.8872V37.9453ZM62.6303 39.3203H61.1928V25.3203H62.6303V39.3203ZM61.6069 32.1641H58.9897V30.9219H61.6069V32.1641ZM59.4116 38.6172H58.0209V25.6094H59.4116V38.6172ZM52.7787 35.0547H51.3022V26.9844H52.7787V35.0547ZM52.1928 34.4688C53.0157 34.4688 53.8204 34.4375 54.6069 34.375C55.3985 34.3125 56.2162 34.1953 57.06 34.0234L57.2397 35.3281C56.3282 35.4896 55.4636 35.6042 54.6459 35.6719C53.8282 35.7396 53.0105 35.7734 52.1928 35.7734H51.3022V34.4688H52.1928ZM74.8925 39.3125H73.4159V25.3203H74.8925V39.3125ZM77.0644 32.1484H74.5097V30.9141H77.0644V32.1484ZM71.2284 26.8047C71.2232 28.2005 71.0045 29.5078 70.5722 30.7266C70.1399 31.9453 69.4472 33.0677 68.4941 34.0938C67.5461 35.1198 66.3248 36 64.83 36.7344L64.0019 35.5781C65.2831 34.9375 66.3508 34.1927 67.205 33.3438C68.0644 32.4948 68.705 31.5469 69.1269 30.5C69.554 29.4531 69.7701 28.3073 69.7753 27.0625V26.8047H71.2284ZM70.5253 28.0391H64.6894V26.8047H70.5253V28.0391ZM91.7606 32.4062H90.2841V25.3203H91.7606V32.4062ZM93.7997 29.6016H91.3466V28.3594H93.7997V29.6016ZM87.9403 25.9531C87.9403 27.1354 87.6773 28.1823 87.1512 29.0938C86.6304 30 85.8752 30.763 84.8856 31.3828C83.896 31.9974 82.7059 32.4635 81.3153 32.7812L80.745 31.5469C81.9429 31.2865 82.9585 30.9245 83.7919 30.4609C84.6252 29.9922 85.2554 29.4453 85.6825 28.8203C86.1096 28.1953 86.3231 27.513 86.3231 26.7734V25.9531H87.9403ZM87.2137 27.1641H81.4012V25.9531H87.2137V27.1641ZM91.7606 36.6094H84.1981V38.6484H82.7372V35.4766H90.2841V34.2031H82.7137V33.0078H91.7606V36.6094ZM92.245 39.1953H82.7372V37.9922H92.245V39.1953ZM104.457 26.5547C104.457 27.4193 104.199 28.2161 103.683 28.9453C103.173 29.6745 102.483 30.2812 101.613 30.7656C100.743 31.25 99.785 31.5729 98.7381 31.7344L98.1444 30.5391C99.0558 30.4141 99.8944 30.1562 100.66 29.7656C101.431 29.3698 102.038 28.8932 102.48 28.3359C102.928 27.7734 103.152 27.1797 103.152 26.5547V25.7969H104.457V26.5547ZM104.691 26.5547C104.691 27.1693 104.918 27.7604 105.371 28.3281C105.829 28.8906 106.441 29.3698 107.207 29.7656C107.978 30.1562 108.816 30.4141 109.723 30.5391L109.137 31.7344C108.084 31.5729 107.124 31.25 106.254 30.7656C105.384 30.276 104.691 29.6667 104.176 28.9375C103.66 28.2083 103.402 27.4141 103.402 26.5547V25.7969H104.691V26.5547ZM104.621 39.3203H103.16V34.0469H104.621V39.3203ZM110.301 34.3516H97.535V33.1172H110.301V34.3516ZM118.887 34.5859C118.882 35.2318 118.757 35.8568 118.512 36.4609C118.268 37.0599 117.906 37.5911 117.427 38.0547C116.947 38.5234 116.372 38.8802 115.7 39.125L114.958 38.0391C115.536 37.8307 116.033 37.5443 116.45 37.1797C116.872 36.8099 117.19 36.401 117.403 35.9531C117.617 35.5 117.726 35.0443 117.731 34.5859V33.9141H118.887V34.5859ZM119.169 34.5859C119.169 35.0599 119.262 35.526 119.45 35.9844C119.637 36.4375 119.919 36.8542 120.294 37.2344C120.669 37.6094 121.132 37.9089 121.684 38.1328L121.075 39.2422C120.398 38.9922 119.835 38.6224 119.387 38.1328C118.94 37.6484 118.611 37.1016 118.403 36.4922C118.195 35.8828 118.093 35.2474 118.098 34.5859V33.9141H119.169V34.5859ZM124.028 34.5859C124.023 35.1901 123.914 35.7995 123.7 36.4141C123.486 37.0234 123.156 37.5807 122.708 38.0859C122.265 38.5964 121.721 38.9818 121.075 39.2422L120.45 38.1328C120.981 37.888 121.437 37.5677 121.817 37.1719C122.197 36.7708 122.481 36.3464 122.669 35.8984C122.856 35.4453 122.947 35.0078 122.942 34.5859V33.9141H124.028V34.5859ZM124.403 34.5859C124.398 35.0755 124.502 35.5469 124.716 36C124.929 36.4479 125.244 36.8516 125.661 37.2109C126.078 37.5651 126.583 37.8411 127.177 38.0391L126.45 39.125C125.762 38.8906 125.177 38.5443 124.692 38.0859C124.213 37.6276 123.851 37.099 123.606 36.5C123.367 35.901 123.247 35.263 123.247 34.5859V33.9141H124.403V34.5859ZM125.919 33.3047H124.442V25.3359H125.919V33.3047ZM118.325 26.1172C119.033 26.1172 119.669 26.2578 120.231 26.5391C120.799 26.8151 121.244 27.2057 121.567 27.7109C121.89 28.2109 122.052 28.7839 122.052 29.4297C122.052 30.0599 121.89 30.625 121.567 31.125C121.244 31.625 120.799 32.013 120.231 32.2891C119.669 32.5651 119.033 32.7031 118.325 32.7031C117.617 32.7031 116.979 32.5651 116.411 32.2891C115.848 32.013 115.406 31.625 115.083 31.125C114.76 30.625 114.598 30.0599 114.598 29.4297C114.598 28.7839 114.76 28.2109 115.083 27.7109C115.406 27.2057 115.848 26.8151 116.411 26.5391C116.979 26.2578 117.617 26.1172 118.325 26.1172ZM118.325 27.375C117.887 27.3698 117.494 27.4531 117.145 27.625C116.802 27.7917 116.531 28.0339 116.333 28.3516C116.14 28.6641 116.046 29.0234 116.052 29.4297C116.046 29.8255 116.14 30.1771 116.333 30.4844C116.531 30.7917 116.802 31.0339 117.145 31.2109C117.489 31.388 117.882 31.4766 118.325 31.4766C118.762 31.4766 119.151 31.388 119.489 31.2109C119.833 31.0339 120.101 30.7917 120.294 30.4844C120.492 30.1771 120.591 29.8255 120.591 29.4297C120.591 29.0234 120.494 28.6641 120.302 28.3516C120.109 28.0339 119.838 27.7917 119.489 27.625C119.145 27.4531 118.757 27.3698 118.325 27.375ZM139.001 30.6016H129.337V29.4297H139.001V30.6016ZM140.454 33.5625H127.642V32.375H140.454V33.5625ZM130.814 30.0234H129.337V25.8359H130.814V30.0234ZM139.079 38.9922H129.243V37.7734H139.079V38.9922ZM130.728 38.125H129.243V34.8984H130.728V38.125ZM156.448 39.3203H155.041V25.3203H156.448V39.3203ZM155.401 32.0938H152.783V30.8828H155.401V32.0938ZM153.213 38.6172H151.854V25.6094H153.213V38.6172ZM145.838 34.7031C146.937 34.7031 147.862 34.6797 148.612 34.6328C149.362 34.5807 150.125 34.4792 150.901 34.3281L151.018 35.5547C150.237 35.7161 149.463 35.8229 148.698 35.875C147.937 35.9219 146.984 35.9505 145.838 35.9609H144.908V34.7031H145.838ZM150.151 28.2188H146.385V35.2969H144.908V27.0078H150.151V28.2188ZM166.132 27.9375H157.796V26.75H166.132V27.9375ZM161.967 28.5703C162.634 28.5703 163.223 28.6771 163.733 28.8906C164.249 29.099 164.647 29.3958 164.928 29.7812C165.215 30.1667 165.361 30.612 165.366 31.1172C165.361 31.6172 165.215 32.0599 164.928 32.4453C164.647 32.8307 164.249 33.1302 163.733 33.3438C163.223 33.5521 162.634 33.6562 161.967 33.6562C161.301 33.6562 160.707 33.5521 160.186 33.3438C159.671 33.1302 159.27 32.8307 158.983 32.4453C158.702 32.0599 158.561 31.6172 158.561 31.1172C158.561 30.612 158.702 30.1667 158.983 29.7812C159.27 29.3958 159.671 29.099 160.186 28.8906C160.702 28.6771 161.296 28.5703 161.967 28.5703ZM161.967 29.7031C161.572 29.7031 161.223 29.7604 160.921 29.875C160.624 29.9896 160.395 30.1536 160.233 30.3672C160.072 30.5807 159.991 30.8307 159.991 31.1172C159.991 31.3984 160.072 31.6432 160.233 31.8516C160.395 32.0599 160.624 32.2188 160.921 32.3281C161.223 32.4375 161.572 32.4922 161.967 32.4922C162.358 32.4922 162.704 32.4375 163.007 32.3281C163.314 32.2188 163.548 32.0599 163.71 31.8516C163.876 31.6432 163.962 31.3984 163.967 31.1172C163.962 30.8307 163.876 30.5807 163.71 30.3672C163.548 30.1536 163.314 29.9896 163.007 29.875C162.704 29.7604 162.358 29.7031 161.967 29.7031ZM168.78 34.0859H167.303V25.3203H168.78V34.0859ZM170.819 30.3516H168.366V29.125H170.819V30.3516ZM168.78 39.3203H167.303V35.9922H159.53V34.7969H168.78V39.3203ZM162.71 27.4062H161.233V25.2578H162.71V27.4062ZM182.73 39.3594H181.238V25.3203H182.73V39.3594ZM175.23 26.375C175.928 26.375 176.55 26.5755 177.097 26.9766C177.644 27.3776 178.071 27.9505 178.378 28.6953C178.685 29.4401 178.839 30.3047 178.839 31.2891C178.839 32.2786 178.685 33.1458 178.378 33.8906C178.071 34.6302 177.644 35.2005 177.097 35.6016C176.55 36.0026 175.928 36.2031 175.23 36.2031C174.532 36.2031 173.907 36.0026 173.355 35.6016C172.808 35.2005 172.381 34.6302 172.073 33.8906C171.766 33.1458 171.613 32.2786 171.613 31.2891C171.613 30.3047 171.766 29.4401 172.073 28.6953C172.381 27.9505 172.808 27.3776 173.355 26.9766C173.907 26.5755 174.532 26.375 175.23 26.375ZM175.23 27.7031C174.803 27.7031 174.422 27.849 174.089 28.1406C173.756 28.4323 173.498 28.849 173.316 29.3906C173.133 29.9323 173.045 30.5651 173.05 31.2891C173.045 32.0182 173.133 32.6536 173.316 33.1953C173.498 33.7318 173.756 34.1458 174.089 34.4375C174.422 34.724 174.803 34.8672 175.23 34.8672C175.657 34.8672 176.034 34.724 176.363 34.4375C176.696 34.1458 176.954 33.7318 177.136 33.1953C177.318 32.6536 177.409 32.0182 177.409 31.2891C177.409 30.5651 177.318 29.9323 177.136 29.3906C176.954 28.849 176.696 28.4323 176.363 28.1406C176.034 27.849 175.657 27.7031 175.23 27.7031ZM186.07 38.1094C185.867 38.1094 185.679 38.0599 185.508 37.9609C185.341 37.8568 185.208 37.7214 185.109 37.5547C185.01 37.3828 184.963 37.1953 184.968 36.9922C184.963 36.7943 185.01 36.612 185.109 36.4453C185.208 36.2734 185.341 36.1406 185.508 36.0469C185.679 35.9479 185.867 35.8984 186.07 35.8984C186.268 35.8984 186.45 35.9479 186.617 36.0469C186.789 36.1406 186.924 36.2734 187.023 36.4453C187.122 36.6172 187.172 36.7995 187.172 36.9922C187.172 37.1953 187.122 37.3828 187.023 37.5547C186.924 37.7214 186.789 37.8568 186.617 37.9609C186.45 38.0599 186.268 38.1094 186.07 38.1094ZM189.809 38.1094C189.606 38.1094 189.418 38.0599 189.246 37.9609C189.08 37.8568 188.947 37.7214 188.848 37.5547C188.749 37.3828 188.702 37.1953 188.707 36.9922C188.702 36.7943 188.749 36.612 188.848 36.4453C188.947 36.2734 189.08 36.1406 189.246 36.0469C189.418 35.9479 189.606 35.8984 189.809 35.8984C190.007 35.8984 190.189 35.9479 190.356 36.0469C190.527 36.1406 190.663 36.2734 190.762 36.4453C190.861 36.6172 190.91 36.7995 190.91 36.9922C190.91 37.1953 190.861 37.3828 190.762 37.5547C190.663 37.7214 190.527 37.8568 190.356 37.9609C190.189 38.0599 190.007 38.1094 189.809 38.1094ZM193.548 38.1094C193.344 38.1094 193.157 38.0599 192.985 37.9609C192.818 37.8568 192.686 37.7214 192.587 37.5547C192.488 37.3828 192.441 37.1953 192.446 36.9922C192.441 36.7943 192.488 36.612 192.587 36.4453C192.686 36.2734 192.818 36.1406 192.985 36.0469C193.157 35.9479 193.344 35.8984 193.548 35.8984C193.745 35.8984 193.928 35.9479 194.094 36.0469C194.266 36.1406 194.402 36.2734 194.501 36.4453C194.6 36.6172 194.649 36.7995 194.649 36.9922C194.649 37.1953 194.6 37.3828 194.501 37.5547C194.402 37.7214 194.266 37.8568 194.094 37.9609C193.928 38.0599 193.745 38.1094 193.548 38.1094Z" fill="black"/>
<path d="M236 64L216 64L216 49L236 64Z" fill="white"/>
</svg>
