<svg width="124" height="42" viewBox="0 0 124 42" fill="none" xmlns="http://www.w3.org/2000/svg">
<path d="M0 5C0 2.23858 2.23858 0 5 0H119C121.761 0 124 2.23858 124 5V30H5C2.23858 30 0 27.7614 0 25V5Z" fill="white"/>
<path d="M16.8535 12.0176C16.8535 12.916 16.7331 13.7461 16.4922 14.5078C16.2513 15.2695 15.8379 15.9775 15.252 16.6318C14.666 17.2861 13.8717 17.8607 12.8691 18.3555L12.4395 17.7695C13.3379 17.3333 14.0573 16.8271 14.5977 16.251C15.138 15.6748 15.5254 15.0465 15.7598 14.3662C15.9941 13.6859 16.1113 12.9323 16.1113 12.1055V12.0176H16.8535ZM16.5605 12.6523H12.918V12.0176H16.5605V12.6523ZM12.6055 15.084L12.4785 14.4102L15.9746 14.1758V14.7617L12.6055 15.084ZM19.0703 19.791H18.3086V11.1094H19.0703V19.791ZM20.4766 15.2891H18.875V14.6445H20.4766V15.2891ZM28.1648 19.791H27.4227V11.1094H28.1648V19.791ZM25.9871 15.1035H24.5223V14.4102H25.9871V15.1035ZM26.4656 19.332H25.7332V11.3242H26.4656V19.332ZM24.7762 12.8574H20.782V12.2227H24.7762V12.8574ZM20.5965 16.9883C21.3517 16.9883 22.1215 16.9736 22.9061 16.9443C23.6906 16.915 24.379 16.8613 24.9715 16.7832L25.0203 17.3496C24.4148 17.4603 23.7296 17.5368 22.9646 17.5791C22.1997 17.6214 21.4428 17.6426 20.6941 17.6426L20.5965 16.9883ZM22.2176 17.1836H21.5145V12.623H22.2176V17.1836ZM24.0437 17.1836H23.3309V12.623H24.0437V17.1836ZM36.2047 17.4668H35.443V11.1191H36.2047V17.4668ZM36.4781 19.6055H30.5992V18.9609H36.4781V19.6055ZM31.3609 19.1758H30.5992V16.8223H31.3609V19.1758ZM31.5172 11.7246C31.9469 11.7246 32.3359 11.8141 32.6842 11.9932C33.0325 12.1722 33.3043 12.4245 33.4996 12.75C33.6949 13.0755 33.7926 13.4434 33.7926 13.8535C33.7926 14.2702 33.6949 14.6396 33.4996 14.9619C33.3043 15.2842 33.0325 15.5365 32.6842 15.7188C32.3359 15.901 31.9469 15.9922 31.5172 15.9922C31.0875 15.9922 30.7001 15.901 30.3551 15.7188C30.01 15.5365 29.7382 15.2842 29.5396 14.9619C29.3411 14.6396 29.2418 14.2702 29.2418 13.8535C29.2418 13.4434 29.3411 13.0755 29.5396 12.75C29.7382 12.4245 30.01 12.1722 30.3551 11.9932C30.7001 11.8141 31.0875 11.7246 31.5172 11.7246ZM31.5172 12.3984C31.2307 12.3984 30.9703 12.4603 30.7359 12.584C30.5016 12.7077 30.3193 12.8802 30.1891 13.1016C30.0589 13.3229 29.9937 13.5736 29.9937 13.8535C29.9937 14.1335 30.0589 14.3857 30.1891 14.6104C30.3193 14.835 30.5016 15.0091 30.7359 15.1328C30.9703 15.2565 31.2307 15.3184 31.5172 15.3184C31.8036 15.3184 32.0624 15.2565 32.2936 15.1328C32.5247 15.0091 32.707 14.835 32.8404 14.6104C32.9739 14.3857 33.0406 14.1335 33.0406 13.8535C33.0406 13.5736 32.9739 13.3229 32.8404 13.1016C32.707 12.8802 32.5247 12.7077 32.2936 12.584C32.0624 12.4603 31.8036 12.3984 31.5172 12.3984ZM38.2973 19.0586C38.1866 19.0586 38.0824 19.0293 37.9848 18.9707C37.8871 18.9121 37.8106 18.834 37.7553 18.7363C37.6999 18.6387 37.6723 18.5345 37.6723 18.4238C37.6723 18.3132 37.6999 18.209 37.7553 18.1113C37.8106 18.0137 37.8871 17.9372 37.9848 17.8818C38.0824 17.8265 38.1866 17.7988 38.2973 17.7988C38.4079 17.7988 38.5121 17.8265 38.6098 17.8818C38.7074 17.9372 38.7839 18.0137 38.8393 18.1113C38.8946 18.209 38.9223 18.3132 38.9223 18.4238C38.9223 18.5345 38.8946 18.6387 38.8393 18.7363C38.7839 18.834 38.7074 18.9121 38.6098 18.9707C38.5121 19.0293 38.4079 19.0586 38.2973 19.0586ZM40.5363 19.0586C40.4257 19.0586 40.3215 19.0293 40.2238 18.9707C40.1262 18.9121 40.0497 18.834 39.9943 18.7363C39.939 18.6387 39.9113 18.5345 39.9113 18.4238C39.9113 18.3132 39.939 18.209 39.9943 18.1113C40.0497 18.0137 40.1262 17.9372 40.2238 17.8818C40.3215 17.8265 40.4257 17.7988 40.5363 17.7988C40.647 17.7988 40.7512 17.8265 40.8488 17.8818C40.9465 17.9372 41.023 18.0137 41.0783 18.1113C41.1337 18.209 41.1613 18.3132 41.1613 18.4238C41.1613 18.5345 41.1337 18.6387 41.0783 18.7363C41.023 18.834 40.9465 18.9121 40.8488 18.9707C40.7512 19.0293 40.647 19.0586 40.5363 19.0586ZM48.5496 12.0176C48.5496 12.916 48.4292 13.7461 48.1883 14.5078C47.9474 15.2695 47.534 15.9775 46.948 16.6318C46.3621 17.2861 45.5678 17.8607 44.5652 18.3555L44.1355 17.7695C45.034 17.3333 45.7534 16.8271 46.2938 16.251C46.8341 15.6748 47.2215 15.0465 47.4559 14.3662C47.6902 13.6859 47.8074 12.9323 47.8074 12.1055V12.0176H48.5496ZM48.2566 12.6523H44.6141V12.0176H48.2566V12.6523ZM44.3016 15.084L44.1746 14.4102L47.6707 14.1758V14.7617L44.3016 15.084ZM50.7664 19.791H50.0047V11.1094H50.7664V19.791ZM52.1727 15.2891H50.5711V14.6445H52.1727V15.2891ZM59.8609 19.791H59.1188V11.1094H59.8609V19.791ZM57.6832 15.1035H56.2184V14.4102H57.6832V15.1035ZM58.1617 19.332H57.4293V11.3242H58.1617V19.332ZM56.4723 12.8574H52.4781V12.2227H56.4723V12.8574ZM52.2926 16.9883C53.0478 16.9883 53.8176 16.9736 54.6021 16.9443C55.3867 16.915 56.0751 16.8613 56.6676 16.7832L56.7164 17.3496C56.1109 17.4603 55.4257 17.5368 54.6607 17.5791C53.8958 17.6214 53.1389 17.6426 52.3902 17.6426L52.2926 16.9883ZM53.9137 17.1836H53.2105V12.623H53.9137V17.1836ZM55.7398 17.1836H55.027V12.623H55.7398V17.1836ZM67.9008 17.4668H67.1391V11.1191H67.9008V17.4668ZM68.1742 19.6055H62.2953V18.9609H68.1742V19.6055ZM63.057 19.1758H62.2953V16.8223H63.057V19.1758ZM63.2133 11.7246C63.643 11.7246 64.032 11.8141 64.3803 11.9932C64.7286 12.1722 65.0004 12.4245 65.1957 12.75C65.391 13.0755 65.4887 13.4434 65.4887 13.8535C65.4887 14.2702 65.391 14.6396 65.1957 14.9619C65.0004 15.2842 64.7286 15.5365 64.3803 15.7188C64.032 15.901 63.643 15.9922 63.2133 15.9922C62.7836 15.9922 62.3962 15.901 62.0512 15.7188C61.7061 15.5365 61.4343 15.2842 61.2357 14.9619C61.0372 14.6396 60.9379 14.2702 60.9379 13.8535C60.9379 13.4434 61.0372 13.0755 61.2357 12.75C61.4343 12.4245 61.7061 12.1722 62.0512 11.9932C62.3962 11.8141 62.7836 11.7246 63.2133 11.7246ZM63.2133 12.3984C62.9268 12.3984 62.6664 12.4603 62.432 12.584C62.1977 12.7077 62.0154 12.8802 61.8852 13.1016C61.7549 13.3229 61.6898 13.5736 61.6898 13.8535C61.6898 14.1335 61.7549 14.3857 61.8852 14.6104C62.0154 14.835 62.1977 15.0091 62.432 15.1328C62.6664 15.2565 62.9268 15.3184 63.2133 15.3184C63.4997 15.3184 63.7585 15.2565 63.9896 15.1328C64.2208 15.0091 64.4031 14.835 64.5365 14.6104C64.67 14.3857 64.7367 14.1335 64.7367 13.8535C64.7367 13.5736 64.67 13.3229 64.5365 13.1016C64.4031 12.8802 64.2208 12.7077 63.9896 12.584C63.7585 12.4603 63.4997 12.3984 63.2133 12.3984ZM76.2336 19.8105H75.4621V11.1094H76.2336V19.8105ZM71.6145 11.7832C72.0441 11.7832 72.4266 11.9085 72.7619 12.1592C73.0972 12.4098 73.3592 12.763 73.548 13.2188C73.7368 13.6745 73.8312 14.2051 73.8312 14.8105C73.8312 15.416 73.7368 15.9466 73.548 16.4023C73.3592 16.8581 73.0972 17.2096 72.7619 17.457C72.4266 17.7044 72.0441 17.8281 71.6145 17.8281C71.1848 17.8281 70.8023 17.7044 70.467 17.457C70.1317 17.2096 69.8697 16.8581 69.6809 16.4023C69.4921 15.9466 69.3977 15.416 69.3977 14.8105C69.3977 14.2051 69.4921 13.6745 69.6809 13.2188C69.8697 12.763 70.1317 12.4098 70.467 12.1592C70.8023 11.9085 71.1848 11.7832 71.6145 11.7832ZM71.6145 12.4668C71.328 12.4668 71.0725 12.5645 70.8479 12.7598C70.6232 12.9551 70.4491 13.2285 70.3254 13.5801C70.2017 13.9316 70.1398 14.3418 70.1398 14.8105C70.1398 15.2728 70.2017 15.6813 70.3254 16.0361C70.4491 16.391 70.6232 16.6644 70.8479 16.8564C71.0725 17.0485 71.328 17.1445 71.6145 17.1445C71.9009 17.1445 72.1564 17.0485 72.3811 16.8564C72.6057 16.6644 72.7798 16.391 72.9035 16.0361C73.0272 15.6813 73.0891 15.2728 73.0891 14.8105C73.0891 14.3418 73.0272 13.9316 72.9035 13.5801C72.7798 13.2285 72.6073 12.9551 72.3859 12.7598C72.1646 12.5645 71.9074 12.4668 71.6145 12.4668ZM86.8055 15.6211H86.034V11.1094H86.8055V15.6211ZM86.8055 18.1113H81.9031V19.4395H81.1512V17.5352H86.0437V16.6562H81.1219V16.041H86.8055V18.1113ZM87.1375 19.6934H81.1512V19.0684H87.1375V19.6934ZM84.7156 12.3203H80.0184V11.7051H84.7156V12.3203ZM79.7742 14.6738C80.7052 14.6738 81.6395 14.6543 82.577 14.6152C83.5145 14.5762 84.3706 14.5111 85.1453 14.4199L85.1844 14.9863C84.3901 15.1035 83.5291 15.1865 82.6014 15.2354C81.6736 15.2842 80.7638 15.3086 79.8719 15.3086L79.7742 14.6738ZM81.6297 14.957H80.8875V11.9883H81.6297V14.957ZM83.8367 14.957H83.0945V11.9883H83.8367V14.957ZM90.6949 18.1895H89.943V15.5918H90.6949V18.1895ZM93.9469 18.1895H93.1754V15.5918H93.9469V18.1895ZM95.9195 18.6777H87.9703V18.0332H95.9195V18.6777ZM91.9254 11.6562C92.5439 11.6562 93.0924 11.749 93.5709 11.9346C94.0494 12.1201 94.4238 12.3822 94.6939 12.7207C94.9641 13.0592 95.0992 13.4499 95.0992 13.8926C95.0992 14.3353 94.9641 14.7243 94.6939 15.0596C94.4238 15.3949 94.0494 15.6553 93.5709 15.8408C93.0924 16.0264 92.5439 16.1191 91.9254 16.1191C91.3134 16.1191 90.7665 16.0264 90.2848 15.8408C89.803 15.6553 89.427 15.3949 89.1568 15.0596C88.8867 14.7243 88.7516 14.3353 88.7516 13.8926C88.7516 13.4499 88.8867 13.0592 89.1568 12.7207C89.427 12.3822 89.803 12.1201 90.2848 11.9346C90.7665 11.749 91.3134 11.6562 91.9254 11.6562ZM91.9254 12.291C91.4566 12.2845 91.0383 12.348 90.6705 12.4814C90.3027 12.6149 90.0146 12.8037 89.8063 13.0479C89.5979 13.292 89.4938 13.5736 89.4938 13.8926C89.4938 14.2116 89.5979 14.4932 89.8063 14.7373C90.0146 14.9814 90.3027 15.1719 90.6705 15.3086C91.0383 15.4453 91.4566 15.5137 91.9254 15.5137C92.3941 15.5137 92.8124 15.4453 93.1803 15.3086C93.5481 15.1719 93.8362 14.9814 94.0445 14.7373C94.2529 14.4932 94.357 14.2116 94.357 13.8926C94.357 13.5736 94.2529 13.292 94.0445 13.0479C93.8362 12.8037 93.5481 12.6149 93.1803 12.4814C92.8124 12.348 92.3941 12.2845 91.9254 12.291ZM100.649 13.2383H96.2934V12.6133H100.649V13.2383ZM98.4711 13.8242C98.8357 13.8242 99.1596 13.9072 99.4428 14.0732C99.726 14.2393 99.949 14.472 100.112 14.7715C100.274 15.071 100.356 15.4128 100.356 15.7969C100.356 16.181 100.274 16.5228 100.112 16.8223C99.949 17.1217 99.726 17.3577 99.4428 17.5303C99.1596 17.7028 98.8357 17.7891 98.4711 17.7891C98.113 17.7891 97.7924 17.7028 97.5092 17.5303C97.226 17.3577 97.0046 17.1201 96.8451 16.8174C96.6856 16.5146 96.6059 16.1745 96.6059 15.7969C96.6059 15.4193 96.6856 15.0791 96.8451 14.7764C97.0046 14.4736 97.226 14.2393 97.5092 14.0732C97.7924 13.9072 98.113 13.8242 98.4711 13.8242ZM98.4711 14.4688C98.2497 14.4688 98.0479 14.5273 97.8656 14.6445C97.6833 14.7617 97.5417 14.9196 97.4408 15.1182C97.3399 15.3167 97.2895 15.543 97.2895 15.7969C97.2895 16.0508 97.3415 16.2786 97.4457 16.4805C97.5499 16.6823 97.6915 16.8385 97.8705 16.9492C98.0495 17.0599 98.2497 17.1152 98.4711 17.1152C98.699 17.1152 98.904 17.0599 99.0863 16.9492C99.2686 16.8385 99.4118 16.6823 99.516 16.4805C99.6202 16.2786 99.6723 16.0508 99.6723 15.7969C99.6723 15.543 99.6202 15.3167 99.516 15.1182C99.4118 14.9196 99.2686 14.7617 99.0863 14.6445C98.904 14.5273 98.699 14.4688 98.4711 14.4688ZM103.705 19.791H102.973V11.1094H103.705V19.791ZM103.217 15.4062H101.557V14.7715H103.217V15.4062ZM101.821 19.3613H101.098V11.3242H101.821V19.3613ZM98.8617 12.9941H98.1V11.373H98.8617V12.9941ZM105.573 19.0586C105.463 19.0586 105.359 19.0293 105.261 18.9707C105.163 18.9121 105.087 18.834 105.031 18.7363C104.976 18.6387 104.948 18.5345 104.948 18.4238C104.948 18.3132 104.976 18.209 105.031 18.1113C105.087 18.0137 105.163 17.9372 105.261 17.8818C105.359 17.8265 105.463 17.7988 105.573 17.7988C105.684 17.7988 105.788 17.8265 105.886 17.8818C105.984 17.9372 106.06 18.0137 106.115 18.1113C106.171 18.209 106.198 18.3132 106.198 18.4238C106.198 18.5345 106.171 18.6387 106.115 18.7363C106.06 18.834 105.984 18.9121 105.886 18.9707C105.788 19.0293 105.684 19.0586 105.573 19.0586ZM107.812 19.0586C107.702 19.0586 107.598 19.0293 107.5 18.9707C107.402 18.9121 107.326 18.834 107.271 18.7363C107.215 18.6387 107.188 18.5345 107.188 18.4238C107.188 18.3132 107.215 18.209 107.271 18.1113C107.326 18.0137 107.402 17.9372 107.5 17.8818C107.598 17.8265 107.702 17.7988 107.812 17.7988C107.923 17.7988 108.027 17.8265 108.125 17.8818C108.223 17.9372 108.299 18.0137 108.354 18.1113C108.41 18.209 108.438 18.3132 108.438 18.4238C108.438 18.5345 108.41 18.6387 108.354 18.7363C108.299 18.834 108.223 18.9121 108.125 18.9707C108.027 19.0293 107.923 19.0586 107.812 19.0586ZM110.052 19.0586C109.941 19.0586 109.837 19.0293 109.739 18.9707C109.641 18.9121 109.565 18.834 109.51 18.7363C109.454 18.6387 109.427 18.5345 109.427 18.4238C109.427 18.3132 109.454 18.209 109.51 18.1113C109.565 18.0137 109.641 17.9372 109.739 17.8818C109.837 17.8265 109.941 17.7988 110.052 17.7988C110.162 17.7988 110.266 17.8265 110.364 17.8818C110.462 17.9372 110.538 18.0137 110.594 18.1113C110.649 18.209 110.677 18.3132 110.677 18.4238C110.677 18.5345 110.649 18.6387 110.594 18.7363C110.538 18.834 110.462 18.9121 110.364 18.9707C110.266 19.0293 110.162 19.0586 110.052 19.0586Z" fill="black"/>
<path d="M124 42L124 30L118 30L124 42Z" fill="white"/>
</svg>
